<svg data-name="Layer 1" xmlns="http://www.w3.org/2000/svg" xmlns:xlink="http://www.w3.org/1999/xlink" viewBox="0 0 289 181"><defs><linearGradient id="a" x1="148.49" y1="173.23" x2="148.49" y2="19.1" gradientUnits="userSpaceOnUse"><stop offset="0" stop-color="#fff" stop-opacity="0"/><stop offset="1" stop-color="#2a3693"/></linearGradient><linearGradient id="b" x1="68.08" y1="165.49" x2="68.08" y2="96.16" xlink:href="#a"/><linearGradient id="c" x1="-69.73" y1="-747.59" x2="-69.73" y2="-816.3" gradientTransform="rotate(24.4 -2032.036 307.414)" xlink:href="#a"/></defs><path d="M286.5 140.9a26 26 0 01-47 15.4 36.7 36.7 0 01-10.6 1.6 33.3 33.3 0 01-11.8-2.1c-10.8 9-25.8 14.5-42.3 14.5a73.8 73.8 0 01-8.2-.4c-4.5.4-9.1.7-13.9.7a132.3 132.3 0 01-31.2-3.6 79 79 0 01-23.1 3.3c-11.5 0-22-2.2-30.1-6a34.6 34.6 0 11-23.2-60.4h1.3a43.4 43.4 0 0116.9-24.5 35.7 35.7 0 01-.9-8A34.6 34.6 0 0197 36.7h1.1A62.4 62.4 0 01195.4 50a43.3 43.3 0 0141.1 41.5 33.6 33.6 0 0124.8 23.4 26 26 0 0125.2 26z" fill="url(#a)"/><path d="M109.5 126.6a30.4 30.4 0 01-11 23.4 16.1 16.1 0 01-30.4 5.1l-.4-.9-.3.6a21.9 21.9 0 11-18.8-33.1h.3a30.5 30.5 0 0160.6 4.8z" fill="url(#b)" opacity=".26"/><path d="M234.7 133.5a29 29 0 01-29.8 16.7 20.8 20.8 0 01-32.6-24.2 19.7 19.7 0 017.4-8.7 29 29 0 1155 16.2z" fill="url(#c)" opacity=".26"/></svg>