<svg id="Layer_1" data-name="Layer 1" xmlns="http://www.w3.org/2000/svg" viewBox="0 0 268.9 139.1"><defs><style>.cls-1{fill:#1d4485;fill-rule:evenodd}</style></defs><path class="cls-1" d="M197 95.2a25.8 25.8 0 10-25.8-25.7A25.8 25.8 0 00197 95.2zM72 110.5a40.8 40.8 0 1135.2-61.3L126 38.3a62.6 62.6 0 10.1 62.6L107.3 90A40.5 40.5 0 0172 110.5z"/><path class="cls-1" d="M92.9 84.7c11.9-16.6 38.6-11.3 45.7 7.2a62.5 62.5 0 10-.2-44.5 26.5 26.5 0 01-46 6.7A25.4 25.4 0 0071.8 44a25.8 25.8 0 1021.1 40.7zm104.2 25.5a40.8 40.8 0 1140.7-40.9 40.7 40.7 0 01-40.7 40.9z"/></svg>