<svg data-name="Layer 1" xmlns="http://www.w3.org/2000/svg" xmlns:xlink="http://www.w3.org/1999/xlink" viewBox="0 0 397.7 500"><defs><linearGradient id="a" x1="8.98" y1="182.26" x2="330.55" y2="182.26" gradientUnits="userSpaceOnUse"><stop offset="0" stop-color="#f8dc14"/><stop offset=".2" stop-color="#e5bf06"/></linearGradient><linearGradient id="c" x1="28.23" y1="182.88" x2="324.59" y2="182.88" xlink:href="#a"/><linearGradient id="d" x1="46.5" y1="183.39" x2="317.63" y2="183.39" xlink:href="#a"/><linearGradient id="e" x1="63.44" y1="183.83" x2="309.35" y2="183.83" xlink:href="#a"/><linearGradient id="f" x1="79.03" y1="184.24" x2="299.71" y2="184.24" xlink:href="#a"/><linearGradient id="g" x1="93.67" y1="184.54" x2="289.12" y2="184.54" xlink:href="#a"/><linearGradient id="h" x1="107.21" y1="184.68" x2="277.44" y2="184.68" xlink:href="#a"/><linearGradient id="b" x1="69.84" y1="317.74" x2="388.74" y2="317.74" gradientUnits="userSpaceOnUse"><stop offset="0" stop-color="#f8dc14"/><stop offset="1" stop-color="#e5bf06"/></linearGradient><linearGradient id="i" x1="75.58" y1="317.29" x2="369.47" y2="317.29" xlink:href="#b"/><linearGradient id="j" x1="82.32" y1="316.91" x2="351.19" y2="316.91" xlink:href="#b"/><linearGradient id="k" x1="90.38" y1="316.57" x2="334.24" y2="316.57" xlink:href="#b"/><linearGradient id="l" x1="99.79" y1="316.22" x2="318.64" y2="316.22" xlink:href="#b"/><linearGradient id="m" x1="110.16" y1="315.95" x2="303.99" y2="315.95" xlink:href="#b"/><linearGradient id="n" x1="121.63" y1="315.81" x2="290.45" y2="315.81" xlink:href="#b"/></defs><path d="M176 350.9c-92-8.2-159.9-89.5-151.7-181.5S113.9 9.5 205.9 17.8a166.7 166.7 0 01124.7 74.6A173.1 173.1 0 00197.8 9.6C102.5 1 18.2 71.4 9.7 166.8s61.8 179.6 157.2 188.1A172.7 172.7 0 00271.4 331a166.2 166.2 0 01-95.4 19.9z" fill="url(#a)"/><path d="M182.1 338.3A154.1 154.1 0 11324.6 100 159.9 159.9 0 10270 319.9a152.5 152.5 0 01-87.9 18.4z" fill="url(#c)"/><path d="M187.3 325.6a141 141 0 11130.3-218 146.1 146.1 0 00-270.5 62.7C39.9 250.7 99.2 321.8 179.6 329a146.3 146.3 0 0088.1-20.2 140.5 140.5 0 01-80.4 16.8z" fill="url(#d)"/><path d="M191.1 312.8a127.9 127.9 0 11118.2-197.7 132.5 132.5 0 10-45.2 182.5 127.3 127.3 0 01-73 15.2z" fill="url(#e)"/><path d="M193.6 300a114.8 114.8 0 11106.1-177.5 118.9 118.9 0 10-40.6 163.8 114.6 114.6 0 01-65.5 13.7z" fill="url(#f)"/><path d="M195.2 287.1a101.7 101.7 0 1193.9-157.2 105.4 105.4 0 10-35.9 145 101.9 101.9 0 01-58 12.2z" fill="url(#g)"/><path d="M195.6 274a88.6 88.6 0 1181.8-136.9 91.8 91.8 0 10-31.3 126.3 88.3 88.3 0 01-50.5 10.6z" fill="url(#h)"/><path d="M216.9 149a167.2 167.2 0 01156.8 177c-5.6 92.2-84.9 162.4-177.1 156.9a167.2 167.2 0 01-126.8-71 173.4 173.4 0 00135.1 78.9c95.6 5.8 177.7-67 183.5-162.6s-67-177.7-162.5-183.5a172.4 172.4 0 00-103.8 27 166 166 0 0194.8-22.7z" fill="url(#b)"/><path d="M211.1 161.8c84.9 5.1 149.6 78.1 144.5 163.1a154.1 154.1 0 01-280 79.2 159.5 159.5 0 00124.5 72.7c88 5.3 163.7-61.8 169.1-149.9s-61.8-163.7-149.8-169.1a159.3 159.3 0 00-95.7 24.9 152.9 152.9 0 0187.4-20.9z" fill="url(#i)"/><path d="M206.3 174.6a141 141 0 11-124 221.7 146.2 146.2 0 00268.6-70.6c4.9-80.5-56.5-149.8-137-154.7a146.3 146.3 0 00-87.5 22.7 140.8 140.8 0 0179.9-19.1z" fill="url(#j)"/><path d="M202.8 187.5A127.9 127.9 0 1190.4 388.6a132.7 132.7 0 1039.9-183.7 126.9 126.9 0 0172.5-17.4z" fill="url(#k)"/><path d="M200.7 200.4A114.8 114.8 0 1199.8 380.8 118.9 118.9 0 10135.6 216a114.4 114.4 0 0165.1-15.6z" fill="url(#l)"/><path d="M199.5 213.4a101.6 101.6 0 11-89.3 159.8 105.4 105.4 0 1031.7-146 100.9 100.9 0 0157.6-13.8z" fill="url(#m)"/><path d="M199.5 226.5a88.5 88.5 0 11-77.9 139.2 91.8 91.8 0 1027.7-127.2 88.2 88.2 0 0150.2-12z" fill="url(#n)"/></svg>