<svg id="Layer_1" data-name="Layer 1" xmlns="http://www.w3.org/2000/svg" viewBox="0 0 265.9 165.3"><defs><style>.cls-1,.cls-2{fill:#1d4485}.cls-2{fill-rule:evenodd}</style></defs><path class="cls-1" d="M45.4 149.6a2 2 0 00-.9-1.6 3.5 3.5 0 00-1.8-.5 3.2 3.2 0 00-1.4.3 2 2 0 00-.9.9 2.3 2.3 0 00-.6 1.2 7.7 7.7 0 00-.2 1.5 5.9 5.9 0 00.2 1.4 5 5 0 00.5 1.3 2.2 2.2 0 001 .9 3.3 3.3 0 001.5.3h1a2.4 2.4 0 00.8-.6l.6-.7a2.9 2.9 0 00.3-1h.9a5.6 5.6 0 01-.4 1.2 3.9 3.9 0 01-.8 1 3 3 0 01-1.1.7 3.4 3.4 0 01-1.5.2 3.2 3.2 0 01-2.9-1.3 6.9 6.9 0 01-.7-1.5 11 11 0 01-.2-1.8 6.6 6.6 0 01.3-2.1 2.8 2.8 0 01.9-1.4 3.8 3.8 0 011.3-.9l1.6-.2 1.2.2 1.1.5a2.2 2.2 0 01.7.9 3.4 3.4 0 01.4 1.2zM50.3 156l-1.1-.2-1-.7a4.4 4.4 0 01-.6-1 5.9 5.9 0 01-.2-1.4 2.7 2.7 0 01.2-1.3 2.8 2.8 0 01.5-1.1l.9-.7a3 3 0 012.6 0 2.2 2.2 0 01.9.7 3.3 3.3 0 01.6 1 6.6 6.6 0 01.1 1.4 2.7 2.7 0 01-.2 1.3 2.4 2.4 0 01-.6 1.1 1.5 1.5 0 01-.9.6 2.7 2.7 0 01-1.2.3zm2.2-3.3a3.6 3.6 0 00-.2-1.1 2 2 0 00-.4-.8.9.9 0 00-.6-.6 1.6 1.6 0 00-1-.2l-1 .2a1.7 1.7 0 00-.6.6 2.5 2.5 0 00-.4.9 3.1 3.1 0 00-.1 1 3.4 3.4 0 00.1 1 2.5 2.5 0 00.4.9 1.8 1.8 0 00.7.5 1.3 1.3 0 00.9.2l1-.2a1.7 1.7 0 00.6-.6 2.5 2.5 0 00.4-.9 2.9 2.9 0 00.2-.9zM55.2 155.8h-.7v-6.3h.7v.9l.9-.8a2 2 0 011.1-.3l1.1.2a2.7 2.7 0 01.8.7 1.3 1.3 0 01.3.7c0 .3.1.5.1.8v4.1h-.8v-4.1a2.3 2.3 0 00-.3-1.3 1.7 1.7 0 00-1.3-.4h-.6c-.2.1-.4.1-.5.3l-.4.3-.3.5c0 .2-.1.4-.1.6v4zM61.8 155.8h-.7v-6.3h.7v.9a3.9 3.9 0 011-.8 1.8 1.8 0 011.1-.3l1.1.2a2.7 2.7 0 01.8.7 1.3 1.3 0 01.3.7v4.9h-.7v-4.1a1.7 1.7 0 00-.4-1.3 1.5 1.5 0 00-1.2-.4h-.7l-.5.3-.4.3-.2.5a1.3 1.3 0 00-.1.6c0 .2-.1.4-.1.6zM68.2 152.8a3 3 0 00.2 1 1.2 1.2 0 00.4.8 1 1 0 00.6.5 1.5 1.5 0 00.9.2 2 2 0 001.3-.4 2.6 2.6 0 00.7-1h.8a3 3 0 01-.4.8 1.8 1.8 0 01-.5.7l-.8.4-1.1.2a2.9 2.9 0 01-2.2-1 3.1 3.1 0 01-.5-1 5.9 5.9 0 01-.2-1.3 5.1 5.1 0 01.2-1.3l.6-1.1.9-.7 1.2-.3a2.6 2.6 0 012.1.9 4 4 0 01.7 2.6zm4.1-.6a2.8 2.8 0 00-.1-.9 2.5 2.5 0 00-.4-.7.9.9 0 00-.6-.4c-.2-.2-.5-.2-.9-.2a1.1 1.1 0 00-.8.2l-.7.4c-.1.3-.3.5-.4.8s-.1.5-.2.8zM78.9 151.5a1.4 1.4 0 00-.7-1.1 1.6 1.6 0 00-1.2-.4l-.9.2-.7.6a3.6 3.6 0 00-.4.9 3.1 3.1 0 00-.1 1 2.8 2.8 0 00.1.9 2.5 2.5 0 00.4.9l.7.6.9.2a1.7 1.7 0 001.3-.4 1.9 1.9 0 00.7-1.3h.7a1.7 1.7 0 01-.3 1 1.8 1.8 0 01-.5.7l-.8.5-1.1.2a2.9 2.9 0 01-2.2-1 3.1 3.1 0 01-.5-1 5.9 5.9 0 01-.2-1.3 5.1 5.1 0 01.2-1.3 2.4 2.4 0 01.6-1.1 2.2 2.2 0 01.9-.7 2.4 2.4 0 011.2-.3 3 3 0 011.8.5 2.8 2.8 0 01.9 1.7zM83.3 155.8h-.8a1.2 1.2 0 01-.9-.3 1.3 1.3 0 01-.3-1v-4.6h-.8v-.6h.8v-1.8h.8v1.8h1.2v.6h-1.2v4.7a.4.4 0 00.1.3l.2.2h.9zM87.4 151.4a5.7 5.7 0 01.3-1.8 3.7 3.7 0 01.7-1.4 3.1 3.1 0 011.3-1 3.3 3.3 0 011.7-.4 3.4 3.4 0 011.8.4 2.5 2.5 0 011.3.9 5.5 5.5 0 01.8 1.5 5.7 5.7 0 01.3 1.8 4.8 4.8 0 01-.3 1.8 3.6 3.6 0 01-.8 1.5 4 4 0 01-1.2 1 5.5 5.5 0 01-3.6 0l-1.3-1a3.5 3.5 0 01-.7-1.5 4.8 4.8 0 01-.3-1.8zm4.1 3.9a3.3 3.3 0 001.5-.3 3.9 3.9 0 001-.8l.6-1.3a7.7 7.7 0 00.2-1.5 4.1 4.1 0 00-.3-1.6 2.3 2.3 0 00-.6-1.2 2.1 2.1 0 00-1.1-.8 2.8 2.8 0 00-1.3-.3 3.3 3.3 0 00-1.5.3 4.3 4.3 0 00-1 .9 3.1 3.1 0 00-.6 1.3 5.9 5.9 0 00-.2 1.4 6.8 6.8 0 00.2 1.5 3.1 3.1 0 00.6 1.3 3.9 3.9 0 001 .8 3.3 3.3 0 001.5.3zM97.7 155.8H97v-6.3h.7v.9l.9-.8a2.1 2.1 0 011.2-.3l1.1.2a2.7 2.7 0 01.8.7l.3.7v4.9h-.7v-4.1a1.5 1.5 0 00-1.7-1.7H99l-.5.3-.4.3c-.1.2-.2.3-.2.5a21996312964342.1 21996312964342.1 0 00-.2 1.2zM107.9 148.1h-.1v7.7h-.8V147h.9l5.1 7.7V147h.9v8.8h-1zM116.1 152.8a3.1 3.1 0 00.1 1 2 2 0 00.4.8 1.8 1.8 0 00.7.5c.2.2.5.2.9.2a1.6 1.6 0 001.2-.4 1.4 1.4 0 00.7-1h.8l-.3.8-.6.7-.8.4-1 .2a2.5 2.5 0 01-1.3-.3 1.6 1.6 0 01-.9-.7 3.3 3.3 0 01-.6-1 5.7 5.7 0 01-.1-1.3 2.7 2.7 0 01.2-1.3 2.4 2.4 0 01.6-1.1 2.2 2.2 0 01.9-.7 2.1 2.1 0 011.2-.3 2.4 2.4 0 012 .9 4 4 0 01.8 2.6zm4.1-.6c0-.3-.1-.6-.1-.9l-.4-.7-.7-.4a1.1 1.1 0 00-.8-.2 1.5 1.5 0 00-.9.2l-.6.4-.4.8a1.9 1.9 0 00-.2.8zM127.6 154.8l1.7-5.3h.7l-2 6.3h-.8l-1.4-5.3-1.4 5.3h-.9l-1.9-6.3h.7l1.6 5.4 1.5-5.4h.8zM134.3 147h.9v5.3a3.7 3.7 0 00.6 2.3 2.2 2.2 0 001.9.7 2.2 2.2 0 001.2-.2 1.6 1.6 0 00.8-.5 1.9 1.9 0 00.5-1 5.3 5.3 0 00.1-1.3V147h.8v5.5a3 3 0 01-3.4 3.5 3.2 3.2 0 01-2.5-.9 3.6 3.6 0 01-.9-2.6zM143.6 155.8h-.7v-6.3h.7v.9l.9-.8a2.4 2.4 0 011.2-.3l1.1.2a2.7 2.7 0 01.8.7 3.6 3.6 0 01.3.7v4.9h-.7v-4.1a1.7 1.7 0 00-.4-1.3 1.5 1.5 0 00-1.2-.4h-.7l-.5.3-.4.3-.2.5a14664208642913.5 14664208642913.5 0 00-.2 1.2zM149.6 148.1V147h.8v1.1zm.1 7.7v-6.3h.7v6.3zM151.5 149.5h.8l2 5.4 2.1-5.4h.8l-2.5 6.3h-.8zM158.6 152.8a3.1 3.1 0 00.1 1 2 2 0 00.4.8 1.8 1.8 0 00.7.5 1.3 1.3 0 00.9.2 1.6 1.6 0 001.2-.4 1.4 1.4 0 00.7-1h.8l-.3.8a2 2 0 01-.6.7l-.7.4-1.1.2a2.8 2.8 0 01-1.3-.3 1.6 1.6 0 01-.9-.7 3.1 3.1 0 01-.5-1 5.9 5.9 0 01-.2-1.3 5.1 5.1 0 01.2-1.3 2.4 2.4 0 01.6-1.1 2.2 2.2 0 01.9-.7 2.1 2.1 0 011.2-.3 2.6 2.6 0 012.1.9 4.7 4.7 0 01.7 2.6zm4.1-.6a2.8 2.8 0 00-.1-.9 2.5 2.5 0 00-.4-.7l-.6-.4a2.1 2.1 0 00-1.8 0l-.6.4-.4.8a1.9 1.9 0 00-.2.8zM165.6 155.8h-.8v-6.3h.8v1.2a1.9 1.9 0 01.8-1.1 2.1 2.1 0 011.2-.3v.8l-1 .2a.9.9 0 00-.6.6 2 2 0 00-.4.8v4.1zM169.2 153.8a1.7 1.7 0 00.6 1.2 2.1 2.1 0 001.2.3h.7l.5-.2.3-.4a.6.6 0 00.1-.4c0-.4-.1-.6-.3-.7l-.7-.4-1-.2-1-.3a1.8 1.8 0 01-.7-.5 1.5 1.5 0 01-.3-1 2.1 2.1 0 01.5-1.3 2.9 2.9 0 011.7-.5 2.5 2.5 0 011.6.5 1.9 1.9 0 01.8 1.5h-.7a1.4 1.4 0 00-.6-1 2 2 0 00-1.1-.3 1.6 1.6 0 00-1.1.3 1 1 0 00-.4.8.7.7 0 00.3.6l.8.4 1 .2.9.3.8.6a1.2 1.2 0 01.3.9 1.9 1.9 0 01-.2.8 1 1 0 01-.5.6l-.9.4h-1l-1-.2-.7-.4-.5-.7a2.9 2.9 0 01-.2-.9zM177.6 152.1h.5l.5-.2c.1 0 .2-.1.2-.3v-.3a1.7 1.7 0 00-.3-1 2.1 2.1 0 00-1.2-.3h-.7l-.6.3-.4.4a6.4 6.4 0 00-.2.7h-.7a3 3 0 01.2-1l.6-.6a2 2 0 01.8-.4h1.9l.7.4a1 1 0 01.5.6 2 2 0 01.2.9v3.4c0 .3 0 .5.1.6h.6v.6h-1.2c0-.1-.1-.2-.1-.3v-.6a3.8 3.8 0 01-1.1.8 2.8 2.8 0 01-1.3.3h-.8l-.7-.4a1 1 0 01-.4-.5 1.2 1.2 0 01-.2-.8c0-1.1.7-1.7 2.2-1.9zm1.2.4l-.9.2h-1l-1.3.4a1.2 1.2 0 00-.4 1 .7.7 0 00.1.5l.3.3.4.3h1.4l.7-.3.5-.6a1.1 1.1 0 00.2-.8zM181.5 155.8V147h.7v8.8zM188.2 148.1h-.1v7.7h-.8V147h.9l5.1 7.7V147h.9v8.8h-1zM196.4 152.8a3.1 3.1 0 00.1 1 2 2 0 00.4.8 1.8 1.8 0 00.7.5c.2.2.5.2.9.2a1.6 1.6 0 001.2-.4 1.4 1.4 0 00.7-1h.8l-.3.8-.6.7-.8.4-1 .2a2.5 2.5 0 01-1.3-.3 1.6 1.6 0 01-.9-.7 3.3 3.3 0 01-.6-1 5.7 5.7 0 01-.1-1.3 2.7 2.7 0 01.2-1.3 3.7 3.7 0 01.5-1.1l1-.7a2.1 2.1 0 011.2-.3 2.5 2.5 0 012 .9 4 4 0 01.8 2.6zm4.1-.6c0-.3-.1-.6-.1-.9l-.4-.7-.7-.4a1.1 1.1 0 00-.8-.2 1.5 1.5 0 00-.9.2l-.6.4a3 3 0 00-.4.8 1.9 1.9 0 00-.2.8zM204.8 155.8h-.9a1.1 1.1 0 01-.8-.3 1.3 1.3 0 01-.3-1v-4.6h-.9v-.6h.9v-1.8h.8v1.8h1.1v.6h-1.1v5l.2.2h1zM211.2 154.8l1.6-5.3h.8l-2.1 6.3h-.8l-1.3-5.3h-.1l-1.4 5.3h-.8l-2-6.3h.8l1.6 5.4 1.5-5.4h.8zM217 156l-1.1-.2a2.2 2.2 0 01-.9-.7 2.6 2.6 0 01-.7-1 5.9 5.9 0 01-.2-1.4 5.1 5.1 0 01.2-1.3 2.8 2.8 0 01.5-1.1l.9-.7a2.8 2.8 0 011.3-.3 2.5 2.5 0 011.3.3 2.2 2.2 0 01.9.7 2.1 2.1 0 01.6 1 6.8 6.8 0 01.2 1.4 2.8 2.8 0 01-.3 1.3 3.7 3.7 0 01-.5 1.1 2.1 2.1 0 01-1 .6 2.1 2.1 0 01-1.2.3zm2.2-3.3c0-.4-.1-.8-.1-1.1l-.4-.8a1.3 1.3 0 00-.7-.6 1.6 1.6 0 00-1-.2l-1 .2-.6.6a2.5 2.5 0 00-.4.9 3.1 3.1 0 00-.1 1 3.4 3.4 0 00.1 1 7.9 7.9 0 00.4.9 1.8 1.8 0 00.7.5 1.5 1.5 0 00.9.2l1-.2.7-.6a7.9 7.9 0 00.4-.9c0-.3.1-.6.1-.9zM221.9 155.8h-.7v-6.3h.7v1.2h.1a1.9 1.9 0 01.8-1.1 2.1 2.1 0 011.2-.3v.8l-1 .2a.9.9 0 00-.6.6 2 2 0 00-.4.8c0 .3-.1.7-.1 1zM225.1 155.8V147h.7v5.5l3.1-3h1l-2.4 2.3 2.7 4h-.8l-2.4-3.5-1.2 1.1v2.4zM231.5 153.8a1.7 1.7 0 00.6 1.2 2.5 2.5 0 001.3.3h.7l.5-.2.3-.4c0-.1.1-.3.1-.4s-.1-.6-.3-.7l-.8-.4-1-.2-.9-.3-.8-.5a1.5 1.5 0 01-.3-1 1.8 1.8 0 01.6-1.3 2.5 2.5 0 011.6-.5 2.9 2.9 0 011.7.5 2.2 2.2 0 01.8 1.5h-.8a1.1 1.1 0 00-.5-1 2.1 2.1 0 00-1.2-.3 1.5 1.5 0 00-1 .3.8.8 0 00-.4.8.7.7 0 00.3.6 2 2 0 00.8.4l.9.2 1 .3.8.6a1.2 1.2 0 01.3.9 1.9 1.9 0 01-.2.8l-.6.6-.8.4h-1l-1-.2-.8-.4a2.5 2.5 0 01-.4-.7 2.9 2.9 0 01-.2-.9zM64 118.5c0-6.1 1.7-10.9 5.1-14.3s8.2-5.1 14.2-5.1 11.1 1.7 14.4 5 5.1 8 5.1 14.1a23.9 23.9 0 01-2.2 10.7 15.4 15.4 0 01-6.4 6.5 20.5 20.5 0 01-10.4 2.4 24.9 24.9 0 01-10.5-2 16.4 16.4 0 01-6.7-6.4 21.4 21.4 0 01-2.6-10.9zm11.6 0c0 3.8.7 6.5 2.1 8.2a8.1 8.1 0 0011.5 0c1.3-1.6 2-4.5 2-8.7s-.7-6.1-2.1-7.7a7.5 7.5 0 00-5.8-2.5 7.2 7.2 0 00-5.6 2.5c-1.4 1.7-2.1 4.4-2.1 8.2zM114.3 99.7h10.8l14.1 20.7V99.7h10.9v37.4h-10.9l-14-20.5v20.5h-10.9zM187.3 99.7h11.6V122a19 19 0 01-1.1 6.3 11.9 11.9 0 01-3.2 5.1 12.9 12.9 0 01-4.6 3.1 22.2 22.2 0 01-8.1 1.3 44.1 44.1 0 01-6-.4 19.2 19.2 0 01-5.4-1.5 16.6 16.6 0 01-3.9-3.2 11.6 11.6 0 01-2.5-4.4 22 22 0 01-1.1-6.3V99.7h11.6v22.9a6 6 0 006.4 6.5 6.2 6.2 0 004.6-1.7 6.4 6.4 0 001.7-4.8zM211.8 99.7h10.8l14.1 20.7V99.7h10.9v37.4h-10.9l-14-20.5v20.5h-10.9z"/><g><path class="cls-1" d="M35.5 108a6.3 6.3 0 011.9-.3 6.9 6.9 0 013.2.8 6.4 6.4 0 012.4 2 16.2 16.2 0 011.1 2.5l10.2-2.3a16.6 16.6 0 00-6-8.7c-2.7-2-6.4-2.9-11.1-2.9h-1.7zM44.5 121.8a10.5 10.5 0 01-2.5 5.4 6.2 6.2 0 01-5 1.9 6.7 6.7 0 01-5.3-2.3c-1.2-1.5-1.9-4.4-1.9-8.5a19.3 19.3 0 01.5-4.5H18.6a31.9 31.9 0 00-.3 4.5c0 4.7.9 8.5 2.8 11.5a16.2 16.2 0 006.6 6.2 23.9 23.9 0 0010 1.8 20.2 20.2 0 008.3-1.5 13.3 13.3 0 005.4-4.3 17.2 17.2 0 003.2-7.1z"/></g><path class="cls-2" d="M177.7 62.3a15.5 15.5 0 10-15.5-15.5 15.5 15.5 0 0015.5 15.5zM102.6 71.3a24.5 24.5 0 1121.2-36.7l11.3-6.6a37.6 37.6 0 100 37.6l-11.3-6.5a24.4 24.4 0 01-21.2 12.2z"/><path class="cls-2" d="M115.2 55.8c7.1-9.9 23.2-6.7 27.4 4.4a37.6 37.6 0 100-26.7 16 16 0 01-27.7 4 15.4 15.4 0 10.3 18.3zm62.5 15.5a24.5 24.5 0 1124.5-24.5 24.5 24.5 0 01-24.5 24.5z"/></svg>