<svg id="Layer_1" data-name="Layer 1" xmlns="http://www.w3.org/2000/svg" viewBox="0 0 300 52.6"><defs><style>.cls-1,.cls-2{fill:#1d4485}.cls-2{fill-rule:evenodd}</style></defs><path class="cls-1" d="M103.2 37.2a1.5 1.5 0 00-.7-1.2 2.1 2.1 0 00-1.4-.4 1.7 1.7 0 00-1 .3 1.1 1.1 0 00-.7.6 3.1 3.1 0 00-.5 1 3.7 3.7 0 00-.1 1.1 4.1 4.1 0 00.1 1.1 2.5 2.5 0 00.4.9 1.6 1.6 0 00.7.7 2.1 2.1 0 001.2.3l.8-.2c.2 0 .4-.2.6-.3l.4-.6.3-.8h.7a3 3 0 01-.4 1 1.8 1.8 0 01-.5.7l-.9.5a2.2 2.2 0 01-1.2.2 2.9 2.9 0 01-2.2-1 3.7 3.7 0 01-.5-1.1 6.6 6.6 0 01-.1-1.4 3.9 3.9 0 01.2-1.6 3 3 0 01.7-1.1 1.8 1.8 0 01.9-.6 2.7 2.7 0 011.3-.2h.9a2 2 0 01.8.4l.6.7a9.4 9.4 0 01.3.9zM106.9 42.1l-.8-.2a1.2 1.2 0 01-.7-.5 1.1 1.1 0 01-.5-.8 3.1 3.1 0 01-.2-1.1 2.8 2.8 0 01.1-.9 2.6 2.6 0 01.5-.9 1.3 1.3 0 01.7-.5l.9-.2 1 .2a1.8 1.8 0 01.7.5 3 3 0 01.4.8 4.4 4.4 0 01.2 1 3.6 3.6 0 01-.2 1.1 5.9 5.9 0 01-.4.8l-.8.5zm1.7-2.6c0-.2-.1-.5-.1-.8l-.3-.6a1 1 0 00-.5-.4l-.8-.2-.7.2a1 1 0 00-.5.4.9.9 0 00-.3.7 1.7 1.7 0 00-.1.7 2.8 2.8 0 00.1.9l.3.6a1 1 0 00.5.4l.7.2.8-.2a1.2 1.2 0 00.5-.5l.3-.6c0-.2.1-.5.1-.8zM110.6 42h-.5v-4.9h.5v.7l.7-.6.9-.2.8.2a1.2 1.2 0 01.7.5c.1.2.2.3.2.5V42h-.5v-3.2a1.5 1.5 0 00-.3-1 1.3 1.3 0 00-1-.3h-.5l-.4.2c-.1.1-.2.2-.2.3s-.2.2-.2.3a.9.9 0 00-.1.5 4.3 4.3 0 00-.1.5zM115.7 42h-.5v-4.9h.5v.7l.7-.6.9-.2.8.2c.3.1.5.2.6.5a1.3 1.3 0 01.3.5V42h-.6v-3.2a1.5 1.5 0 00-.3-1c-.1-.2-.5-.3-.9-.3h-.5l-.4.2-.3.3c0 .1-.1.2-.2.3a.9.9 0 01-.1.5V42zM120.6 39.7a1.7 1.7 0 00.1.7l.3.6a1 1 0 00.5.4l.7.2a1.2 1.2 0 00.9-.3 1.6 1.6 0 00.6-.8h.6l-.3.6a1 1 0 01-.4.5l-.6.4h-.8l-1-.2a1.8 1.8 0 01-.7-.5 3 3 0 01-.4-.8 3.8 3.8 0 01-.1-1 3.1 3.1 0 01.1-1 5.6 5.6 0 01.5-.8 1.3 1.3 0 01.7-.6l.9-.2a1.9 1.9 0 011.6.7 2.8 2.8 0 01.5 2zm3.1-.5a2 2 0 00-.1-.7c0-.2-.1-.3-.3-.5l-.4-.4h-1.3l-.5.4-.4.6c0 .2-.1.4-.1.6zM128.7 38.6a1.4 1.4 0 00-.5-.8 1.2 1.2 0 00-.9-.3l-.7.2-.5.5a.7.7 0 00-.3.6 2.2 2.2 0 00-.1.8 1.7 1.7 0 00.1.7.7.7 0 00.3.6l.5.5.7.2a1.2 1.2 0 001-.4 1.3 1.3 0 00.5-.9h.6c-.1.3-.1.5-.3.7a2.1 2.1 0 01-.4.6 1.5 1.5 0 01-.6.4h-.8l-1-.2a1.8 1.8 0 01-.7-.5 2.5 2.5 0 01-.4-.9 2.8 2.8 0 01-.1-.9 3.1 3.1 0 01.1-1 2.2 2.2 0 01.5-.8c.1-.3.4-.4.7-.6l.9-.2a2.1 2.1 0 011.4.4 2.3 2.3 0 01.6 1.2zM132.1 42h-.6l-.7-.2a1.5 1.5 0 01-.2-.8v-3.4h-.7v-.5h.7v-1.3h.6v1.3h.9v.5h-.9v3.8h.2c0 .1.1.1.2.1h.3c0-.1.1-.1.2-.1zM135.2 38.6a6.8 6.8 0 01.2-1.4 2.4 2.4 0 01.6-1.1 2.3 2.3 0 011-.7 2.8 2.8 0 011.3-.3 3.2 3.2 0 011.4.3 2.3 2.3 0 011 .7l.6 1.1a6.8 6.8 0 01.2 1.4 5.9 5.9 0 01-.2 1.4l-.6 1.1a2.3 2.3 0 01-1 .7 3.2 3.2 0 01-1.4.3 2.8 2.8 0 01-1.3-.3 2.3 2.3 0 01-1-.7 2.4 2.4 0 01-.6-1.1 5.9 5.9 0 01-.2-1.4zm3.1 3a2.4 2.4 0 001.2-.3 1.3 1.3 0 00.7-.6 3.1 3.1 0 00.5-1 3.7 3.7 0 00.1-1.1 2.2 2.2 0 00-.2-1.2 3 3 0 00-.4-1l-.8-.6-1.1-.2a2 2 0 00-1.1.3 2.4 2.4 0 00-.8.6 3 3 0 00-.4 1 3.1 3.1 0 000 2.2 3 3 0 00.4 1 1.6 1.6 0 00.8.6 2 2 0 001.1.3zM143.1 42h-.6v-4.9h.6v.7l.7-.6.8-.2.9.2a1.3 1.3 0 01.6.5c.1.2.2.3.2.5s.1.4.1.6V42h-.6v-3.2a1.5 1.5 0 00-.3-1 1.2 1.2 0 00-.9-.3h-.5l-.4.2-.3.3-.2.3c0 .2-.1.3-.1.5V42zM150.8 36.1V42h-.6v-6.7h.7l3.9 5.8v-5.8h.6V42h-.7zM157.1 39.7a1.7 1.7 0 00.1.7.9.9 0 00.3.6 1 1 0 00.5.4l.7.2a1.2 1.2 0 00.9-.3 1 1 0 00.5-.8h.7l-.3.6a1 1 0 01-.4.5l-.6.4h-.8l-1-.2a1.8 1.8 0 01-.7-.5 3 3 0 01-.4-.8 3.8 3.8 0 01-.1-1 3.1 3.1 0 01.1-1 2.2 2.2 0 01.5-.8 1.3 1.3 0 01.7-.6l.9-.2a1.9 1.9 0 011.6.7 3.4 3.4 0 01.5 2zm3.1-.5a2 2 0 00-.1-.7c0-.2-.1-.3-.3-.5l-.5-.4H158l-.4.4-.4.6a1.3 1.3 0 00-.1.6zM165.9 41.2l1.2-4.1h.6l-1.6 4.9h-.5l-1.1-4.1-1.1 4.1h-.7l-1.4-4.9h.5l1.3 4.1 1.1-4.1h.6zM171 35.3h.6v3.9a2.6 2.6 0 00.5 1.8 1.8 1.8 0 001.5.6l.9-.2a.9.9 0 00.6-.4 1.6 1.6 0 00.4-.7c0-.3.1-.7.1-1.1v-3.9h.6v4.1a2.8 2.8 0 01-.6 2 2.6 2.6 0 01-2 .7 2.2 2.2 0 01-1.9-.7 2.4 2.4 0 01-.7-2zM178.1 42h-.6v-4.9h.6v.7l.7-.6.9-.2.8.2c.2.1.5.2.6.5s.2.3.2.5a1.3 1.3 0 01.1.6V42h-.6v-3.2a1.5 1.5 0 00-.3-1 1.2 1.2 0 00-.9-.3h-.5l-.4.2-.3.3-.2.3c0 .2-.1.3-.1.5V42zM182.7 36.1v-.8h.6v.8zm0 5.9v-4.9h.6V42zM184.1 37.1h.6l1.5 4.2 1.6-4.2h.6l-1.9 4.9h-.6zM189.5 39.7a1.7 1.7 0 00.1.7l.3.6a1 1 0 00.5.4l.7.2a1.7 1.7 0 001-.3 2.2 2.2 0 00.5-.8h.6l-.3.6a1 1 0 01-.4.5l-.6.4h-.8l-1-.2a1.8 1.8 0 01-.7-.5c-.1-.3-.3-.5-.4-.8a3.8 3.8 0 01-.1-1 3 3 0 01.2-1 2 2 0 01.4-.8 1.3 1.3 0 01.7-.6l.9-.2a1.9 1.9 0 011.6.7 2.8 2.8 0 01.5 2zm3.1-.5a2 2 0 00-.1-.7c0-.2-.1-.3-.2-.5l-.5-.4h-1.3l-.5.4a.9.9 0 00-.3.6 1.4 1.4 0 00-.2.6zM194.8 42h-.5v-4.9h.5v.9l.6-.8 1-.2v.6l-.8.2-.5.4a1.4 1.4 0 00-.2.6 2.2 2.2 0 00-.1.8zM197.6 40.4a1 1 0 00.4.9 1.7 1.7 0 001 .3h.5l.4-.2c.1-.1.2-.2.2-.3a.4.4 0 00.1-.3.8.8 0 00-.2-.5c-.2-.2-.4-.2-.6-.3l-.8-.2-.7-.2-.6-.4a1.4 1.4 0 01-.2-.7 1.5 1.5 0 01.4-1 1.8 1.8 0 011.3-.4 2 2 0 011.3.4 1.7 1.7 0 01.6 1.1h-.6a1.5 1.5 0 00-.4-.8l-.9-.2a1.5 1.5 0 00-.8.2.9.9 0 00-.3.6.6.6 0 00.2.5l.6.3.7.2.8.2.6.5a1.2 1.2 0 01.2.7 1.4 1.4 0 01-.2.6.8.8 0 01-.4.4l-.6.3h-1.5l-.6-.4a1 1 0 01-.4-.5c0-.2-.1-.4-.1-.7zM204 39.1h.7c.1-.1.2-.1.2-.2v-.3a.8.8 0 00-.2-.7 1.3 1.3 0 00-1-.3h-.9l-.3.4c-.1.1-.1.3-.2.5h-.5a1.4 1.4 0 01.2-.7 1 1 0 01.4-.5c.2-.2.4-.2.6-.3h1.4l.6.2a1 1 0 01.4.5 1.5 1.5 0 01.1.7V41c0 .2 0 .4.1.4a.4.4 0 00.5 0v.4h-.7c-.1 0-.2 0-.2-.1s-.1-.1-.2-.2v-.4l-.9.6-.9.2h-.7l-.5-.3-.3-.4a1.4 1.4 0 01-.2-.6c0-.8.6-1.3 1.7-1.5zm.9.3l-.7.2h-.7a1.5 1.5 0 00-1 .3.8.8 0 00-.4.7c0 .2.1.3.1.4l.3.3h1.3l.6-.3.4-.4a1.3 1.3 0 00.1-.6zM207 42v-6.7h.5V42zM212.1 36.1h-.1V42h-.6v-6.7h.7l3.9 5.8v-5.8h.6V42h-.7zM218.3 39.7a1.7 1.7 0 00.1.7l.3.6a1 1 0 00.5.4l.7.2a1.7 1.7 0 001-.3 2.2 2.2 0 00.5-.8h.6l-.3.6a1 1 0 01-.4.5l-.6.4h-.8l-1-.2a1.8 1.8 0 01-.7-.5c-.1-.3-.3-.5-.4-.8a3.8 3.8 0 01-.1-1 3 3 0 01.2-1 2 2 0 01.4-.8 1.3 1.3 0 01.7-.6l.9-.2a1.9 1.9 0 011.6.7 2.8 2.8 0 01.5 2zm3.1-.5a2 2 0 00-.1-.7c0-.2-.1-.3-.2-.5l-.5-.4h-1.3l-.5.4a.9.9 0 00-.3.6 1.4 1.4 0 00-.2.6zM224.7 42h-.6l-.7-.2a1.5 1.5 0 01-.2-.8v-3.4h-.6v-.5h.6v-1.3h.6v1.3h.9v.5h-.9v3.6c0 .1 0 .2.1.2s0 .1.1.1h.7zM229.6 41.2l1.3-4.1h.5l-1.5 4.9h-.6l-1.1-4.1-1.1 4.1h-.6l-1.5-4.9h.6l1.2 4.1 1.1-4.1h.6zM234.1 42.1l-.9-.2a1.2 1.2 0 01-.7-.5 1.6 1.6 0 01-.5-.8 3.1 3.1 0 01-.2-1.1 2.9 2.9 0 01.2-.9 2.5 2.5 0 01.4-.9 1.8 1.8 0 01.7-.5l1-.2 1 .2.7.5.4.8a3.8 3.8 0 01.1 1 3.6 3.6 0 01-.2 1.1 2 2 0 01-.4.8 1.8 1.8 0 01-.7.5zm1.6-2.6a2.5 2.5 0 00-.1-.8c-.1-.2-.1-.4-.3-.6a1 1 0 00-.5-.4l-.7-.2-.8.2a1 1 0 00-.5.4l-.3.7c0 .2-.1.5-.1.7s.1.6.1.9l.3.6.6.4.7.2.7-.2.5-.5c.2-.1.2-.4.3-.6a1.9 1.9 0 00.1-.8zM237.8 42h-.5v-4.9h.5v.9l.6-.8 1-.2v.6l-.8.2-.5.4a1.4 1.4 0 00-.2.6 2.2 2.2 0 00-.1.8zM240.2 42v-6.7h.6v4.1l2.3-2.3h.8l-1.8 1.8 2 3.1h-.6l-1.8-2.7-.9.8V42zM245.1 40.4a1.3 1.3 0 00.5.9 1.3 1.3 0 001 .3h.5l.4-.2.2-.3v-.3c0-.2 0-.4-.2-.5s-.3-.2-.6-.3l-.7-.2-.7-.2a.9.9 0 01-.6-.4.8.8 0 01-.2-.7 1.2 1.2 0 01.4-1 1.7 1.7 0 011.3-.4 1.6 1.6 0 011.2.4 1.7 1.7 0 01.6 1.1h-.6a.8.8 0 00-.4-.8l-.9-.2-.8.2a.7.7 0 00-.2.6c0 .3 0 .4.2.5l.6.3.7.2.7.2a1 1 0 01.6.5c.2.1.2.4.2.7a1.3 1.3 0 01-.1.6.8.8 0 01-.4.4l-.6.3h-1.6a2.9 2.9 0 01-.9-.9 6.4 6.4 0 01-.2-.7zM113.2 19.2a8.8 8.8 0 012.4-6.6 8.9 8.9 0 016.6-2.4 9.4 9.4 0 016.7 2.3 8.9 8.9 0 012.4 6.6 10.6 10.6 0 01-1.1 5 7 7 0 01-2.9 3 10.1 10.1 0 01-4.9 1.1 11.9 11.9 0 01-4.9-.9 8.9 8.9 0 01-3.1-3 10.1 10.1 0 01-1.2-5.1zm5.4 0a5.6 5.6 0 001 3.8 3.1 3.1 0 002.6 1.2 3.2 3.2 0 002.7-1.2c.7-.7 1-2.1 1-4a5.5 5.5 0 00-1-3.6 3.3 3.3 0 00-2.7-1.1 3 3 0 00-2.6 1.1 5.6 5.6 0 00-1 3.8zM133.6 10.5h5l6.6 9.6v-9.6h5v17.4h-5l-6.6-9.6v9.6h-5zM164.6 10.5h5.3v10.4a7.1 7.1 0 01-.5 2.9 6.1 6.1 0 01-1.5 2.4 6.4 6.4 0 01-2.1 1.4 10.8 10.8 0 01-3.8.6l-2.8-.2a6.1 6.1 0 01-2.5-.7 4.3 4.3 0 01-1.8-1.5 4.7 4.7 0 01-1.2-2 11.8 11.8 0 01-.5-2.9V10.5h5.4v10.6a2.9 2.9 0 00.8 2.2 2.6 2.6 0 002.2.8 2.9 2.9 0 002.2-.8 2.9 2.9 0 00.8-2.2zM172.9 10.5h5l6.6 9.6v-9.6h5.1v17.4h-5.1l-6.5-9.6v9.6h-5.1zM206.4 21.6V18h8.3v7.4a17.1 17.1 0 01-4.2 2.2 14.6 14.6 0 01-4.4.6 10.3 10.3 0 01-5-1.1A7.1 7.1 0 01198 24a10.6 10.6 0 01-1.1-4.8 10 10 0 011.2-5 8.4 8.4 0 013.5-3.2 12.1 12.1 0 014.7-.8 15.6 15.6 0 014.4.5 6.3 6.3 0 012.3 1.6 8.4 8.4 0 011.5 2.8l-5.2.9a4.2 4.2 0 00-1.1-1.5 3.9 3.9 0 00-2-.5 3.5 3.5 0 00-2.8 1.2 6.2 6.2 0 00-1.1 3.9 6.3 6.3 0 001.1 4.1 3.8 3.8 0 003 1.2 5.1 5.1 0 001.7-.3l1.9-.9v-1.6zM217.3 27.9V10.5h9a12.1 12.1 0 013.8.4 4.4 4.4 0 012.2 1.6 5.1 5.1 0 01.8 2.8 4.9 4.9 0 01-.6 2.5 5.5 5.5 0 01-1.7 1.7 6.9 6.9 0 01-1.9.7 3.7 3.7 0 011.4.7c.2.1.4.4.8.9a3.3 3.3 0 01.8 1.1l2.6 5h-6.1l-2.9-5.3a4.8 4.8 0 00-.9-1.4 3.3 3.3 0 00-1.4-.4h-.4v7.1zm5.5-10.4h2.2l1.5-.2.8-.5a1.5 1.5 0 00.4-1.1 1.6 1.6 0 00-.6-1.3 3.1 3.1 0 00-2-.4h-2.3zM234.5 19.2a8.8 8.8 0 012.4-6.6 8.9 8.9 0 016.6-2.4 9.4 9.4 0 016.7 2.3 8.9 8.9 0 012.4 6.6 10.6 10.6 0 01-1.1 5 7 7 0 01-2.9 3 10.4 10.4 0 01-4.9 1.1 11.6 11.6 0 01-4.9-.9 8.1 8.1 0 01-3.1-3 10.1 10.1 0 01-1.2-5.1zm5.4 0a5.6 5.6 0 001 3.8 3.1 3.1 0 002.6 1.2 3.2 3.2 0 002.7-1.2c.7-.7 1-2.1 1-4a5.5 5.5 0 00-1-3.6 3.3 3.3 0 00-2.7-1.1 3 3 0 00-2.6 1.1 5.6 5.6 0 00-1 3.8zM266.2 10.5h5.4v10.4a9.3 9.3 0 01-.5 2.9 7.5 7.5 0 01-1.5 2.4 5.9 5.9 0 01-2.2 1.4 10.4 10.4 0 01-3.8.6l-2.7-.2a5.7 5.7 0 01-2.5-.7 5.3 5.3 0 01-1.9-1.5 4.4 4.4 0 01-1.1-2 8.4 8.4 0 01-.5-2.9V10.5h5.3v10.6a2.9 2.9 0 00.8 2.2 3.4 3.4 0 004.4 0 2.9 2.9 0 00.8-2.2zM274.5 10.5h8.9c2 0 3.4.4 4.4 1.4a5 5 0 011.5 3.9 5.3 5.3 0 01-1.6 4.1 7 7 0 01-4.9 1.5h-2.9v6.5h-5.4zm5.4 7.4h1.3a4 4 0 002.2-.5 2 2 0 00.6-1.4 2.2 2.2 0 00-.5-1.4 2.9 2.9 0 00-2.1-.6h-1.5z"/><g><path class="cls-1" d="M107.2 20.8a6.5 6.5 0 01-1.2 2.5 2.9 2.9 0 01-2.3.9 3.1 3.1 0 01-2.5-1.1c-.6-.7-.9-2.1-.9-4a11.1 11.1 0 01.2-1.9h-5.4a12.3 12.3 0 00-.2 1.9 10.8 10.8 0 001.3 5.4 8 8 0 003.2 2.9 11.9 11.9 0 004.6.8 8.3 8.3 0 003.8-.7 5.7 5.7 0 002.6-2 8.4 8.4 0 001.5-3.3zM102.5 14.5a3.4 3.4 0 012.8 0 3.6 3.6 0 011.1 1 3.3 3.3 0 01.6 1.2l4.7-1.1a7.8 7.8 0 00-2.8-4.1 8.7 8.7 0 00-5.2-1.3h-1.2z"/></g><g><path class="cls-2" d="M61.3 34.1a6.9 6.9 0 006.9-6.9 7 7 0 10-6.9 6.9zM27.6 38.2a11 11 0 119.5-16.5l5.1-2.9a16.8 16.8 0 100 16.8l-5.1-2.9a11 11 0 01-9.5 5.5z"/><path class="cls-2" d="M33.2 31.2c3.2-4.5 10.4-3 12.3 2a16.9 16.9 0 100-12A7.1 7.1 0 0133.1 23a6.9 6.9 0 10-5.5 11.1 6.7 6.7 0 005.6-2.9zm28.1 7a11 11 0 1110.9-11 11 11 0 01-10.9 11z"/></g></svg>