<svg data-name="레이어 1" xmlns="http://www.w3.org/2000/svg" viewBox="0 0 1000 1000"><circle cx="500" cy="500" r="352.37" fill="#0acdff"/><path d="M623.88 422.53v-56a45.28 45.28 0 10-40.58-.06v56.08a125.77 125.77 0 00-37 12.1L389.57 320a54.51 54.51 0 10-56.44 41.08 54.4 54.4 0 0032-7.88L515 457.18a126.58 126.58 0 00-13.14 165.55l-42.11 40.06a37.42 37.42 0 1022.2 21l43.32-36.87a126.06 126.06 0 0081.63 27.16c66.17-1.64 120.4-54.82 123.25-120.95a126.62 126.62 0 00-106.27-130.6zm-17.68 203a78 78 0 1175.43-75.42 78 78 0 01-75.43 75.37z" fill="#fff"/></svg>