<svg id="Layer_1" data-name="Layer 1" xmlns="http://www.w3.org/2000/svg" viewBox="0 0 128 128">
  <defs>
    <style>
      .cls-1 {
        fill: #193e6b;
      }

      .cls-2 {
        fill: #1d4485;
      }
    </style>
  </defs>
  <g>
    <g>
      <path class="cls-1" d="M51,89.7l6.2,9A8.2,8.2,0,0,0,64,102V87.1A58.5,58.5,0,0,1,51,89.7Z"/>
      <path class="cls-1" d="M55.8,60.8v17A21.6,21.6,0,0,0,64,75.4V46.5a22.2,22.2,0,0,0-8.1-2.3Z"/>
      <path class="cls-1" d="M43.2,60.8V31.7A66.9,66.9,0,0,1,64,34.5V26H20.9c-6,0-9.8,5.5-6.8,10L35.7,67.3l7.5,11Z"/>
    </g>
    <g>
      <path class="cls-2" d="M72.2,60.7c0-7.9-4.1-12-8.2-14.2V75.4C68.1,73.2,72.2,68.9,72.2,60.7Z"/>
      <path class="cls-2" d="M107.1,26H64v8.5c10.3,3.4,20.7,10.6,20.8,26.3S74.3,83.8,64,87.1V102a8.2,8.2,0,0,0,6.8-3.3L92.3,67.3,113.9,36C116.9,31.5,113.1,26,107.1,26Z"/>
    </g>
  </g>
</svg>
