<svg version="1.0" xmlns="http://www.w3.org/2000/svg"  viewBox="0 0 652 600"><path d="M285.5 8.5c-82.4 8.6-154.7 40.1-206.2 89.8-38.4 37.2-60.9 77.6-69.9 125.9-2.2 11.3-3 44-1.5 56.5 3.4 27.2 12.3 54.7 25.6 78.2 23.7 42.2 59.1 76.4 107.4 104 6.8 3.9 12.6 7.2 12.8 7.5.2.2-6.4 25.7-14.7 56.6-8.2 30.9-15 57.4-15 59 0 4.1 4.1 8 8.4 8 2.8 0 6.6-2.1 18.8-10.3 44.3-30 114.4-77.4 115.3-77.9.6-.3 6.4.1 13 1 15.7 2 72.3 2.3 87.5.4 30.4-3.8 57.3-9.6 81.5-17.8 97.3-32.7 167.6-100.7 188.1-181.9 18.3-72.9-4.4-147.5-62.5-205.5-50.2-50.1-118-81.3-201.3-92.6-15.9-2.2-69.9-2.7-87.3-.9z"/></svg>