<svg id="Layer_1" data-name="Layer 1" xmlns="http://www.w3.org/2000/svg" xmlns:xlink="http://www.w3.org/1999/xlink" viewBox="0 0 380 3696.6"><defs><linearGradient id="linear-gradient" x1="190" y1="3686.06" x2="190" y2="3489.79" gradientUnits="userSpaceOnUse"><stop offset="0" stop-color="#fff" stop-opacity="0"/><stop offset="1" stop-color="#2a3693"/></linearGradient><linearGradient id="linear-gradient-2" x1="87.61" y1="3676.21" x2="87.61" y2="3587.92" xlink:href="#linear-gradient"/><linearGradient id="linear-gradient-3" x1="65.35" y1="3154.08" x2="65.35" y2="3066.58" gradientTransform="rotate(24.4 -1028.964 3824.949)" xlink:href="#linear-gradient"/><linearGradient id="linear-gradient-4" x1="144.2" y1="1001.47" x2="220.92" y2="1001.47" gradientUnits="userSpaceOnUse"><stop offset="0" stop-color="#a1d6f7"/><stop offset="1" stop-color="#ebf9fd" stop-opacity="0"/></linearGradient><linearGradient id="linear-gradient-5" x1="46.02" y1="814.77" x2="131.37" y2="814.77" xlink:href="#linear-gradient-4"/><linearGradient id="linear-gradient-6" x1="170.69" y1="676.31" x2="310.63" y2="676.31" xlink:href="#linear-gradient-4"/><linearGradient id="linear-gradient-7" x1="57.93" y1="171.26" x2="262.98" y2="171.26" xlink:href="#linear-gradient-4"/><radialGradient id="radial-gradient" cx="13.3" cy="13.3" r="13.3" gradientUnits="userSpaceOnUse"><stop offset="0" stop-color="#0fbcea" stop-opacity=".94"/><stop offset=".04" stop-color="#26c2ec" stop-opacity=".84"/><stop offset=".13" stop-color="#54cff0" stop-opacity=".65"/><stop offset=".22" stop-color="#7ddaf3" stop-opacity=".47"/><stop offset=".31" stop-color="#9fe4f6" stop-opacity=".33"/><stop offset=".42" stop-color="#bbecf9" stop-opacity=".21"/><stop offset=".53" stop-color="#d0f2fb" stop-opacity=".11"/><stop offset=".65" stop-color="#dff6fc" stop-opacity=".05"/><stop offset=".79" stop-color="#e8f8fd" stop-opacity=".01"/><stop offset="1" stop-color="#ebf9fd" stop-opacity="0"/></radialGradient><radialGradient id="radial-gradient-2" cx="-760.92" cy="1894.92" r="55.02" gradientTransform="rotate(121.5 -141.754 1782.488)" gradientUnits="userSpaceOnUse"><stop offset=".02" stop-color="#fff"/><stop offset=".09" stop-color="#fdfeff" stop-opacity=".9"/><stop offset=".29" stop-color="#f8fdfe" stop-opacity=".63"/><stop offset=".47" stop-color="#f3fbfe" stop-opacity=".4"/><stop offset=".64" stop-color="#f0fafd" stop-opacity=".23"/><stop offset=".79" stop-color="#edfafd" stop-opacity=".1"/><stop offset=".91" stop-color="#ecf9fd" stop-opacity=".03"/><stop offset="1" stop-color="#ebf9fd" stop-opacity="0"/></radialGradient><radialGradient id="radial-gradient-3" cx="-695.11" cy="547.67" r="55.02" gradientTransform="rotate(31.5 104.334 2250.31)" xlink:href="#radial-gradient-2"/><clipPath id="clip-path"><path class="cls-1" d="M191.9 1317.8c19.7-17-11.2-85.3-69.1-152.6S2.1 1057.1-17.7 1074.1s11.2 85.2 69.1 152.5 120.7 108.1 140.5 91.2zM79.6 1202.4c-10.4-12.1-15.9-24.3-12.4-27.3s14.8 4.2 25.2 16.3 15.9 24.2 12.3 27.3-14.8-4.3-25.1-16.3z"/></clipPath><clipPath id="clip-path-2"><path class="cls-1" d="M424.4 268.5c-17.7-19-84.8 14.4-149.9 74.8s-103.4 124.8-85.7 143.8 84.7-14.4 149.8-74.7 103.5-124.8 85.8-143.9zM313.3 385.1c-11.6 10.8-23.6 16.8-26.8 13.4s3.7-15 15.3-25.8 23.7-16.8 26.9-13.3-3.8 14.9-15.4 25.7z"/></clipPath><symbol id="Blue" data-name="Blue" viewBox="0 0 26.6 26.6"><circle cx="13.3" cy="13.3" r="13.3" fill="url(#radial-gradient)"/></symbol><style>.cls-1,.cls-11{fill:none}.cls-6,.cls-7{fill:#a1d6f7}.cls-6{opacity:.1}.cls-8,.cls-9{fill:#6a8dd3}.cls-8{opacity:.2}.cls-9{opacity:.5}.cls-11{stroke:#fcfcfc;stroke-miterlimit:10;stroke-width:.67px}</style></defs><path d="M365.8 3644.9a33.2 33.2 0 01-33.2 33.2 32.9 32.9 0 01-26.7-13.7 43.4 43.4 0 01-13.5 2.2 42.2 42.2 0 01-15.1-2.8c-13.7 11.5-32.8 18.6-53.8 18.6a88.1 88.1 0 01-10.4-.6 183.4 183.4 0 01-57.5-3.7 99.3 99.3 0 01-29.4 4.3c-14.6 0-27.9-2.9-38.3-7.7a44.1 44.1 0 11-29.5-76.9h1.7a54.7 54.7 0 0121.4-31.3 49 49 0 01-1.1-10.2 44.1 44.1 0 0144.1-44.2h1.4a79.3 79.3 0 01123.8 16.8 55.3 55.3 0 0152.4 52.8 42.8 42.8 0 0131.5 29.9 33.2 33.2 0 0132.2 33.3z" fill="url(#linear-gradient)"/><path d="M140.3 3626.7a38.7 38.7 0 01-13.9 29.8 20.6 20.6 0 01-38.8 6.4l-.5-1.1a1.6 1.6 0 01-.4.7 27.8 27.8 0 11-23.9-42h.4a38.8 38.8 0 0177.1 6.2z" fill="url(#linear-gradient-2)" opacity=".26"/><path d="M299.8 3635.4a37 37 0 01-38 21.4 26.5 26.5 0 11-32.1-42 41.2 41.2 0 012.9-9.9 36.9 36.9 0 0167.2 30.5z" fill="url(#linear-gradient-3)" opacity=".26"/><circle class="cls-6" cx="273.9" cy="3193.5" r="11.1"/><circle class="cls-6" cx="273.9" cy="3193.5" r="13.1"/><circle class="cls-6" cx="273.9" cy="3193.5" r="7.4"/><path class="cls-7" d="M274 3201.4h-.3a8.6 8.6 0 00-2.3-4.9 11.7 11.7 0 00-5.4-2.8c-.2 0-.2-.2 0-.2a11.4 11.4 0 005.4-3.1 7.8 7.8 0 002.3-4.7h.3a11.9 11.9 0 002.9 4.7 10.4 10.4 0 004.9 3c.2.1.2.3 0 .3a12 12 0 00-4.9 2.8 8.6 8.6 0 00-2.9 4.9z"/><circle class="cls-6" cx="34.4" cy="3192.4" r="11.1"/><circle class="cls-6" cx="34.4" cy="3192.4" r="13.1"/><circle class="cls-6" cx="34.4" cy="3192.4" r="7.4"/><path class="cls-7" d="M34.5 3200.2c-.1.2-.3.2-.3 0a8.3 8.3 0 00-2.3-4.8 10.8 10.8 0 00-5.4-2.8c-.2-.1-.2-.3 0-.3a11 11 0 005.4-3 8.2 8.2 0 002.3-4.8h.3a12.2 12.2 0 002.9 4.8 12.3 12.3 0 004.9 3c.2 0 .2.2 0 .2a12.5 12.5 0 00-4.9 2.9 8.8 8.8 0 00-2.9 4.8z"/><circle class="cls-6" cx="273" cy="3265.2" r="5.6"/><circle class="cls-6" cx="273" cy="3265.2" r="6.6"/><circle class="cls-6" cx="273" cy="3265.2" r="3.7"/><path class="cls-7" d="M273 3269.1h-.1a4.5 4.5 0 00-1.1-2.4 6.1 6.1 0 00-2.8-1.4 5.2 5.2 0 002.8-1.5 3.9 3.9 0 001.1-2.4c0-.1.1-.1.2 0a6.9 6.9 0 001.4 2.4 6.3 6.3 0 002.5 1.5 7.2 7.2 0 00-2.5 1.4 5.6 5.6 0 00-1.5 2.4z"/><circle class="cls-6" cx="60.5" cy="3137.5" r="5.6"/><circle class="cls-6" cx="60.5" cy="3137.5" r="6.6"/><circle class="cls-6" cx="60.5" cy="3137.5" r="3.7"/><path class="cls-7" d="M60.6 3141.4h-.2a3.2 3.2 0 00-1.1-2.4 5.4 5.4 0 00-2.7-1.4c-.1 0-.1-.1 0-.2a4.9 4.9 0 002.7-1.5 4.2 4.2 0 001.2-2.3h.1a6.7 6.7 0 001.4 2.3 6.3 6.3 0 002.5 1.5c.1 0 .1.1 0 .2a5.3 5.3 0 00-2.5 1.4 4.7 4.7 0 00-1.4 2.4z"/><circle class="cls-6" cx="154.3" cy="3180.4" r="5.6"/><circle class="cls-6" cx="154.3" cy="3180.4" r="6.6"/><circle class="cls-6" cx="154.3" cy="3180.4" r="3.7"/><path class="cls-7" d="M154.3 3184.3h-.1a4.1 4.1 0 00-1.2-2.4 5.4 5.4 0 00-2.7-1.4c-.1 0-.1-.1 0-.1a4.9 4.9 0 002.7-1.5 4.1 4.1 0 001.2-2.4h.1a6.3 6.3 0 003.9 3.9c.1 0 .1.1 0 .1a7.9 7.9 0 00-2.4 1.4 4.7 4.7 0 00-1.5 2.4z"/><circle class="cls-7" cx="214.8" cy="3227.7" r="1.4"/><circle class="cls-7" cx="291.3" cy="3314" r="1.4"/><circle class="cls-7" cx="88.5" cy="3158.7" r="1.4"/><circle class="cls-7" cx="245.6" cy="3152.7" r="1.4"/><circle class="cls-7" cx="314.1" cy="3074.6" r="1.4"/><circle class="cls-7" cx="106.7" cy="3187" r="1.4"/><circle class="cls-7" cx="72.4" cy="3119" r="1.4"/><circle class="cls-6" cx="113.2" cy="3393.3" r="11.1"/><circle class="cls-6" cx="113.2" cy="3393.3" r="13.1"/><circle class="cls-6" cx="113.2" cy="3393.3" r="7.4"/><path class="cls-7" d="M113.3 3401.2c-.1.1-.3.1-.3 0a8.6 8.6 0 00-2.2-4.9 12.1 12.1 0 00-5.5-2.7c-.2-.1-.2-.3 0-.3a11.4 11.4 0 005.4-3 9.2 9.2 0 002.4-4.8h.2a12.9 12.9 0 002.9 4.8 13 13 0 004.9 3c.2 0 .2.2 0 .2a12 12 0 00-4.9 2.8 9.3 9.3 0 00-2.9 4.9z"/><circle class="cls-6" cx="284.6" cy="3358.6" r="11.1"/><circle class="cls-6" cx="284.6" cy="3358.6" r="13.1"/><circle class="cls-6" cx="284.6" cy="3358.6" r="7.4"/><path class="cls-7" d="M284.7 3366.5h-.3a7.7 7.7 0 00-2.2-4.9 11.4 11.4 0 00-5.5-2.8c-.1 0-.1-.2 0-.2a11.6 11.6 0 005.5-3.1 8.4 8.4 0 002.3-4.7c0-.1.2-.2.3 0a11.6 11.6 0 007.8 7.7c.1.1.1.3 0 .3a12.3 12.3 0 00-5 2.8 10 10 0 00-2.9 4.9z"/><circle class="cls-6" cx="354.1" cy="3125.5" r="5.6"/><circle class="cls-6" cx="354.1" cy="3125.5" r="6.6"/><circle class="cls-6" cx="354.1" cy="3125.5" r="3.7"/><path class="cls-7" d="M354.1 3129.5h-.1a4.5 4.5 0 00-1.1-2.4 6.1 6.1 0 00-2.8-1.4c-.1 0-.1-.1 0-.1a4.9 4.9 0 002.7-1.5 4.1 4.1 0 001.2-2.4h.1a6.1 6.1 0 001.5 2.4 6.8 6.8 0 002.4 1.5c.1 0 .1.1 0 .1a7.9 7.9 0 00-2.4 1.4 4.6 4.6 0 00-1.5 2.4z"/><circle class="cls-6" cx="111.6" cy="3303.4" r="5.6"/><circle class="cls-6" cx="101.5" cy="3253.1" r="6.6"/><circle class="cls-6" cx="111.6" cy="3303.4" r="3.7"/><path class="cls-7" d="M111.6 3307.3h-.1a4.5 4.5 0 00-1.1-2.4 6.1 6.1 0 00-2.8-1.4 7.7 7.7 0 002.8-1.5 4.9 4.9 0 001.1-2.4h.1a6.1 6.1 0 001.5 2.4 6.3 6.3 0 002.5 1.5 4.9 4.9 0 00-2.5 1.4 5.6 5.6 0 00-1.5 2.4z"/><circle class="cls-7" cx="151.4" cy="3431.3" r="1.4"/><circle class="cls-7" cx="250.7" cy="3325.4" r="1.4"/><circle class="cls-7" cx="64" cy="3310" r="1.4"/><circle class="cls-6" cx="129.4" cy="2924.9" r="11.1"/><circle class="cls-6" cx="129.4" cy="2924.9" r="13.1"/><circle class="cls-6" cx="129.4" cy="2924.9" r="7.4"/><path class="cls-7" d="M121.6 2924.9c-.2 0-.2-.2 0-.2a8.3 8.3 0 004.8-2.3 11.4 11.4 0 002.8-5.5h.3a10.1 10.1 0 003 5.5 8 8 0 004.7 2.3c.2 0 .2.2 0 .3a12.2 12.2 0 00-4.7 2.8 12.6 12.6 0 00-3 5h-.3a12.9 12.9 0 00-2.8-5 10.2 10.2 0 00-4.8-2.9z"/><circle class="cls-6" cx="224.7" cy="2852" r="5.6"/><circle class="cls-6" cx="224.7" cy="2852" r="6.6"/><circle class="cls-6" cx="224.7" cy="2852" r="3.7"/><path class="cls-7" d="M220.7 2852h.1a4.5 4.5 0 002.4-1.1 6.1 6.1 0 001.4-2.8h.1a5.5 5.5 0 001.5 2.8 4.5 4.5 0 002.4 1.1c.1 0 .1.1 0 .2a4.7 4.7 0 00-2.4 1.4 6.3 6.3 0 00-1.5 2.5h-.1a7.2 7.2 0 00-1.4-2.5 5.3 5.3 0 00-2.5-1.6z"/><circle class="cls-6" cx="101.5" cy="2536.6" r="5.6"/><circle class="cls-6" cx="101.5" cy="2536.6" r="6.6"/><circle class="cls-6" cx="101.5" cy="2536.6" r="3.7"/><path class="cls-7" d="M97.6 2536.7c-.1-.1-.1-.2 0-.2a3.9 3.9 0 002.4-1.1 6.3 6.3 0 001.4-2.7h.1a6.8 6.8 0 001.5 2.7 5.3 5.3 0 002.4 1.2c.1 0 .1.1 0 .1a6.9 6.9 0 00-2.4 1.4 6.3 6.3 0 00-1.5 2.5h-.1a4.9 4.9 0 00-1.4-2.5 5.1 5.1 0 00-2.4-1.4z"/><circle class="cls-6" cx="254.2" cy="2553.3" r="5.6"/><circle class="cls-6" cx="254.2" cy="2553.3" r="6.6"/><circle class="cls-6" cx="254.2" cy="2553.3" r="3.7"/><path class="cls-7" d="M250.3 2553.3c-.1 0-.1-.1 0-.1a3.9 3.9 0 002.4-1.2 5.4 5.4 0 001.4-2.7c0-.1.1-.1.1 0a6.1 6.1 0 001.6 2.7 4.2 4.2 0 002.3 1.2c.1 0 .1.1 0 .1a6.7 6.7 0 00-2.3 1.4 5.3 5.3 0 00-1.5 2.5c-.1.1-.2.1-.2 0a5.8 5.8 0 00-1.4-2.5 4.7 4.7 0 00-2.4-1.4z"/><circle class="cls-6" cx="155.1" cy="2716.2" r="5.6"/><circle class="cls-6" cx="155.1" cy="2716.2" r="6.6"/><circle class="cls-6" cx="155.1" cy="2716.2" r="3.7"/><path class="cls-7" d="M151.2 2716.2c-.1 0-.1-.1 0-.1a4.5 4.5 0 002.4-1.1 6.1 6.1 0 001.4-2.8h.1a7 7 0 001.5 2.8 4.9 4.9 0 002.4 1.1c.1 0 .1.1 0 .2a4.7 4.7 0 00-2.4 1.4 6.3 6.3 0 00-1.5 2.5h-.1a5.8 5.8 0 00-1.4-2.5 5.6 5.6 0 00-2.4-1.5z"/><circle class="cls-6" cx="260.8" cy="3022.8" r="5.6"/><circle class="cls-6" cx="260.8" cy="3022.8" r="6.6"/><circle class="cls-6" cx="260.8" cy="3022.8" r="3.7"/><path class="cls-7" d="M256.9 3022.8c-.1 0-.1-.1 0-.1a4.5 4.5 0 002.4-1.1 6.1 6.1 0 001.4-2.8h.1a5.2 5.2 0 001.5 2.8 4.5 4.5 0 002.4 1.1c.1 0 .1.1 0 .2a4.7 4.7 0 00-2.4 1.4 6.3 6.3 0 00-1.5 2.5h-.1a7.2 7.2 0 00-1.4-2.5 5.6 5.6 0 00-2.4-1.5z"/><circle class="cls-7" cx="194.1" cy="3047.5" r="1.4"/><circle class="cls-7" cx="163.1" cy="2979" r="1.4"/><circle class="cls-7" cx="233.3" cy="2514.7" r="1.4"/><circle class="cls-7" cx="90.3" cy="2627.7" r="1.4"/><circle class="cls-7" cx="285" cy="2619.8" r="1.4"/><circle class="cls-6" cx="137.3" cy="3070.6" r="5.6"/><circle class="cls-6" cx="137.3" cy="3070.6" r="6.6"/><circle class="cls-6" cx="137.3" cy="3070.6" r="3.7"/><path class="cls-7" d="M133.4 3070.6c-.1 0 0-.1 0-.1a3.9 3.9 0 002.4-1.2 4.7 4.7 0 001.4-2.7h.2a4.9 4.9 0 001.5 2.7 4.1 4.1 0 002.4 1.2 5.5 5.5 0 00-2.4 1.5 6.1 6.1 0 00-1.5 2.4h-.1a6.8 6.8 0 00-1.5-2.4 4.4 4.4 0 00-2.4-1.4z"/><circle class="cls-7" cx="216.7" cy="3119" r="1.4"/><circle class="cls-7" cx="165.9" cy="3104.9" r="1.4"/><circle class="cls-6" cx="328.4" cy="3116.4" r="11.1"/><circle class="cls-6" cx="328.4" cy="3116.4" r="13.1"/><circle class="cls-6" cx="328.4" cy="3116.4" r="7.4"/><path class="cls-7" d="M328.5 3124.3h-.3a8.3 8.3 0 00-2.2-4.9 13.6 13.6 0 00-5.5-2.8c-.2 0-.2-.2 0-.2a10.9 10.9 0 005.4-3.1 8.7 8.7 0 002.4-4.7h.2a11.9 11.9 0 002.9 4.7 10.8 10.8 0 004.9 3c.2.1.2.3 0 .3a12 12 0 00-4.9 2.8 10 10 0 00-2.9 4.9z"/><circle class="cls-6" cx="327.5" cy="3188.1" r="5.6"/><circle class="cls-6" cx="327.5" cy="3188.1" r="6.6"/><circle class="cls-6" cx="327.5" cy="3188.1" r="3.7"/><path class="cls-7" d="M327.6 3192h-.2a3.9 3.9 0 00-1.1-2.4 6.3 6.3 0 00-2.7-1.4c-.1 0-.1-.1 0-.1a4.9 4.9 0 002.7-1.5 4.8 4.8 0 001.2-2.4h.1a6.9 6.9 0 001.4 2.4 6.3 6.3 0 002.5 1.5c.1 0 .1.1 0 .1a7.2 7.2 0 00-2.5 1.4 5.1 5.1 0 00-1.4 2.4z"/><circle class="cls-6" cx="224.7" cy="3464.6" r="5.6"/><circle class="cls-6" cx="224.7" cy="3464.6" r="6.6"/><circle class="cls-6" cx="224.7" cy="3464.6" r="3.7"/><path class="cls-7" d="M224.8 3468.5h-.2a3.4 3.4 0 00-1.1-2.4 6.3 6.3 0 00-2.7-1.4c-.1 0-.1-.1 0-.1a4.9 4.9 0 002.7-1.5 4.4 4.4 0 001.2-2.4h.1a6.9 6.9 0 001.4 2.4 6.3 6.3 0 002.5 1.5c.1 0 .1.1 0 .1a6.5 6.5 0 00-2.5 1.4 5.1 5.1 0 00-1.4 2.4z"/><circle class="cls-6" cx="132.8" cy="3415.7" r="5.6"/><circle class="cls-6" cx="132.8" cy="3415.7" r="6.6"/><circle class="cls-6" cx="132.8" cy="3415.7" r="3.7"/><path class="cls-7" d="M132.8 3419.6h-.1a4.2 4.2 0 00-1.1-2.4 5.3 5.3 0 00-2.8-1.4v-.2a5.2 5.2 0 002.8-1.5 4.6 4.6 0 001.1-2.3c0-.1.1-.1.2-.1a4.4 4.4 0 001.4 2.4 6.3 6.3 0 002.5 1.5v.2a4.9 4.9 0 00-2.5 1.4 5.1 5.1 0 00-1.5 2.4z"/><circle class="cls-7" cx="252.7" cy="3485.9" r="1.4"/><circle class="cls-7" cx="85.2" cy="3422.2" r="1.4"/><circle class="cls-7" cx="50.9" cy="3354.2" r="1.4"/><circle class="cls-7" cx="147.5" cy="3304.6" r="1.4"/><circle class="cls-7" cx="86.6" cy="3240.2" r="1.4"/><circle class="cls-7" cx="124.9" cy="3034.3" r="1.4"/><circle class="cls-7" cx="234.7" cy="2939.4" r="1.4"/><circle class="cls-7" cx="281.3" cy="2826.3" r="1.4"/><circle class="cls-7" cx="173.3" cy="2859.7" r="1.4"/><circle class="cls-7" cx="273.9" cy="2726.9" r="1.4"/><circle class="cls-7" cx="158" cy="2774.7" r="1.4"/><circle class="cls-7" cx="176.2" cy="2692.3" r="1.4"/><circle class="cls-6" cx="68.6" cy="2992" r="5.6"/><circle class="cls-6" cx="68.6" cy="2992" r="6.6"/><circle class="cls-6" cx="68.6" cy="2992" r="3.7"/><path class="cls-7" d="M64.7 2992a4.2 4.2 0 002.4-1.1 5.3 5.3 0 001.4-2.8h.2a5.2 5.2 0 001.5 2.8 4.5 4.5 0 002.4 1.1v.2a4.7 4.7 0 00-2.4 1.4 6.3 6.3 0 00-1.5 2.5h-.1a6.3 6.3 0 00-1.5-2.5 5.1 5.1 0 00-2.4-1.6z"/><circle class="cls-6" cx="292.9" cy="2918.2" r="6.7"/><circle class="cls-6" cx="292.9" cy="2918.2" r="7.9"/><circle class="cls-6" cx="292.9" cy="2918.2" r="4.5"/><path class="cls-7" d="M288.2 2918.2c-.1 0-.1-.1 0-.1a5.1 5.1 0 002.9-1.4 6.9 6.9 0 001.7-3.3h.2a6.1 6.1 0 001.8 3.3 5.4 5.4 0 002.9 1.4v.2a6.9 6.9 0 00-2.9 1.7 7.1 7.1 0 00-1.8 3h-.2a7.8 7.8 0 00-1.7-3 6 6 0 00-2.9-1.8z"/><circle class="cls-7" cx="96.3" cy="3083.3" r="1.4"/><circle class="cls-7" cx="62.1" cy="2944.4" r="1.4"/><circle class="cls-6" cx="352.9" cy="1350.4" r="11.1"/><circle class="cls-6" cx="352.9" cy="1350.4" r="13.1"/><circle class="cls-6" cx="352.9" cy="1350.4" r="7.4"/><path class="cls-7" d="M353 1358.3c-.1.1-.3.1-.3 0a8.6 8.6 0 00-2.3-4.9 10.7 10.7 0 00-5.5-2.8c-.1 0-.1-.2 0-.2a11.1 11.1 0 005.5-3.1 7.8 7.8 0 002.3-4.7h.3a11.9 11.9 0 002.9 4.7 10.4 10.4 0 004.9 3c.2.1.1.3 0 .3a12 12 0 00-4.9 2.8 8.6 8.6 0 00-2.9 4.9z"/><circle class="cls-6" cx="87.2" cy="1638.4" r="11.1"/><circle class="cls-6" cx="87.2" cy="1638.4" r="13.1"/><circle class="cls-6" cx="87.2" cy="1638.4" r="7.4"/><path class="cls-7" d="M87.3 1646.3c0 .1-.2.1-.2 0a8.6 8.6 0 00-2.3-4.9 13.6 13.6 0 00-5.5-2.8c-.1 0-.1-.2 0-.2a11.1 11.1 0 005.5-3.1 8.4 8.4 0 002.3-4.7h.3a10.5 10.5 0 002.8 4.7 11.9 11.9 0 005 3.1c.1 0 .1.2 0 .2a12.9 12.9 0 00-5 2.8 10 10 0 00-2.9 4.9z"/><circle class="cls-6" cx="268.1" cy="1611.3" r="5.6"/><circle class="cls-6" cx="268.1" cy="1611.3" r="6.6"/><circle class="cls-6" cx="268.1" cy="1611.3" r="3.7"/><path class="cls-7" d="M268.1 1615.3h-.1a4.3 4.3 0 00-1.2-2.5 6.3 6.3 0 00-2.7-1.4c-.1 0-.1-.1 0-.1a4.9 4.9 0 002.7-1.5 4.1 4.1 0 001.2-2.4h.1a6.9 6.9 0 001.4 2.4 6.3 6.3 0 002.5 1.5c.1 0 .1.1 0 .1a9.5 9.5 0 00-2.5 1.4 4.9 4.9 0 00-1.4 2.5z"/><circle class="cls-6" cx="311.2" cy="1505.3" r="5.6"/><circle class="cls-6" cx="311.2" cy="1505.3" r="6.6"/><circle class="cls-6" cx="311.2" cy="1505.3" r="3.7"/><path class="cls-7" d="M311.3 1509.3h-.2a4.8 4.8 0 00-1.1-2.5 7.3 7.3 0 00-2.8-1.4.1.1 0 01.1-.1 5.3 5.3 0 002.7-1.5 3.9 3.9 0 001.1-2.4h.2a6.9 6.9 0 001.4 2.4 6.3 6.3 0 002.5 1.5c.1 0 .1.1 0 .1a7.2 7.2 0 00-2.5 1.4 4.3 4.3 0 00-1.4 2.5z"/><circle class="cls-6" cx="31.4" cy="1509.3" r="5.6"/><circle class="cls-6" cx="31.4" cy="1509.3" r="6.6"/><circle class="cls-6" cx="31.4" cy="1509.3" r="3.7"/><path class="cls-7" d="M31.4 1513.2h-.1a4.5 4.5 0 00-1.1-2.4 6.1 6.1 0 00-2.8-1.4 5.2 5.2 0 002.8-1.5 4.5 4.5 0 001.1-2.4c0-.1.1-.1.2 0a4.7 4.7 0 001.4 2.4 6.3 6.3 0 002.5 1.5 5.8 5.8 0 00-2.5 1.4 5.6 5.6 0 00-1.5 2.4z"/><circle class="cls-6" cx="113.4" cy="1583.5" r="5.6"/><circle class="cls-6" cx="113.4" cy="1583.5" r="6.6"/><circle class="cls-6" cx="113.4" cy="1583.5" r="3.7"/><path class="cls-7" d="M113.4 1587.5h-.1a4.8 4.8 0 00-1.1-2.5 6.1 6.1 0 00-2.8-1.4 5.2 5.2 0 002.8-1.5 3.9 3.9 0 001.1-2.4h.2a6.9 6.9 0 001.4 2.4 6.3 6.3 0 002.5 1.5 7.2 7.2 0 00-2.5 1.4 5.3 5.3 0 00-1.5 2.5z"/><circle class="cls-6" cx="149.3" cy="1526.5" r="5.6"/><circle class="cls-6" cx="149.3" cy="1526.5" r="6.6"/><circle class="cls-6" cx="149.3" cy="1526.5" r="3.7"/><path class="cls-7" d="M149.3 1530.5h-.1a4.8 4.8 0 00-1.1-2.5 5.8 5.8 0 00-2.8-1.3v-.2a5.2 5.2 0 002.8-1.5 3.9 3.9 0 001.1-2.4h.2a6.9 6.9 0 001.4 2.4 6.3 6.3 0 002.5 1.5c.1 0 0 .1 0 .1a7.2 7.2 0 00-2.5 1.4 5.3 5.3 0 00-1.5 2.5z"/><circle class="cls-7" cx="209.9" cy="1573.8" r="1.4"/><circle class="cls-7" cx="286.3" cy="1660.2" r="1.4"/><circle class="cls-7" cx="141.4" cy="1604.8" r="1.4"/><circle class="cls-7" cx="324.6" cy="1309.6" r="1.4"/><circle class="cls-7" cx="101.8" cy="1533.1" r="1.4"/><circle class="cls-7" cx="67.4" cy="1465.1" r="1.4"/><circle class="cls-6" cx="108.2" cy="1739.5" r="11.1"/><circle class="cls-6" cx="108.2" cy="1739.5" r="13.1"/><circle class="cls-6" cx="108.2" cy="1739.5" r="7.4"/><path class="cls-7" d="M108.3 1747.3c0 .2-.2.1-.3 0a7.5 7.5 0 00-2.2-4.8 11.4 11.4 0 00-5.5-2.8c-.1-.1-.1-.3 0-.3a11.2 11.2 0 005.5-3 8.9 8.9 0 002.3-4.8h.3a10.7 10.7 0 002.8 4.8 12.6 12.6 0 005 3c.1 0 .1.2 0 .2a12.7 12.7 0 00-5 2.9 10.2 10.2 0 00-2.9 4.8z"/><circle class="cls-6" cx="279.7" cy="1704.7" r="11.1"/><circle class="cls-6" cx="279.7" cy="1704.7" r="13.1"/><circle class="cls-6" cx="279.7" cy="1704.7" r="7.4"/><path class="cls-7" d="M279.8 1712.6c-.1.1-.3.1-.3 0a8.8 8.8 0 00-2.3-4.9 11.2 11.2 0 00-5.5-2.7c-.1-.1-.1-.3 0-.3a11.6 11.6 0 005.5-3 8.2 8.2 0 002.3-4.8c.1-.1.3-.1.3 0a12.9 12.9 0 002.9 4.8 12.3 12.3 0 004.9 3c.2 0 .2.2 0 .2a12 12 0 00-4.9 2.8 8.6 8.6 0 00-2.9 4.9z"/><circle class="cls-6" cx="273.1" cy="1784" r="5.6"/><circle class="cls-6" cx="273.1" cy="1784" r="6.6"/><circle class="cls-6" cx="273.1" cy="1784" r="3.7"/><path class="cls-7" d="M273.2 1787.9h-.2a3.7 3.7 0 00-1.1-2.4 5.4 5.4 0 00-2.7-1.4c-.1 0-.1-.1 0-.1a6.1 6.1 0 002.7-1.6 4.6 4.6 0 001.2-2.3h.1a5.9 5.9 0 001.4 2.3 4.6 4.6 0 002.5 1.5c.1.1.1.2 0 .2a4.9 4.9 0 00-2.5 1.4 4.7 4.7 0 00-1.4 2.4z"/><circle class="cls-6" cx="154.4" cy="1699.2" r="5.6"/><circle class="cls-6" cx="154.4" cy="1699.2" r="6.6"/><circle class="cls-6" cx="154.4" cy="1699.2" r="3.7"/><path class="cls-7" d="M154.4 1703.1c0 .1-.1.1-.1 0a4.2 4.2 0 00-1.1-2.4 6.1 6.1 0 00-2.8-1.4c-.1 0-.1-.1 0-.1a6.9 6.9 0 002.8-1.6 4.3 4.3 0 001.1-2.3h.1a5.2 5.2 0 001.5 2.3 4.6 4.6 0 002.5 1.5c0 .1 0 .2-.1.2a5.1 5.1 0 00-2.4 1.4 5.1 5.1 0 00-1.5 2.4z"/><circle class="cls-7" cx="146.4" cy="1777.4" r="1.4"/><circle class="cls-7" cx="245.7" cy="1671.5" r="1.4"/><circle class="cls-7" cx="106.8" cy="1705.8" r="1.4"/><circle class="cls-6" cx="26.3" cy="993.8" r="11.1"/><circle class="cls-6" cx="26.3" cy="993.8" r="13.1"/><circle class="cls-6" cx="26.3" cy="993.8" r="7.4"/><path class="cls-7" d="M26.4 1001.7c0 .1-.2.1-.2-.1a8.3 8.3 0 00-2.3-4.8 11.4 11.4 0 00-5.5-2.8c-.1 0-.1-.2 0-.2a11.1 11.1 0 005.5-3.1 8.7 8.7 0 002.3-4.7c0-.2.2-.2.3 0a11 11 0 002.8 4.7 11.5 11.5 0 005 3c.1.1.1.3 0 .3a12.3 12.3 0 00-5 2.8 10 10 0 00-2.9 4.9z"/><circle class="cls-6" cx="30.1" cy="927.8" r="5.6"/><circle class="cls-6" cx="30.1" cy="927.8" r="6.6"/><circle class="cls-6" cx="30.1" cy="927.8" r="3.7"/><path class="cls-7" d="M30.1 931.7H30a4.1 4.1 0 00-1.2-2.4 5.4 5.4 0 00-2.7-1.4c-.1 0-.1-.1 0-.1a5.7 5.7 0 002.7-1.5 4.4 4.4 0 001.2-2.4c0-.1.1-.1.1 0a6.3 6.3 0 003.9 3.9c.1 0 .1.1 0 .1a6.2 6.2 0 00-2.4 1.4 4.7 4.7 0 00-1.5 2.4z"/><circle class="cls-6" cx="66" cy="870.8" r="5.6"/><circle class="cls-6" cx="66" cy="870.8" r="6.6"/><circle class="cls-6" cx="66" cy="870.8" r="3.7"/><path class="cls-7" d="M66 874.7h-.1a4.1 4.1 0 00-1.2-2.4 5.4 5.4 0 00-2.7-1.4c-.1 0-.1-.1 0-.1a4.9 4.9 0 002.7-1.5 4.4 4.4 0 001.2-2.4c0-.1.1-.1.1 0a6.3 6.3 0 003.9 3.9c.1 0 .1.1 0 .1a6.2 6.2 0 00-2.4 1.4 4.7 4.7 0 00-1.5 2.4z"/><circle class="cls-7" cx="126.5" cy="918.1" r="1.4"/><circle class="cls-7" cx="58" cy="949.1" r="1.4"/><circle class="cls-7" cx="18.4" cy="877.4" r="1.4"/><circle class="cls-6" cx="24.9" cy="1083.7" r="11.1"/><circle class="cls-6" cx="24.9" cy="1083.7" r="13.1"/><circle class="cls-6" cx="24.9" cy="1083.7" r="7.4"/><path class="cls-7" d="M25 1091.6c-.1.1-.3.1-.3 0a8 8 0 00-2.3-4.9 10.8 10.8 0 00-5.4-2.8c-.2 0-.2-.2 0-.2a10.9 10.9 0 005.4-3.1 7.8 7.8 0 002.3-4.7c.1-.1.3-.1.3 0a11.9 11.9 0 002.9 4.7 10.8 10.8 0 004.9 3c.2.1.2.3 0 .3a12 12 0 00-4.9 2.8 9.3 9.3 0 00-2.9 4.9z"/><circle class="cls-6" cx="71" cy="1043.5" r="5.6"/><circle class="cls-6" cx="71" cy="1043.5" r="6.6"/><circle class="cls-6" cx="71" cy="1043.5" r="3.7"/><path class="cls-7" d="M71.1 1047.4h-.2a3.7 3.7 0 00-1.1-2.4 5.4 5.4 0 00-2.7-1.4c-.1 0-.1-.1 0-.2a4.9 4.9 0 002.7-1.5 4.2 4.2 0 001.2-2.3h.1a6.1 6.1 0 001.4 2.4 6.3 6.3 0 002.5 1.5c.1 0 .1.1 0 .1a6.3 6.3 0 00-2.5 1.5 4.7 4.7 0 00-1.4 2.3z"/><circle class="cls-7" cx="23.5" cy="1050" r="1.4"/><circle class="cls-6" cx="124.4" cy="1271" r="11.1"/><circle class="cls-6" cx="124.4" cy="1271" r="13.1"/><circle class="cls-6" cx="124.4" cy="1271" r="7.4"/><path class="cls-7" d="M116.6 1271.1c-.1-.1-.1-.3 0-.3a8.3 8.3 0 004.8-2.3 10.7 10.7 0 002.8-5.5h.3a11.6 11.6 0 003 5.5 8.2 8.2 0 004.8 2.3c.1.1.1.3 0 .3a12.9 12.9 0 00-4.8 2.9 12.3 12.3 0 00-3 4.9c0 .2-.2.2-.2 0a12.5 12.5 0 00-2.9-4.9 8.8 8.8 0 00-4.8-2.9z"/><circle class="cls-6" cx="339.8" cy="1179.7" r="5.6"/><circle class="cls-6" cx="339.8" cy="1179.7" r="6.6"/><circle class="cls-6" cx="339.8" cy="1179.7" r="3.7"/><path class="cls-7" d="M335.8 1179.7a.1.1 0 01.1-.1 4.5 4.5 0 002.4-1.1 6.1 6.1 0 001.4-2.8h.1a5.5 5.5 0 001.5 2.8 4.5 4.5 0 002.4 1.1c.1 0 .1.1 0 .2a4.7 4.7 0 00-2.4 1.4 6.3 6.3 0 00-1.5 2.5h-.1a7.2 7.2 0 00-1.4-2.5 5.3 5.3 0 00-2.5-1.5z"/><circle class="cls-7" cx="189.1" cy="1393.6" r="1.4"/><circle class="cls-7" cx="158.1" cy="1325.1" r="1.4"/><circle class="cls-6" cx="132.4" cy="1416.7" r="5.6"/><circle class="cls-6" cx="132.4" cy="1416.7" r="6.6"/><circle class="cls-6" cx="132.4" cy="1416.7" r="3.7"/><path class="cls-7" d="M128.5 1416.7c-.1 0-.1-.1 0-.1a4.5 4.5 0 002.4-1.1 6.1 6.1 0 001.4-2.8c0-.1.1-.1.1 0a5.5 5.5 0 001.5 2.8 4.9 4.9 0 002.4 1.1c.1 0 .1.1 0 .1a6.1 6.1 0 00-2.4 1.5 6.3 6.3 0 00-1.5 2.5h-.1a5.8 5.8 0 00-1.4-2.5 5.6 5.6 0 00-2.4-1.5z"/><circle class="cls-7" cx="211.8" cy="1465.1" r="1.4"/><circle class="cls-7" cx="351.9" cy="1593.5" r="1.4"/><circle class="cls-7" cx="160.9" cy="1451" r="1.4"/><circle class="cls-7" cx="120" cy="1380.4" r="1.4"/><circle class="cls-7" cx="313.7" cy="1096.3" r="1.4"/><circle class="cls-6" cx="63.7" cy="1338.1" r="5.6"/><circle class="cls-6" cx="63.7" cy="1338.1" r="6.6"/><circle class="cls-6" cx="63.7" cy="1338.1" r="3.7"/><path class="cls-7" d="M59.8 1338.2c-.1-.1-.1-.2 0-.2a4.5 4.5 0 002.4-1.1 6.1 6.1 0 001.4-2.8h.1a5.9 5.9 0 001.5 2.8 4.1 4.1 0 002.4 1.1c.1.1.1.2 0 .2a6.9 6.9 0 00-2.4 1.4 6.3 6.3 0 00-1.5 2.5c0 .1-.1 0-.1 0a5.8 5.8 0 00-1.4-2.5 4.4 4.4 0 00-2.4-1.4z"/><circle class="cls-6" cx="371.9" cy="1075.1" r="6.7"/><circle class="cls-6" cx="371.9" cy="1075.1" r="7.9"/><circle class="cls-6" cx="371.9" cy="1075.1" r="4.5"/><path class="cls-7" d="M367.2 1075.1c-.1 0-.1-.1 0-.1a5.1 5.1 0 002.9-1.4 6.9 6.9 0 001.7-3.3h.1a7.2 7.2 0 001.9 3.3 5.5 5.5 0 002.8 1.4c.1 0 .1.1.1.2a6.4 6.4 0 00-2.9 1.7 7.1 7.1 0 00-1.8 3h-.2a7.8 7.8 0 00-1.7-3 6 6 0 00-2.9-1.8z"/><circle class="cls-7" cx="91.4" cy="1429.5" r="1.4"/><circle class="cls-7" cx="57.1" cy="1290.6" r="1.4"/><circle class="cls-6" cx="282.1" cy="2201.5" r="11.1"/><circle class="cls-6" cx="282.1" cy="2201.5" r="13.1"/><circle class="cls-6" cx="282.1" cy="2201.5" r="7.4"/><path class="cls-7" d="M282.2 2209.3c0 .2-.2.2-.3 0a7.5 7.5 0 00-2.2-4.8 11.4 11.4 0 00-5.5-2.8c-.2 0-.1-.2 0-.3a10.4 10.4 0 005.5-3 8.7 8.7 0 002.3-4.7c0-.2.2-.2.2-.1a12.2 12.2 0 002.9 4.8 12.6 12.6 0 005 3c.1 0 .1.2 0 .3a11.7 11.7 0 00-5 2.8 10.2 10.2 0 00-2.9 4.8z"/><circle class="cls-6" cx="100.4" cy="2300.3" r="11.1"/><circle class="cls-6" cx="100.4" cy="2300.3" r="13.1"/><circle class="cls-6" cx="100.4" cy="2300.3" r="7.4"/><path class="cls-7" d="M100.5 2308.1c0 .2-.2.2-.2 0a8.3 8.3 0 00-2.3-4.8 11.4 11.4 0 00-5.5-2.8c-.1 0-.1-.2 0-.3a10.8 10.8 0 005.5-3 9 9 0 002.3-4.7c0-.2.2-.2.3-.1a10.7 10.7 0 002.8 4.8 12.6 12.6 0 005 3c.1 0 .1.2 0 .2a13.5 13.5 0 00-5 2.9 10.2 10.2 0 00-2.9 4.8z"/><circle class="cls-6" cx="281.3" cy="2273.2" r="5.6"/><circle class="cls-6" cx="281.3" cy="2273.2" r="6.6"/><circle class="cls-6" cx="281.3" cy="2273.2" r="3.7"/><path class="cls-7" d="M281.3 2277.1h-.1a3.9 3.9 0 00-1.2-2.4 5.4 5.4 0 00-2.7-1.4c-.1 0-.1-.1 0-.1a6.1 6.1 0 002.7-1.6 4.2 4.2 0 001.2-2.3c0-.1.1-.1.1 0a6.7 6.7 0 001.4 2.3 5.3 5.3 0 002.5 1.5c.1.1.1.1 0 .2a5.8 5.8 0 00-2.5 1.4 4.7 4.7 0 00-1.4 2.4z"/><circle class="cls-6" cx="126.6" cy="2245.4" r="5.6"/><circle class="cls-6" cx="126.6" cy="2245.4" r="6.6"/><circle class="cls-6" cx="126.6" cy="2245.4" r="3.7"/><path class="cls-7" d="M126.6 2249.3h-.1a4.2 4.2 0 00-1.1-2.4 5.3 5.3 0 00-2.8-1.4v-.2a5.2 5.2 0 002.8-1.5 3.9 3.9 0 001.1-2.3h.2a6.7 6.7 0 001.4 2.3 6.3 6.3 0 002.5 1.5v.2a4.9 4.9 0 00-2.5 1.4 5.1 5.1 0 00-1.5 2.4z"/><circle class="cls-6" cx="162.5" cy="2188.4" r="5.6"/><circle class="cls-6" cx="162.5" cy="2188.4" r="6.6"/><circle class="cls-6" cx="162.5" cy="2188.4" r="3.7"/><path class="cls-7" d="M162.5 2192.3h-.1a4.2 4.2 0 00-1.1-2.4 5.3 5.3 0 00-2.8-1.4 6.3 6.3 0 002.8-1.6 3.9 3.9 0 001.1-2.3h.2a6.7 6.7 0 001.4 2.3 5.3 5.3 0 002.5 1.5v.2a4.9 4.9 0 00-2.5 1.4 5.1 5.1 0 00-1.5 2.3z"/><circle class="cls-7" cx="154.6" cy="2266.6" r="1.4"/><circle class="cls-7" cx="253.9" cy="2160.7" r="1.4"/><circle class="cls-7" cx="322.4" cy="2082.5" r="1.4"/><circle class="cls-7" cx="115" cy="2194.9" r="1.4"/><circle class="cls-7" cx="80.6" cy="2127" r="1.4"/><circle class="cls-6" cx="137.6" cy="1932.8" r="11.1"/><circle class="cls-6" cx="137.6" cy="1932.8" r="13.1"/><circle class="cls-6" cx="137.6" cy="1932.8" r="7.4"/><path class="cls-7" d="M129.8 1932.9c-.1 0-.1-.3 0-.3a8.1 8.1 0 004.8-2.2 11.4 11.4 0 002.8-5.5c.1-.2.3-.2.3 0a12.1 12.1 0 003 5.5 9.7 9.7 0 004.8 2.3c.1 0 .1.2 0 .2a12.9 12.9 0 00-4.8 2.9 12.6 12.6 0 00-3 5c0 .1-.2.1-.2-.1a12.5 12.5 0 00-2.9-4.9 10.2 10.2 0 00-4.8-2.9z"/><circle class="cls-6" cx="269" cy="2030.8" r="5.6"/><circle class="cls-6" cx="269" cy="2030.8" r="6.6"/><circle class="cls-6" cx="269" cy="2030.8" r="3.7"/><path class="cls-7" d="M265.1 2030.8c-.1 0-.1-.1 0-.1a3.9 3.9 0 002.4-1.2 5.4 5.4 0 001.4-2.7h.1a6.1 6.1 0 001.6 2.7 4.2 4.2 0 002.3 1.2c.1 0 .1.1 0 .1a6.7 6.7 0 00-2.3 1.4 4.6 4.6 0 00-1.5 2.5h-.2a5.8 5.8 0 00-1.4-2.5 4.7 4.7 0 00-2.4-1.4z"/><circle class="cls-7" cx="202.3" cy="2055.4" r="1.4"/><circle class="cls-7" cx="171.3" cy="1986.9" r="1.4"/><circle class="cls-6" cx="145.6" cy="2078.5" r="5.6"/><circle class="cls-6" cx="145.6" cy="2078.5" r="6.6"/><circle class="cls-6" cx="145.6" cy="2078.5" r="3.7"/><path class="cls-7" d="M141.7 2078.6c-.1-.1-.1-.2 0-.2a3.9 3.9 0 002.4-1.1 6.3 6.3 0 001.4-2.7h.1a4.9 4.9 0 001.5 2.7 3.9 3.9 0 002.4 1.1c.1.1.1.2 0 .2a6.9 6.9 0 00-2.4 1.4 6.3 6.3 0 00-1.5 2.5h-.1a5.8 5.8 0 00-1.4-2.5 5.1 5.1 0 00-2.4-1.4z"/><circle class="cls-7" cx="225" cy="2127" r="1.4"/><circle class="cls-7" cx="174.1" cy="2112.9" r="1.4"/><circle class="cls-7" cx="133.2" cy="2042.3" r="1.4"/><circle class="cls-7" cx="243" cy="1947.3" r="1.4"/><circle class="cls-7" cx="333.9" cy="1841.8" r="1.4"/><circle class="cls-6" cx="76.9" cy="2000" r="5.6"/><circle class="cls-6" cx="76.9" cy="2000" r="6.6"/><circle class="cls-6" cx="76.9" cy="2000" r="3.7"/><path class="cls-7" d="M73 2000c-.1 0-.1-.1 0-.1a4.1 4.1 0 002.4-1.2 6.3 6.3 0 001.4-2.7h.1a5.7 5.7 0 001.5 2.7 4.4 4.4 0 002.4 1.2c.1 0 .1.1 0 .1a6.9 6.9 0 00-2.4 1.4 6.3 6.3 0 00-1.5 2.5h-.1a7.2 7.2 0 00-1.4-2.5 5.1 5.1 0 00-2.4-1.4z"/><circle class="cls-6" cx="301.2" cy="1926.1" r="6.7"/><circle class="cls-6" cx="301.2" cy="1926.1" r="7.9"/><circle class="cls-6" cx="301.2" cy="1926.1" r="4.5"/><path class="cls-7" d="M296.4 1926.2c-.1 0-.1-.2 0-.2a5.1 5.1 0 003-1.3 7 7 0 001.6-3.3c.1-.1.2-.1.2 0a7.3 7.3 0 001.8 3.3 5.4 5.4 0 002.9 1.4c.1 0 .1.1 0 .1a6.9 6.9 0 00-2.9 1.8 6.1 6.1 0 00-1.8 3h-.1a8.4 8.4 0 00-1.7-2.9 6.2 6.2 0 00-3-1.9z"/><circle class="cls-7" cx="104.6" cy="2091.3" r="1.4"/><circle class="cls-7" cx="42.2" cy="1955.1" r="1.4"/><circle class="cls-7" cx="74.2" cy="2858.3" r="1.4"/><circle class="cls-7" cx="82.8" cy="2728.3" r="1.4"/><use width="26.6" height="26.6" transform="translate(177.6 2780.3)" xlink:href="#Blue"/><circle class="cls-6" cx="252.3" cy="2693.1" r="11.1"/><circle class="cls-6" cx="252.3" cy="2693.1" r="13.1"/><circle class="cls-6" cx="252.3" cy="2693.1" r="7.4"/><path class="cls-7" d="M252.4 2700.9c-.1.2-.3.2-.3 0a8.1 8.1 0 00-2.2-4.8 11.4 11.4 0 00-5.5-2.8c-.2-.1-.2-.3 0-.3a10.6 10.6 0 005.4-3 9.2 9.2 0 002.4-4.8h.2a12.2 12.2 0 002.9 4.8 13 13 0 004.9 3c.2 0 .2.2 0 .2a12.5 12.5 0 00-4.9 2.9 9.4 9.4 0 00-2.9 4.8z"/><circle class="cls-6" cx="251.4" cy="2764.8" r="5.6"/><circle class="cls-6" cx="251.4" cy="2764.8" r="6.6"/><circle class="cls-6" cx="251.4" cy="2764.8" r="3.7"/><path class="cls-7" d="M251.5 2768.7a.1.1 0 01-.2 0 3.7 3.7 0 00-1.1-2.4 5.4 5.4 0 00-2.7-1.4c-.1-.1-.1-.2 0-.2a4.9 4.9 0 002.7-1.5 3.9 3.9 0 001.1-2.4h.2a6.1 6.1 0 001.4 2.4 6.3 6.3 0 002.5 1.5c.1 0 .1.1 0 .1a6.3 6.3 0 00-2.5 1.5 4.7 4.7 0 00-1.4 2.4z"/><circle class="cls-6" cx="96.8" cy="2737" r="5.6"/><circle class="cls-6" cx="96.8" cy="2737" r="6.6"/><circle class="cls-6" cx="96.8" cy="2737" r="3.7"/><path class="cls-7" d="M96.8 2740.9h-.1a4.2 4.2 0 00-1.1-2.4 5.3 5.3 0 00-2.8-1.4c-.1-.1-.1-.2 0-.2a4.9 4.9 0 002.7-1.5 4.1 4.1 0 001.2-2.4h.1a5.5 5.5 0 001.5 2.4 6.8 6.8 0 002.4 1.5c.1 0 .1.1 0 .1a6.8 6.8 0 00-2.4 1.5 5.1 5.1 0 00-1.5 2.4z"/><circle class="cls-6" cx="132.7" cy="2680" r="5.6"/><circle class="cls-6" cx="132.7" cy="2680" r="6.6"/><circle class="cls-6" cx="132.7" cy="2680" r="3.7"/><path class="cls-7" d="M132.7 2683.9h-.1a4.2 4.2 0 00-1.1-2.4 5.3 5.3 0 00-2.8-1.4c-.1 0-.1-.1 0-.2a4.9 4.9 0 002.7-1.5 4.2 4.2 0 001.2-2.3h.1a5.5 5.5 0 001.5 2.4 6.3 6.3 0 002.5 1.5h-.1a6.8 6.8 0 00-2.4 1.5 5.1 5.1 0 00-1.5 2.4z"/><circle class="cls-7" cx="193.2" cy="2727.2" r="1.4"/><circle class="cls-7" cx="124.7" cy="2758.2" r="1.4"/><circle class="cls-7" cx="224" cy="2652.3" r="1.4"/><circle class="cls-7" cx="292.6" cy="2574.1" r="1.4"/><circle class="cls-7" cx="379.6" cy="2809.9" r="1.4"/><circle class="cls-6" cx="290.1" cy="2587.3" r="5.6"/><circle class="cls-6" cx="290.1" cy="2587.3" r="6.6"/><circle class="cls-6" cx="290.1" cy="2587.3" r="3.7"/><path class="cls-7" d="M286.2 2587.4a3.9 3.9 0 002.4-1.2 5.4 5.4 0 001.4-2.7h.2a4.9 4.9 0 001.5 2.7 4.1 4.1 0 002.4 1.2 6.9 6.9 0 00-2.4 1.4 6.3 6.3 0 00-1.5 2.5h-.1a7 7 0 00-1.5-2.5 4.7 4.7 0 00-2.4-1.4z"/><circle class="cls-6" cx="319.7" cy="2288.6" r="5.6"/><circle class="cls-6" cx="319.7" cy="2288.6" r="6.6"/><circle class="cls-6" cx="319.7" cy="2288.6" r="3.7"/><path class="cls-7" d="M315.8 2288.6c-.1 0-.1-.1 0-.1a4.5 4.5 0 002.4-1.1 6.1 6.1 0 001.4-2.8h.1a7 7 0 001.5 2.8 4.9 4.9 0 002.4 1.1c.1 0 .1.1 0 .2a4.7 4.7 0 00-2.4 1.4 6.3 6.3 0 00-1.5 2.5h-.1a5.8 5.8 0 00-1.4-2.5 5.6 5.6 0 00-2.4-1.5z"/><circle class="cls-6" cx="326.3" cy="2758.2" r="5.6"/><circle class="cls-6" cx="326.3" cy="2758.2" r="6.6"/><circle class="cls-6" cx="326.3" cy="2758.2" r="3.7"/><path class="cls-7" d="M322.3 2758.2a4.3 4.3 0 002.5-1.2 6 6 0 001.3-2.7h.2a4.9 4.9 0 001.5 2.7 4.1 4.1 0 002.4 1.2 6.9 6.9 0 00-2.4 1.4 6.3 6.3 0 00-1.5 2.5h-.1a9.5 9.5 0 00-1.4-2.5 4.9 4.9 0 00-2.5-1.4z"/><circle class="cls-7" cx="350.5" cy="2355.1" r="1.4"/><circle class="cls-7" cx="300.2" cy="2674.7" r="1.4"/><circle class="cls-7" cx="346.8" cy="2561.6" r="1.4"/><circle class="cls-7" cx="339.4" cy="2462.3" r="1.4"/><circle class="cls-6" cx="358.4" cy="2653.5" r="6.7"/><circle class="cls-6" cx="358.4" cy="2653.5" r="7.9"/><circle class="cls-6" cx="358.4" cy="2653.5" r="4.5"/><path class="cls-7" d="M353.7 2653.6c-.1 0-.1-.2 0-.2a4.8 4.8 0 002.9-1.3 7.2 7.2 0 001.7-3.4h.1a7.4 7.4 0 001.9 3.4 5.2 5.2 0 002.8 1.4c.1 0 .1.1 0 .1a6.7 6.7 0 00-2.8 1.7 7.1 7.1 0 00-1.8 3h-.2a8.6 8.6 0 00-1.7-3 7 7 0 00-2.9-1.7z"/><circle class="cls-6" cx="317.8" cy="2428.4" r="11.1"/><circle class="cls-6" cx="317.8" cy="2428.4" r="13.1"/><circle class="cls-6" cx="317.8" cy="2428.4" r="7.4"/><path class="cls-7" d="M317.9 2436.3h-.3a8.6 8.6 0 00-2.3-4.9 10.7 10.7 0 00-5.5-2.8c-.1 0-.1-.2 0-.2a11.1 11.1 0 005.5-3.1 7.8 7.8 0 002.3-4.7c.1-.1.2-.2.3 0a11.9 11.9 0 002.9 4.7 10.4 10.4 0 004.9 3c.2.1.1.3 0 .3a12 12 0 00-4.9 2.8 8.6 8.6 0 00-2.9 4.9z"/><circle class="cls-6" cx="316.9" cy="2500.1" r="5.6"/><circle class="cls-6" cx="316.9" cy="2500.1" r="6.6"/><circle class="cls-6" cx="316.9" cy="2500.1" r="3.7"/><path class="cls-7" d="M316.9 2504h-.1a4.5 4.5 0 00-1.1-2.4 6.1 6.1 0 00-2.8-1.4 5.9 5.9 0 002.8-1.5 4.9 4.9 0 001.1-2.4h.2a4.7 4.7 0 001.4 2.4 6.3 6.3 0 002.5 1.5 5.8 5.8 0 00-2.5 1.4 5.6 5.6 0 00-1.5 2.4z"/><circle class="cls-7" cx="289.5" cy="2387.6" r="1.4"/><circle class="cls-7" cx="358" cy="2309.5" r="1.4"/><circle class="cls-7" cx="85.1" cy="2686.5" r="1.4"/><circle class="cls-7" cx="50.8" cy="2618.5" r="1.4"/><circle class="cls-6" cx="107.8" cy="2424.4" r="11.1"/><circle class="cls-6" cx="107.8" cy="2424.4" r="13.1"/><circle class="cls-6" cx="107.8" cy="2424.4" r="7.4"/><path class="cls-7" d="M100 2424.5c-.2-.1-.2-.3 0-.3a8.1 8.1 0 004.8-2.2 11.4 11.4 0 002.8-5.5c0-.2.2-.2.3 0a9.9 9.9 0 003 5.4 9 9 0 004.7 2.4c.2 0 .2.2.1.2a12.2 12.2 0 00-4.8 2.9 13 13 0 00-3 4.9c0 .2-.2.2-.3 0a12 12 0 00-2.8-4.9 9.4 9.4 0 00-4.8-2.9z"/><circle class="cls-6" cx="203.1" cy="2351.5" r="5.6"/><circle class="cls-6" cx="203.1" cy="2351.5" r="6.6"/><circle class="cls-6" cx="203.1" cy="2351.5" r="3.7"/><path class="cls-7" d="M199.2 2351.6c-.1 0-.1-.2 0-.2a3.9 3.9 0 002.4-1.1 6.3 6.3 0 001.4-2.7h.1a4.9 4.9 0 001.5 2.7 4.8 4.8 0 002.4 1.2c.1 0 .1.1 0 .1a6.9 6.9 0 00-2.4 1.4 6.3 6.3 0 00-1.5 2.5h-.1a7.2 7.2 0 00-1.4-2.5 5.1 5.1 0 00-2.4-1.4z"/><circle class="cls-6" cx="41.1" cy="2148.5" r="5.6"/><circle class="cls-6" cx="41.1" cy="2148.5" r="6.6"/><circle class="cls-6" cx="41.1" cy="2148.5" r="3.7"/><path class="cls-7" d="M37.2 2148.6c-.1-.1-.1-.2 0-.2a4.5 4.5 0 002.4-1.1 6.1 6.1 0 001.4-2.8h.1a6.2 6.2 0 001.5 2.7 4.1 4.1 0 002.4 1.1c.1.1.1.2 0 .2a6.9 6.9 0 00-2.4 1.4 6.3 6.3 0 00-1.5 2.5H41a5.8 5.8 0 00-1.4-2.5 4.4 4.4 0 00-2.4-1.3z"/><circle class="cls-6" cx="239.2" cy="2522.3" r="5.6"/><circle class="cls-6" cx="239.2" cy="2522.3" r="6.6"/><circle class="cls-6" cx="239.2" cy="2522.3" r="3.7"/><path class="cls-7" d="M235.3 2522.4c-.1 0-.1-.1 0-.2a3.9 3.9 0 002.4-1.1 6.3 6.3 0 001.4-2.7h.1a4.9 4.9 0 001.5 2.7 4.4 4.4 0 002.4 1.2c.1 0 .1.1 0 .1a6.9 6.9 0 00-2.4 1.4 6.3 6.3 0 00-1.5 2.5h-.1a5.8 5.8 0 00-1.4-2.5 5.1 5.1 0 00-2.4-1.4z"/><circle class="cls-7" cx="172.5" cy="2547" r="1.4"/><circle class="cls-7" cx="141.5" cy="2478.5" r="1.4"/><circle class="cls-6" cx="115.8" cy="2570.1" r="5.6"/><circle class="cls-6" cx="115.8" cy="2570.1" r="6.6"/><circle class="cls-6" cx="115.8" cy="2570.1" r="3.7"/><path class="cls-7" d="M111.8 2570.1a4.8 4.8 0 002.5-1.1 5.8 5.8 0 001.3-2.8h.2a5.2 5.2 0 001.5 2.8 4.5 4.5 0 002.4 1.1v.2a4.7 4.7 0 00-2.4 1.4 6.3 6.3 0 00-1.5 2.5h-.1a7.2 7.2 0 00-1.4-2.5 5.3 5.3 0 00-2.5-1.6z"/><circle class="cls-7" cx="195.1" cy="2618.5" r="1.4"/><circle class="cls-7" cx="144.3" cy="2604.4" r="1.4"/><circle class="cls-7" cx="103.3" cy="2533.9" r="1.4"/><circle class="cls-7" cx="213.1" cy="2438.9" r="1.4"/><circle class="cls-7" cx="259.7" cy="2325.8" r="1.4"/><circle class="cls-7" cx="151.8" cy="2359.2" r="1.4"/><circle class="cls-7" cx="100.4" cy="2369.7" r="1.4"/><circle class="cls-7" cx="252.3" cy="2226.4" r="1.4"/><circle class="cls-7" cx="47.6" cy="2282" r="1.4"/><circle class="cls-7" cx="279.7" cy="2078.5" r="1.4"/><circle class="cls-6" cx="47.1" cy="2491.5" r="5.6"/><circle class="cls-6" cx="47.1" cy="2491.5" r="6.6"/><circle class="cls-6" cx="47.1" cy="2491.5" r="3.7"/><path class="cls-7" d="M43.1 2491.6v-.2a4.1 4.1 0 002.5-1.1 6.3 6.3 0 001.4-2.7h.1a4.9 4.9 0 001.5 2.7 4.8 4.8 0 002.4 1.2 6.9 6.9 0 00-2.4 1.4 6.3 6.3 0 00-1.5 2.5H47a7.2 7.2 0 00-1.4-2.5 4.9 4.9 0 00-2.5-1.3z"/><circle class="cls-6" cx="271.3" cy="2417.7" r="6.7"/><circle class="cls-6" cx="271.3" cy="2417.7" r="7.9"/><circle class="cls-6" cx="271.3" cy="2417.7" r="4.5"/><path class="cls-7" d="M266.6 2417.8c-.1 0-.1-.2 0-.2a4.8 4.8 0 002.9-1.3 7.2 7.2 0 001.7-3.4h.2a5.7 5.7 0 001.8 3.3 4.7 4.7 0 002.9 1.4c0 .1.1.2 0 .2a6.9 6.9 0 00-2.9 1.7 7.1 7.1 0 00-1.8 3h-.2a6.7 6.7 0 00-1.7-3 5.6 5.6 0 00-2.9-1.7z"/><circle class="cls-7" cx="74.8" cy="2582.9" r="1.4"/><circle class="cls-7" cx="40.5" cy="2444" r="1.4"/><circle class="cls-7" cx="52.6" cy="2357.8" r="1.4"/><circle class="cls-7" cx="61.3" cy="2227.8" r="1.4"/><use width="26.6" height="26.6" transform="translate(156 2279.8)" xlink:href="#Blue"/><path class="cls-7" d="M302.6 2159.3l-22.3-19.4a1.1 1.1 0 01-.6-1 1.2 1.2 0 011.2-1.2 1.1 1.1 0 01.9.5l21.3 20.6zM261.8 2153.5l-39-33.8a2.2 2.2 0 01-1-1.8 2 2 0 012-2.1 2.1 2.1 0 011.7.9l37 35.9zM151.3 2017.2l-62.1-53.9a3.3 3.3 0 114.4-4.7l58.9 57.2z"/><ellipse class="cls-8" cx="90.1" cy="1199.8" rx="18.5" ry="63.2" transform="rotate(-42.2 89.844 1199.289)"/><ellipse class="cls-8" cx="85.1" cy="1195.1" rx="25" ry="85.3" transform="rotate(-42.2 84.833 1194.527)"/><ellipse class="cls-8" cx="86.6" cy="1196" rx="8.5" ry="29" transform="rotate(-42.2 86.418 1195.436)"/><ellipse class="cls-9" cx="86.6" cy="1196" rx="4.3" ry="14.5" transform="rotate(-42.2 86.418 1195.436)"/><g clip-path="url(#clip-path)"><path class="cls-11" d="M119.1 1220.5c-5.6-16.6-24.8-42.2-42.7-52.1-8.7-4.8-15.2-5.1-16 1.2s2.8 13.8 10.2 22.9c-5-11.9-9.8-26.3 3.4-19.7 8.1 3.7 17.7 12.4 25 22.7 9.1 12.9 12.4 23.9 8.4 28.1s-17.1-1.9-29.8-14.2-24.8-30.1-27.9-41.9c-4.6-18.1 9.7-20.2 30.2-5.4 22.4 16.2 46 46.1 53.2 67.4 9 27.6-10.3 32.6-39.9 9.8-25.3-19.4-51-51.9-60.6-76.9-11.8-31.3 5.3-39.2 33.9-22.2"/><path class="cls-11" d="M104.1 1192.4c-15-18.6-35-32.7-42.9-29.1-4.1 1.9-4.6 8.1.3 17.5s15.5 22.6 25.3 28.8c5.3 3.3 8.9 2.8 9.2-1l-.6-2.7c-1.5-3.1-5.3-8.2-7.3-8.3-3.9-.6-1.4 8.4-9.2 1-11.3-10.9-15.4-23.8-9.2-24.7s21.1 12.3 29.8 25.2c12.6 18.5 8.9 28.5-4.3 22.3s-32.4-26.9-40.9-44c-5.8-11.7-6.2-19.8-2-23.3s10.6-1.6 19.3 3.2c15.2 8.3 32.9 25.6 45.9 44.4s18.2 34 16.1 43.3-13.3 9.7-29.5.4c-20.9-12-44.8-36.5-60.1-61.5-23.3-38.1-16.4-60.8 12-48.5"/><path class="cls-11" d="M102.3 1190.6c-8-9-16.7-17.1-24.7-22-10.2-6.6-16.9-6-18.7-.4-2.4 7.7 11.4 29.3 25.7 38.9 3.6 2.3 7 3.8 8.7 2.8s1.1-4.7-2.2-9.5c1.2 3.9.1 5.7-3.1 5-4.8-1.3-12.5-8.3-17.3-15.8-7.8-12.7-5.7-19.9 3.6-15.6 6.4 3.1 14.9 10.4 21.4 18.8 9.2 11.6 14.1 23.1 11.9 28.4s-12.8 1.9-24.4-7.3a111.7 111.7 0 01-23.7-27c-13.1-20.5-13.3-34.4-2.3-34.4 12.6.1 33.2 15.4 51.5 37.1s29 44.9 26.2 56-16.7 9.9-35.4-2.4c-12.6-8.3-25.6-20.2-37.7-34.7-24.1-28.9-36.6-58.1-31.1-70.3s24.3-6.6 46.6 9.5"/><path class="cls-11" d="M91.5 1178.1c-14.9-13.9-30-20.1-33.2-12.7s4.4 22.2 17.4 35.7c5.4 5.3 10.4 9 15.1 11.2 7.1 3 9.5-3.1.9-14s-9.6-2.2-14.3-4.4-9.6-13.6-7.9-16.3 10 .9 17.7 7.9a81.2 81.2 0 0113.8 16.7c7.3 11.9 6.6 19 1.2 20.2s-17.6-7.1-27.4-17.1c-14-14.2-23.7-31.5-24.6-41.9-.5-12.2 10.8-12.7 26.8-2.5 17.8 11.6 37.9 34.3 48.5 53.9 15.8 29 8.1 44.8-15.3 33.7-25.2-12.1-59.4-48.5-73.2-78.2-8.3-17.9-9-30.9-1.8-35.7 10-6 30.7 3.1 54.1 23.2"/><path class="cls-11" d="M47.2 1173.4c7.3 15 19.8 31.1 34.2 44.4 24.1 22 43.1 22 35.2-.5-4.6-13.1-19.7-34.1-32.9-40.7 9.3 9.2 17.9 20.2 23.2 30s5.7 17.9.7 19.5-13.8-2.4-23.6-10.3c-16.8-13.8-31.3-35.3-35-49.4-4.6-18.5 10.8-19.2 30.7-5.1 25.5 18.2 52.7 55.3 55.9 76 2.2 12.7-2.7 19.2-14.6 16.9-18.7-3.7-46.7-28-67.5-55.4-12.1-16.1-20.6-31.6-23.6-43.9"/><path class="cls-11" d="M100.1 1232.4c14 6.9 22.7 3.6 19.5-10.2-3.5-15.4-22.8-41-41-52.5-11.5-7.3-19.8-6.8-18.7 2.8s15.4 30.3 27.7 35.8c-11-8.1-22.7-24.3-22.7-32.5.3-5.3 4.7-6 12.3-1a83.9 83.9 0 0121 20.4c11.8 16.6 14.3 30.5 3.7 29.3s-24.8-13.8-36.7-29.1c-15.3-20.2-20.5-37.7-12.8-42.2s19 1.6 33 13c23.8 19.2 46.1 51.3 49.2 70 2.4 11.9-2.4 17.5-11.5 17.3-18.2-1.3-51.1-29-72-58.4"/><path class="cls-11" d="M94.6 1228.8c10.7 7 18.2 8.3 22.7 4.8s2-16.3-7.1-30.8c-11.9-18.6-31.1-36.1-42.8-37.6-7.8-.8-8.7 7.1-2.9 18.8-5.3-13 2.4-17.5 15.6-8 10.4 7.4 21.9 20.7 26.7 31.8 5.8 13.4 2.1 20.5-9.3 15.7-8.8-4-20-12.9-30-24.8-15.3-18.5-22.1-36.6-17.6-43.4 5.8-9.5 28.9 2.1 49.9 23.8 13 13.5 23.2 28.3 29.8 42 12.8 27.4 3.2 39.9-20.3 28.4-27.4-13.4-64-55.2-75.8-85"/><path class="cls-11" d="M118.4 1236.1c7.3-4.2 1.2-23.7-14.8-43.7-10.6-13.1-23.4-24.2-33-28.1-7.9-2.8-12.3-.5-12.2 6.4.5 8.9 12.2 26.7 24.6 35.8 7.3 5.5 13.6 6.1 11.4-1.3-.4-2-3.7-6.4-4.3-5.9-2.4 1.2-3.2 4.6-8.6.9-8-5.3-14.2-15.8-15.2-21.7-.6-4 1.3-5.5 4.8-5.3 7.2 1.4 17.7 10.8 25.8 21.4 12 15.7 13.8 28.5 5.6 29-6.4.1-17.1-6.8-27-16.7-13.9-14.2-24-31.5-25.8-42.6-2.8-18.4 17.6-14.1 41 6.8 13.5 12.2 25.6 26.7 33.8 41 9.7 17.3 13.5 32.2 7.7 38s-22.2.9-39.7-12.4-36.7-34-48.4-53.7"/><path class="cls-11" d="M104.7 1178.7c-22.4-24.3-47.4-38.9-58.5-34.3-7.5 3.6-6.4 16.5 2 33.1 10.3 20.1 30.6 41.9 48.5 53.9s27.5 8.9 25.5-4.7c-1.6-11.6-12.7-30.3-27.5-45.2-12.4-12.4-25.8-21-32.6-19.5-5.1 1.1-5.9 7.4-1.8 17s14.7 22.6 24.7 29.7c5.9 4 11.1 5.2 11.7 1.5s-5.2-11.1-10.2-14.8-2.1 2.4-3.9 3-10-7.4-12.7-12.3c-5.3-9.8-.2-12.2 7.1-8.8s16.7 13.3 23.1 23c11.7 17.4 7.6 26.1-4.6 21.1s-30.6-24.3-39.3-40.6c-4.9-9.4-6.6-16.9-5.5-22 2.3-8.1 13.7-6.6 27.6 2.7"/><path class="cls-11" d="M121.5 1198.4c-15.8-21.4-36.5-40.7-53.9-50.3-14.8-8-24.9-7.3-27.3 1.7-3.4 13.1 12.7 43.3 36.2 66.3 17.7 17.3 36 27.6 43.9 22.7 10-6-2.9-35.5-26-58.5-14.3-14.1-29-22.1-35.3-17.9-4.8 3.6-2.1 15.4 8.3 29.4 7.7 10.2 17.4 19.4 24.9 22.3s8.1-2.9 3-11.9c-3.3-6-10.2-11.1-15.6-16.4-1.4-1.4-3.7-4.7-3.3-4.4 5.3 0 16 10.2 22.4 19.9s7.9 17.5 3.8 19.4c-7.6 3.2-26.6-11.5-39-29.2-8.5-12.1-12.8-22.5-12.6-29.9s7.9-9.8 19.6-3.8c16.4 8.5 36.1 28.4 49.4 48.4"/><path class="cls-11" d="M86.5 1161.2c-25.3-21.1-45.8-24.1-45.9-6.6.5 10.2 6.5 24.7 18.6 40.9s30.5 33.3 44.2 40.2c19 9.7 25.3-2.2 13.7-24.6a134.4 134.4 0 00-22.1-29.7c-11.3-11.3-23-18.9-30.7-19.8-11.8-1.4-9.3 15.7 7.9 36 11 13 24.1 20.4 25 12.9.4-3.3-3-11.4-9.2-14.9-2.6-1.7-5-2.1-7.6-3.4a17.3 17.3 0 01-7.1-9.5c-.5-4 2.4-4.4 7.2-1.5 7.6 5 15.9 14.3 20.9 22.9 3.9 6.8 5 11.9 3.8 15-2.1 5.6-12 1.8-22.8-7.2s-22.7-23.9-28.1-36.1c-6.5-14.9-3.9-23.1 6.8-21.4 15 2.6 38.7 23.1 55 45.7"/><path class="cls-11" d="M129.6 1209.9a232.5 232.5 0 00-33-39.7c-21.4-20.4-43.7-33-52.8-26.3-12.2 8 3.8 43.9 32.8 72.6 22 21.5 44.3 30.8 47.4 18.1 1.5-6.8-1.3-17.4-10.2-31.1s-21.6-27.7-33.8-36.1c-9-6-15.9-8.2-20.4-6.3-6.4 3.4-2.2 18.3 11.5 35 11.6 14.2 23.7 20.5 30.9 20.2-1.5 5.1-10.2 2-19.6-5.6a103.7 103.7 0 01-20.9-23.3c-16.5-25.3-10.5-38.8 8.3-29.5s44.4 36.1 55.8 58.9c7.9 15.9 8.8 28 2.8 32.3"/><path class="cls-11" d="M92.2 1245.3c26.2 20.7 46.6 23.8 51.1 10.4 5.3-15.1-14.3-52.1-43.1-81.2-23.3-23.8-47.8-36.4-56.1-27.8-4.5 5.2-2.7 16.4 4.4 30.4s21.4 31.8 35.7 44.4 28.9 18.4 34.5 13.1c7.5-6.9-4.7-33.6-25.3-53.7-9.8-9.6-20.2-16.5-27.2-17.5s-10.1 5.6-3.4 18.1c4.7 9 13.8 20.3 22.9 26.7 2.2 1.7 2.2 0 2.4-.8s-1.8-3-2.8-4.1c-7-7.1-14.8-14.9-17.6-21.8-3.5-8.8 1.7-10.8 10.1-5.6 13.4 8.6 27.2 27.3 29.7 38.3s-7.3 12.6-20.9 2.6"/><path class="cls-11" d="M107 1256c24.2 14.6 40.9 11.3 37.6-9.5-1.9-13.1-10.6-31-24.9-50-20.2-26.8-47-49.2-65-53s-18.7 12.6-5 37.1c12.3 22.2 35.7 46 53.6 54.7 14.5 6.8 22.7 1.4 17.5-14.5-4.7-14-16.7-31.3-32-44.9s-27.9-17.4-30.8-10 4.8 22.1 18.1 35.6c9.4 9.1 19.6 14.1 20.5 7.9-.1-3.7-3.3-11-9.7-15.3s-3.1 2.9-6.1 3-4.4-2.6-6.6-5.6c-7-9.1-7.4-15.6-2-15.2 8.2.8 21.2 14.4 28.5 26.3s6.9 18.6 1.4 19.4-14.6-4.3-24.4-13.5"/><path class="cls-11" d="M125.3 1263.9c25 7.1 26.5-20.9.1-59.3-13.1-18.9-29.7-36.7-46.1-48.5-21.9-15.9-39.4-17.7-38.5-.7s22.6 50 46.4 69.3c17.7 14 32.9 17.4 34.5 6.6.7-5.5-1.9-13.2-6.6-22.3-7.4-13.6-20.8-29.1-33.2-38.2s-24.5-11-23.5-.1c.6 6 4.4 14 11.4 23.1 5.9 7.3 12.6 13.6 18.2 16.5s10.2 1.3 6.5-6.3c-2-3.8-7-9.2-8.2-7.8s-4.2 6.4-11.6-2.7-9.2-16.5-5.3-17.9 14.1 5.2 22.1 13.7c12.2 13.3 18.2 27.9 13.5 31.9s-19.8-5.2-32.5-17.6"/><path class="cls-11" d="M118.7 1262.2c25.2 10.6 34.2-6.3 18.4-38.2-10.8-22-31.8-47.4-52.9-64.6-14.4-11.7-27.2-17.5-35.8-17-12.9 1.6-10.7 20.8 6.3 46.8 21.1 32.3 56.4 58.4 66.7 48.6 5.7-6.1-.3-24-14.6-43.1s-32.7-32.9-43.4-33.3c-7.6-.1-8.9 7.4-2.6 19.9s22.7 30.9 33.1 33c3.1.3 5.1-.8 4.3-4.4-1-9.2-14.5-16.5-22.1-23.5-3.4-3.2-2.2-7.5.8-6.3 9.6 3.9 23.5 19.7 27.2 30.6 2.6 8.1-.3 11.9-7.3 9.6s-15.2-8.2-23.2-16.8c-13.1-13.9-21.9-30.6-23.1-40.6"/></g><ellipse cx="85.8" cy="1195.9" rx="21.9" ry="74.7" transform="rotate(-42.2 85.54 1195.395)" fill="url(#radial-gradient-2)"/><circle class="cls-7" cx="258.9" cy="78.8" r="1.4"/><circle class="cls-6" cx="271" cy="570.4" r="11.1"/><circle class="cls-6" cx="271" cy="570.4" r="13.1"/><circle class="cls-6" cx="271" cy="570.4" r="7.4"/><path class="cls-7" d="M271.1 578.3c-.1.1-.3.1-.3 0a8.6 8.6 0 00-2.3-4.9 10.7 10.7 0 00-5.5-2.8c-.1 0-.1-.2 0-.2a11.1 11.1 0 005.5-3.1 7.8 7.8 0 002.3-4.7c.1-.1.3-.1.3 0a11.9 11.9 0 002.9 4.7 10.4 10.4 0 004.9 3c.2.1.1.3 0 .3a12 12 0 00-4.9 2.8 8.6 8.6 0 00-2.9 4.9z"/><circle class="cls-6" cx="38.7" cy="567.7" r="11.1"/><circle class="cls-6" cx="38.7" cy="567.7" r="13.1"/><circle class="cls-6" cx="38.7" cy="567.7" r="7.4"/><path class="cls-7" d="M38.8 575.5c0 .1-.2.1-.2 0a8.3 8.3 0 00-2.3-4.8 11.4 11.4 0 00-5.5-2.8c-.1-.1-.1-.3 0-.3a11.6 11.6 0 005.5-3 8.9 8.9 0 002.3-4.8h.3a11.2 11.2 0 002.8 4.8 12.6 12.6 0 005 3c.1 0 .1.2 0 .2a12.7 12.7 0 00-5 2.9 10.2 10.2 0 00-2.9 4.8z"/><circle class="cls-6" cx="270.1" cy="642.1" r="5.6"/><circle class="cls-6" cx="270.1" cy="642.1" r="6.6"/><circle class="cls-6" cx="270.1" cy="642.1" r="3.7"/><path class="cls-7" d="M270.1 646c0 .1-.1.1-.1 0a4.5 4.5 0 00-1.1-2.4 6.1 6.1 0 00-2.8-1.4 5.2 5.2 0 002.8-1.5 4.5 4.5 0 001.1-2.4c0-.1.1-.1.2 0a4.7 4.7 0 001.4 2.4 6.3 6.3 0 002.5 1.5 7.2 7.2 0 00-2.5 1.4 5.6 5.6 0 00-1.5 2.4z"/><circle class="cls-6" cx="64.9" cy="512.8" r="5.6"/><circle class="cls-6" cx="64.9" cy="512.8" r="6.6"/><circle class="cls-6" cx="64.9" cy="512.8" r="3.7"/><path class="cls-7" d="M64.9 516.7h-.1a4.2 4.2 0 00-1.1-2.4 5.3 5.3 0 00-2.8-1.4v-.2a5.2 5.2 0 002.8-1.5 4.5 4.5 0 001.1-2.4h.2a4.7 4.7 0 001.4 2.4 6.3 6.3 0 002.5 1.5 6.3 6.3 0 00-2.5 1.5 5.1 5.1 0 00-1.5 2.5z"/><circle class="cls-6" cx="98.3" cy="420.9" r="5.6"/><circle class="cls-6" cx="98.3" cy="420.9" r="6.6"/><circle class="cls-6" cx="151.4" cy="557.3" r="3.7"/><path class="cls-7" d="M98.4 424.8h-.2a3.7 3.7 0 00-1.1-2.4 5.4 5.4 0 00-2.7-1.4c-.1 0-.1-.1 0-.2a4.9 4.9 0 002.7-1.5 5 5 0 001.2-2.3c0-.1.1-.1.1 0a6.7 6.7 0 001.4 2.3 6.3 6.3 0 002.5 1.5c.1 0 .1.1 0 .2a4.9 4.9 0 00-2.5 1.4 4.7 4.7 0 00-1.4 2.4z"/><circle class="cls-7" cx="211.9" cy="604.6" r="1.4"/><circle class="cls-7" cx="288.4" cy="690.9" r="1.4"/><circle class="cls-7" cx="92.8" cy="534" r="1.4"/><circle class="cls-7" cx="36.8" cy="399.7" r="1.4"/><circle class="cls-7" cx="311.2" cy="451.5" r="1.4"/><circle class="cls-7" cx="53.3" cy="462.3" r="1.4"/><circle class="cls-7" cx="23" cy="505.3" r="1.4"/><circle class="cls-6" cx="110.3" cy="770.2" r="11.1"/><circle class="cls-6" cx="110.3" cy="770.2" r="13.1"/><circle class="cls-6" cx="110.3" cy="770.2" r="7.4"/><path class="cls-7" d="M110.4 778.1c-.1.1-.3.1-.3 0a8.6 8.6 0 00-2.3-4.9 11.4 11.4 0 00-5.4-2.7c-.2-.1-.2-.3 0-.3a11.9 11.9 0 005.4-3 8.2 8.2 0 002.3-4.8c.1-.1.3-.1.3 0a12.9 12.9 0 002.9 4.8 13 13 0 004.9 3c.2 0 .2.2 0 .2a12 12 0 00-4.9 2.8 8.6 8.6 0 00-2.9 4.9z"/><circle class="cls-6" cx="281.7" cy="735.5" r="11.1"/><circle class="cls-6" cx="281.7" cy="735.5" r="13.1"/><circle class="cls-6" cx="281.7" cy="735.5" r="7.4"/><path class="cls-7" d="M281.8 743.4c0 .1-.2.1-.3 0a7.7 7.7 0 00-2.2-4.9 11.4 11.4 0 00-5.5-2.8c-.1 0-.1-.2 0-.2a11.6 11.6 0 005.5-3.1 8.7 8.7 0 002.3-4.7c0-.1.2-.2.2 0a11.9 11.9 0 002.9 4.7 10.6 10.6 0 005 3c.1.1.1.3 0 .3a11.7 11.7 0 00-5 2.8 10 10 0 00-2.9 4.9z"/><circle class="cls-6" cx="275.2" cy="814.8" r="5.6"/><circle class="cls-6" cx="275.2" cy="814.8" r="6.6"/><circle class="cls-6" cx="275.2" cy="814.8" r="3.7"/><path class="cls-7" d="M275.2 818.7h-.1a4.2 4.2 0 00-1.1-2.4 5.3 5.3 0 00-2.8-1.4c-.1 0-.1-.1 0-.2a4.9 4.9 0 002.7-1.5 4.2 4.2 0 001.2-2.3.1.1 0 01.1-.1 5.5 5.5 0 001.5 2.4 6.8 6.8 0 002.4 1.5c.1 0 .1.1 0 .2a5.1 5.1 0 00-2.4 1.4 4.4 4.4 0 00-1.5 2.4z"/><circle class="cls-6" cx="156.4" cy="730" r="5.6"/><circle class="cls-6" cx="156.4" cy="730" r="6.6"/><circle class="cls-6" cx="156.4" cy="730" r="3.7"/><path class="cls-7" d="M156.5 733.9c0 .1-.2.1-.2 0a3.7 3.7 0 00-1.1-2.4 5.4 5.4 0 00-2.7-1.4c-.1 0-.1-.1 0-.2a4.9 4.9 0 002.7-1.5 5 5 0 001.2-2.3c0-.1.1-.1.1 0a6.7 6.7 0 001.4 2.3 6.3 6.3 0 002.5 1.5c.1 0 .1.1 0 .2a4.9 4.9 0 00-2.5 1.4 4.7 4.7 0 00-1.4 2.4z"/><circle class="cls-7" cx="148.5" cy="808.2" r="1.4"/><circle class="cls-7" cx="247.8" cy="702.3" r="1.4"/><circle class="cls-7" cx="331.9" cy="629.6" r="1.4"/><circle class="cls-7" cx="108.9" cy="736.5" r="1.4"/><circle class="cls-7" cx="31.3" cy="661.8" r="1.4"/><circle class="cls-6" cx="80" cy="311.2" r="7.4"/><path class="cls-7" d="M72.2 311.2c-.2 0-.2-.2 0-.2a8.3 8.3 0 004.8-2.3 11.4 11.4 0 002.8-5.5h.3a10.1 10.1 0 003 5.5 8 8 0 004.7 2.3c.2 0 .2.2.1.3a10.7 10.7 0 00-4.8 2.8 12.6 12.6 0 00-3 5h-.3a12.9 12.9 0 00-2.8-5 10.2 10.2 0 00-4.8-2.9z"/><circle class="cls-6" cx="152.1" cy="392.6" r="5.6"/><circle class="cls-6" cx="152.1" cy="392.6" r="6.6"/><circle class="cls-6" cx="152.1" cy="392.6" r="3.7"/><path class="cls-7" d="M148.1 392.6a4.3 4.3 0 002.5-1.2 5.2 5.2 0 001.3-2.7c.1-.1.2-.1.2 0a4.9 4.9 0 001.5 2.7 4.1 4.1 0 002.4 1.2 6.3 6.3 0 00-3.9 3.9c0 .1-.1.1-.1 0a7.9 7.9 0 00-1.4-2.4 4.6 4.6 0 00-2.5-1.5z"/><circle class="cls-7" cx="191.2" cy="424.4" r="1.4"/><circle class="cls-7" cx="113.7" cy="365.3" r="1.4"/><circle class="cls-6" cx="54.3" cy="152.5" r="5.6"/><circle class="cls-6" cx="54.3" cy="152.5" r="6.6"/><circle class="cls-6" cx="54.3" cy="152.5" r="3.7"/><path class="cls-7" d="M50.4 152.6c-.1-.1-.1-.2 0-.2a4.2 4.2 0 002.4-1.1 5.4 5.4 0 001.4-2.7h.1a6.7 6.7 0 001.6 2.7 3.7 3.7 0 002.3 1.1c.1.1.1.2 0 .2a5.9 5.9 0 00-2.3 1.4 4.6 4.6 0 00-1.5 2.5h-.2a4.9 4.9 0 00-1.4-2.5 4.1 4.1 0 00-2.4-1.4z"/><circle class="cls-7" cx="213.8" cy="495.9" r="1.4"/><circle class="cls-7" cx="116.5" cy="491.2" r="1.4"/><circle class="cls-7" cx="22.7" cy="198.6" r="1.4"/><circle class="cls-7" cx="134.2" cy="252.7" r="1.4"/><circle class="cls-6" cx="290" cy="295.1" r="6.7"/><circle class="cls-6" cx="290" cy="295.1" r="7.9"/><circle class="cls-6" cx="290" cy="295.1" r="4.5"/><path class="cls-7" d="M285.3 295.1c-.1 0-.1-.1 0-.1a5.1 5.1 0 002.9-1.4 6.9 6.9 0 001.7-3.3c0-.1.1-.1.1 0a7.2 7.2 0 001.9 3.3 5.5 5.5 0 002.8 1.4c.1 0 .1.1.1.2a6.4 6.4 0 00-2.9 1.7 7.1 7.1 0 00-1.8 3c-.1.1-.2.1-.2 0a7.8 7.8 0 00-1.7-3 6 6 0 00-2.9-1.8z"/><circle class="cls-7" cx="13.3" cy="165.3" r="1.4"/><circle class="cls-6" cx="271" cy="192.6" r="11.1"/><circle class="cls-6" cx="271" cy="192.6" r="13.1"/><circle class="cls-6" cx="271" cy="192.6" r="7.4"/><path class="cls-7" d="M271.1 200.4h-.3a8.8 8.8 0 00-2.3-4.9 11.2 11.2 0 00-5.5-2.7c-.1-.1-.1-.3 0-.3a11.6 11.6 0 005.5-3 8.2 8.2 0 002.3-4.8h.3a12.9 12.9 0 002.9 4.8 12.3 12.3 0 004.9 3c.2 0 .1.2 0 .2a12 12 0 00-4.9 2.8 8.9 8.9 0 00-2.9 4.9z"/><circle class="cls-6" cx="42.8" cy="300.7" r="11.1"/><circle class="cls-6" cx="42.8" cy="300.7" r="13.1"/><circle class="cls-6" cx="42.8" cy="300.7" r="7.4"/><path class="cls-7" d="M42.9 308.6h-.3a8.3 8.3 0 00-2.2-4.9 11.4 11.4 0 00-5.5-2.8c-.2 0-.2-.2 0-.2a11.6 11.6 0 005.5-3.1 8.4 8.4 0 002.3-4.7h.2a11.9 11.9 0 002.9 4.7 10.6 10.6 0 005 3c.1.1.1.3 0 .3a11.7 11.7 0 00-5 2.8 10 10 0 00-2.9 4.9z"/><circle class="cls-6" cx="270.1" cy="264.2" r="5.6"/><circle class="cls-6" cx="270.1" cy="264.2" r="6.6"/><circle class="cls-6" cx="270.1" cy="264.2" r="3.7"/><path class="cls-7" d="M270.1 268.2h-.1a4.8 4.8 0 00-1.1-2.5 6.1 6.1 0 00-2.8-1.4 5.2 5.2 0 002.8-1.5 4.5 4.5 0 001.1-2.4.1.1 0 01.2 0 4.7 4.7 0 001.4 2.4 6.3 6.3 0 002.5 1.5 7.2 7.2 0 00-2.5 1.4 5.3 5.3 0 00-1.5 2.5z"/><circle class="cls-6" cx="69" cy="245.8" r="5.6"/><circle class="cls-6" cx="69" cy="245.8" r="6.6"/><circle class="cls-6" cx="69" cy="245.8" r="3.7"/><path class="cls-7" d="M69 249.8h-.1a4.8 4.8 0 00-1.1-2.5 6.1 6.1 0 00-2.8-1.4c-.1 0-.1-.1 0-.1a5.5 5.5 0 002.8-1.5 4.5 4.5 0 001.1-2.4h.1a6.1 6.1 0 001.5 2.4 6.3 6.3 0 002.5 1.5h-.1a7.9 7.9 0 00-2.4 1.4 5.3 5.3 0 00-1.5 2.6z"/><circle class="cls-6" cx="271" cy="120.9" r="5.6"/><circle class="cls-6" cx="271" cy="120.9" r="6.6"/><circle class="cls-6" cx="271" cy="120.9" r="3.7"/><path class="cls-7" d="M271 124.8c0 .1-.1.1-.1 0a4.2 4.2 0 00-1.1-2.4 5.3 5.3 0 00-2.8-1.4c-.1 0-.1-.1 0-.2a4.9 4.9 0 002.7-1.5 4.2 4.2 0 001.2-2.3h.1a5.5 5.5 0 001.5 2.4 6.8 6.8 0 002.4 1.5c.1 0 .1.1 0 .2a5.1 5.1 0 00-2.4 1.4 5.1 5.1 0 00-1.5 2.3z"/><circle class="cls-7" cx="147.3" cy="216.3" r="1.4"/><circle class="cls-7" cx="190" cy="165.3" r="1.4"/><circle class="cls-7" cx="96.9" cy="267.1" r="1.4"/><circle class="cls-7" cx="242.7" cy="151.7" r="1.4"/><circle class="cls-7" cx="332.9" cy="19.5" r="1.4"/><circle class="cls-7" cx="103.8" cy="186" r="1.4"/><circle class="cls-7" cx="69.5" cy="118" r="1.4"/><circle class="cls-6" cx="30.2" cy="97.4" r="11.1"/><circle class="cls-6" cx="30.2" cy="97.4" r="13.1"/><circle class="cls-6" cx="30.2" cy="97.4" r="7.4"/><path class="cls-7" d="M30.2 105.3c0 .1-.2.1-.2-.1a8.3 8.3 0 00-2.3-4.8 11.4 11.4 0 00-5.5-2.8c-.1 0-.1-.2 0-.2a11.1 11.1 0 005.5-3.1 8 8 0 002.3-4.7c0-.2.2-.2.3 0a12.2 12.2 0 002.8 4.7 11.5 11.5 0 005 3c.1.1.1.3 0 .3a12.9 12.9 0 00-5 2.8 10 10 0 00-2.9 4.9z"/><circle class="cls-6" cx="147.3" cy="295.1" r="11.1"/><circle class="cls-6" cx="147.3" cy="295.1" r="13.1"/><circle class="cls-6" cx="147.3" cy="295.1" r="7.4"/><path class="cls-7" d="M147.4 302.9c0 .2-.2.2-.2 0a8.3 8.3 0 00-2.3-4.8 11.4 11.4 0 00-5.5-2.8c-.1 0-.1-.2 0-.3a10.1 10.1 0 005.5-3 8.7 8.7 0 002.3-4.7c0-.2.2-.2.3-.1a10.7 10.7 0 002.8 4.8 12.6 12.6 0 005 3c.1 0 .1.2 0 .3a12.3 12.3 0 00-5 2.8 10.2 10.2 0 00-2.9 4.8z"/><circle class="cls-6" cx="263.5" cy="471.3" r="5.6"/><circle class="cls-6" cx="263.5" cy="471.3" r="6.6"/><circle class="cls-6" cx="263.5" cy="471.3" r="3.7"/><path class="cls-7" d="M263.6 475.2c0 .1-.1.1-.1 0a3.9 3.9 0 00-1.2-2.4 5.4 5.4 0 00-2.7-1.4c-.1 0-.1-.1 0-.1a6.1 6.1 0 002.7-1.6 4.2 4.2 0 001.2-2.3h.1a5.9 5.9 0 001.4 2.3 4.6 4.6 0 002.5 1.5c.1.1.1.2 0 .2a5.3 5.3 0 00-2.5 1.4 4.7 4.7 0 00-1.4 2.4z"/><circle class="cls-6" cx="77.5" cy="354.9" r="5.6"/><circle class="cls-6" cx="77.5" cy="354.9" r="6.6"/><circle class="cls-6" cx="77.5" cy="354.9" r="3.7"/><path class="cls-7" d="M77.5 358.9h-.1a4.1 4.1 0 00-1.2-2.4 6.3 6.3 0 00-2.7-1.4c-.1 0-.1-.1 0-.1a4.9 4.9 0 002.7-1.5 4.1 4.1 0 001.2-2.4c0-.1.1-.1.1 0a6.9 6.9 0 001.4 2.4 6.3 6.3 0 002.5 1.5c.1 0 .1.1 0 .1a9.5 9.5 0 00-2.5 1.4 4.9 4.9 0 00-1.4 2.4z"/><circle class="cls-7" cx="146.2" cy="436.9" r="1.4"/><circle class="cls-7" cx="324.8" cy="266.4" r="1.4"/><circle class="cls-7" cx="28.8" cy="63.7" r="1.4"/><circle class="cls-6" cx="257.9" cy="21.8" r="5.6"/><circle class="cls-6" cx="257.9" cy="21.8" r="6.6"/><circle class="cls-6" cx="257.9" cy="21.8" r="3.7"/><path class="cls-7" d="M253.9 21.9c0-.1 0-.2.1-.2a4.5 4.5 0 002.4-1.1 6.1 6.1 0 001.4-2.8h.1a5.2 5.2 0 001.5 2.8 3.9 3.9 0 002.4 1.1c.1.1.1.1 0 .2a6.9 6.9 0 00-2.4 1.4 6.3 6.3 0 00-1.5 2.5h-.1a7.2 7.2 0 00-1.4-2.5 4.3 4.3 0 00-2.5-1.4z"/><circle class="cls-7" cx="197.4" cy="26.4" r="1.4"/><circle class="cls-7" cx="47.8" cy="21.8" r="1.4"/><circle class="cls-6" cx="134.4" cy="69.6" r="5.6"/><circle class="cls-6" cx="134.4" cy="69.6" r="6.6"/><circle class="cls-6" cx="134.4" cy="69.6" r="3.7"/><path class="cls-7" d="M130.5 69.6c-.1 0-.1-.1 0-.1a4.2 4.2 0 002.4-1.1 5.3 5.3 0 001.4-2.8h.2a5.5 5.5 0 001.5 2.8 4.6 4.6 0 002.3 1.1h.1A5.5 5.5 0 00136 71a6.3 6.3 0 00-1.5 2.5h-.2a5.1 5.1 0 00-1.4-2.4 5.1 5.1 0 00-2.4-1.5z"/><circle class="cls-7" cx="213.8" cy="118" r="1.4"/><circle class="cls-7" cx="163" cy="103.9" r="1.4"/><circle class="cls-7" cx="122" cy="33.3" r="1.4"/><circle class="cls-7" cx="93.4" cy="82.4" r="1.4"/><circle class="cls-6" cx="273.5" cy="948.4" r="11.1"/><circle class="cls-6" cx="273.5" cy="948.4" r="13.1"/><circle class="cls-6" cx="273.5" cy="948.4" r="7.4"/><path class="cls-7" d="M273.5 956.2c0 .2-.2.1-.2 0a8.3 8.3 0 00-2.3-4.8 11 11 0 00-5.5-2.8c-.1-.1-.1-.3 0-.3a10.8 10.8 0 005.5-3 8.2 8.2 0 002.3-4.8c0-.1.2-.1.3 0a13 13 0 002.8 4.8 13.3 13.3 0 005 3c.1 0 .1.2 0 .2a13.5 13.5 0 00-5 2.9 10.2 10.2 0 00-2.9 4.8z"/><circle class="cls-6" cx="91.8" cy="1047.2" r="11.1"/><circle class="cls-6" cx="91.8" cy="1047.2" r="13.1"/><circle class="cls-6" cx="91.8" cy="1047.2" r="7.4"/><path class="cls-7" d="M91.9 1055h-.3a8.3 8.3 0 00-2.3-4.8 10.8 10.8 0 00-5.4-2.8c-.2-.1-.2-.3 0-.3a11.9 11.9 0 005.4-3 8.2 8.2 0 002.3-4.8h.3a12.9 12.9 0 002.9 4.8 13 13 0 004.9 3c.2 0 .2.2 0 .2a11.4 11.4 0 00-4.9 2.9 8.5 8.5 0 00-2.9 4.8z"/><circle class="cls-6" cx="272.6" cy="1020.1" r="5.6"/><circle class="cls-6" cx="272.6" cy="1020.1" r="6.6"/><circle class="cls-6" cx="272.6" cy="1020.1" r="3.7"/><path class="cls-7" d="M272.6 1024h-.1a4.2 4.2 0 00-1.1-2.4 5.3 5.3 0 00-2.8-1.4v-.2a5.5 5.5 0 002.8-1.5 4.5 4.5 0 001.1-2.4h.2a4.7 4.7 0 001.4 2.4 6.3 6.3 0 002.5 1.5 6.3 6.3 0 00-2.5 1.5 5.1 5.1 0 00-1.5 2.5z"/><circle class="cls-6" cx="117.9" cy="992.3" r="5.6"/><circle class="cls-6" cx="117.9" cy="992.3" r="6.6"/><circle class="cls-6" cx="117.9" cy="992.3" r="3.7"/><path class="cls-7" d="M118 996.2h-.1a3.9 3.9 0 00-1.2-2.4 5.4 5.4 0 00-2.7-1.4c-.1-.1-.1-.2 0-.2a4.9 4.9 0 002.7-1.5 4.1 4.1 0 001.2-2.4h.1a6.9 6.9 0 001.4 2.4 6.3 6.3 0 002.5 1.5c.1 0 .1.1 0 .1a7 7 0 00-2.5 1.5 4.7 4.7 0 00-1.4 2.4z"/><circle class="cls-6" cx="153.8" cy="935.3" r="5.6"/><circle class="cls-6" cx="153.8" cy="935.3" r="6.6"/><circle class="cls-6" cx="153.8" cy="935.3" r="3.7"/><path class="cls-7" d="M153.9 939.2h-.1a3.9 3.9 0 00-1.2-2.4 5.4 5.4 0 00-2.7-1.4c-.1-.1-.1-.2 0-.2a4.9 4.9 0 002.7-1.5 4.1 4.1 0 001.2-2.4h.1a6.1 6.1 0 001.4 2.4 6.3 6.3 0 002.5 1.5c.1 0 .1.1 0 .1a8 8 0 00-2.5 1.5 4.7 4.7 0 00-1.4 2.4z"/><circle class="cls-7" cx="214.4" cy="982.5" r="1.4"/><circle class="cls-7" cx="331.4" cy="777.6" r="1.4"/><circle class="cls-7" cx="145.9" cy="1013.5" r="1.4"/><circle class="cls-7" cx="245.2" cy="907.6" r="1.4"/><circle class="cls-7" cx="313.7" cy="829.4" r="1.4"/><circle class="cls-7" cx="106.3" cy="941.8" r="1.4"/><circle class="cls-7" cx="40.9" cy="831" r="1.4"/><circle class="cls-6" cx="112.8" cy="1148.2" r="11.1"/><circle class="cls-6" cx="112.8" cy="1148.2" r="13.1"/><circle class="cls-6" cx="112.8" cy="1148.2" r="7.4"/><path class="cls-7" d="M112.9 1156c-.1.2-.3.2-.3 0a8.3 8.3 0 00-2.3-4.8 10.7 10.7 0 00-5.5-2.8c-.1 0-.1-.2 0-.3a10.8 10.8 0 005.5-3 8.3 8.3 0 002.3-4.7c.1-.2.3-.2.3-.1a12.2 12.2 0 002.9 4.8 12.3 12.3 0 004.9 3c.2 0 .1.2 0 .2a12.5 12.5 0 00-4.9 2.9 8.8 8.8 0 00-2.9 4.8z"/><circle class="cls-6" cx="347.3" cy="922.3" r="11.1"/><circle class="cls-6" cx="347.3" cy="922.3" r="13.1"/><circle class="cls-6" cx="347.3" cy="922.3" r="7.4"/><path class="cls-7" d="M347.4 930.1c0 .1-.2.1-.3 0a7.5 7.5 0 00-2.2-4.8 11.4 11.4 0 00-5.5-2.8c-.1-.1-.1-.3 0-.3a12.1 12.1 0 005.5-3 8.9 8.9 0 002.3-4.8c0-.1.2-.1.3 0a11.2 11.2 0 002.8 4.8 12.6 12.6 0 005 3c.1 0 .1.2 0 .2a11.1 11.1 0 00-5 2.9 10.2 10.2 0 00-2.9 4.8z"/><circle class="cls-6" cx="361.6" cy="1003.5" r="5.6"/><circle class="cls-6" cx="361.6" cy="1003.5" r="6.6"/><circle class="cls-6" cx="361.6" cy="1003.5" r="3.7"/><path class="cls-7" d="M361.7 1007.4c-.1.1-.2.1-.2 0a4.2 4.2 0 00-1.1-2.4 5.3 5.3 0 00-2.8-1.4v-.2a5.2 5.2 0 002.8-1.5 3.9 3.9 0 001.1-2.3c.1-.1.2-.1.2 0a6.7 6.7 0 001.4 2.3 5.3 5.3 0 002.5 1.5c.1.1 0 .1 0 .2a4.9 4.9 0 00-2.5 1.4 4.1 4.1 0 00-1.4 2.4z"/><circle class="cls-6" cx="242.9" cy="1561.5" r="11.1"/><circle class="cls-6" cx="242.9" cy="1561.5" r="13.1"/><circle class="cls-6" cx="242.9" cy="1561.5" r="7.4"/><path class="cls-7" d="M243 1569.3c-.1.1-.3.1-.3 0a8.6 8.6 0 00-2.2-4.9 12.1 12.1 0 00-5.5-2.7c-.2-.1-.2-.3 0-.3a11.4 11.4 0 005.4-3 8.2 8.2 0 002.3-4.8h.3a12.9 12.9 0 002.9 4.8 13 13 0 004.9 3c.2 0 .2.2 0 .2a12 12 0 00-4.9 2.8 9.6 9.6 0 00-2.9 4.9z"/><circle class="cls-6" cx="64.8" cy="1893" r="11.1"/><circle class="cls-6" cx="64.8" cy="1893" r="13.1"/><circle class="cls-6" cx="64.8" cy="1893" r="7.4"/><path class="cls-7" d="M64.9 1900.8a.1.1 0 01-.3 0 8.1 8.1 0 00-2.2-4.8 11.4 11.4 0 00-5.5-2.8c-.2 0-.2-.2 0-.3a9.9 9.9 0 005.4-3 9.4 9.4 0 002.4-4.7c0-.2.2-.2.2-.1a12.2 12.2 0 002.9 4.8 12.6 12.6 0 005 3c.1 0 .1.2-.1.3a10.9 10.9 0 00-4.9 2.8 10.2 10.2 0 00-2.9 4.8z"/><circle class="cls-6" cx="245.6" cy="1865.9" r="5.6"/><circle class="cls-6" cx="245.6" cy="1865.9" r="6.6"/><circle class="cls-6" cx="245.6" cy="1865.9" r="3.7"/><path class="cls-7" d="M245.7 1869.8c-.1.1-.2.1-.2 0a4.2 4.2 0 00-1.1-2.4 5.3 5.3 0 00-2.8-1.4 6.3 6.3 0 002.8-1.6 3.9 3.9 0 001.1-2.3h.2a6.7 6.7 0 001.4 2.3 4.6 4.6 0 002.5 1.5.1.1 0 010 .2 4.9 4.9 0 00-2.5 1.4 4.1 4.1 0 00-1.4 2.3z"/><circle class="cls-6" cx="91" cy="1838.1" r="5.6"/><circle class="cls-6" cx="91" cy="1838.1" r="6.6"/><circle class="cls-6" cx="91" cy="1838.1" r="3.7"/><path class="cls-7" d="M91 1842h-.1a3.9 3.9 0 00-1.2-2.4 4.7 4.7 0 00-2.7-1.4c-.1 0-.1-.1 0-.1a6.1 6.1 0 002.7-1.6 4.2 4.2 0 001.2-2.3c0-.1.1-.1.1 0a5.9 5.9 0 001.5 2.3 5.1 5.1 0 002.4 1.5c.1.1.1.1 0 .2a5.1 5.1 0 00-2.4 1.4 4.4 4.4 0 00-1.5 2.4z"/><circle class="cls-6" cx="126.9" cy="1781.1" r="5.6"/><circle class="cls-6" cx="126.9" cy="1781.1" r="6.6"/><circle class="cls-6" cx="126.9" cy="1781.1" r="3.7"/><path class="cls-7" d="M126.9 1785h-.1a3.9 3.9 0 00-1.2-2.4 4.7 4.7 0 00-2.7-1.4c-.1 0-.1-.1 0-.1a6.1 6.1 0 002.7-1.6 4.2 4.2 0 001.2-2.3c0-.1.1-.1.1 0a5.2 5.2 0 001.5 2.3 4.7 4.7 0 002.4 1.5c.1.1.1.2 0 .2a5.1 5.1 0 00-2.4 1.4 4.4 4.4 0 00-1.5 2.4z"/><circle class="cls-7" cx="187.4" cy="1828.3" r="1.4"/><circle class="cls-7" cx="118.9" cy="1859.3" r="1.4"/><circle class="cls-7" cx="79.3" cy="1787.6" r="1.4"/><circle class="cls-7" cx="45" cy="1719.7" r="1.4"/><circle class="cls-6" cx="131.9" cy="1953.7" r="5.6"/><circle class="cls-6" cx="131.9" cy="1953.7" r="6.6"/><circle class="cls-6" cx="131.9" cy="1953.7" r="3.7"/><path class="cls-7" d="M132 1957.7h-.2a3.6 3.6 0 00-1.1-2.5 6.3 6.3 0 00-2.7-1.4c-.1 0-.1-.1 0-.1a4.9 4.9 0 002.7-1.5 4.1 4.1 0 001.2-2.4h.1a6.9 6.9 0 001.4 2.4 6.3 6.3 0 002.5 1.5c.1 0 .1.1 0 .1a7.2 7.2 0 00-2.5 1.4 4.9 4.9 0 00-1.4 2.5z"/><circle class="cls-7" cx="179.6" cy="1893" r="1.4"/><circle class="cls-7" cx="319.6" cy="1978.5" r="1.4"/><circle class="cls-7" cx="84.4" cy="1960.3" r="1.4"/><circle class="cls-7" cx="45" cy="1808.6" r="1.4"/><circle class="cls-6" cx="109.9" cy="1671.2" r="5.6"/><circle class="cls-6" cx="109.9" cy="1671.2" r="6.6"/><circle class="cls-6" cx="109.9" cy="1671.2" r="3.7"/><path class="cls-7" d="M106 1671.3v-.2a3.7 3.7 0 002.4-1.1 5.4 5.4 0 001.4-2.7h.2a4.9 4.9 0 001.5 2.7 4.8 4.8 0 002.4 1.2 6.1 6.1 0 00-2.4 1.4 6.3 6.3 0 00-1.5 2.5h-.1a6.3 6.3 0 00-1.5-2.5 4.7 4.7 0 00-2.4-1.3z"/><circle class="cls-7" cx="189.3" cy="1719.7" r="1.4"/><circle class="cls-7" cx="138.5" cy="1705.6" r="1.4"/><circle class="cls-7" cx="68.9" cy="1684" r="1.4"/><circle class="cls-6" cx="220.5" cy="1816" r="11.1"/><circle class="cls-6" cx="220.5" cy="1816" r="13.1"/><circle class="cls-6" cx="220.5" cy="1816" r="7.4"/><path class="cls-7" d="M220.5 1823.8c0 .2-.2.2-.2 0a8.3 8.3 0 00-2.3-4.8 11.4 11.4 0 00-5.5-2.8c-.1 0-.1-.2 0-.3a10.1 10.1 0 005.5-3 8.7 8.7 0 002.3-4.7c0-.2.2-.2.3-.1a10.7 10.7 0 002.8 4.8 12.6 12.6 0 005 3c.1 0 .1.2 0 .3a12.9 12.9 0 00-5 2.8 10.2 10.2 0 00-2.9 4.8z"/><circle class="cls-7" cx="283.2" cy="1442.5" r="1.4"/><circle class="cls-6" cx="229.8" cy="1390.7" r="5.6"/><circle class="cls-6" cx="229.8" cy="1390.7" r="6.6"/><circle class="cls-6" cx="229.8" cy="1390.7" r="3.7"/><path class="cls-7" d="M225.9 1390.7c-.1 0-.1-.1 0-.1a4.5 4.5 0 002.4-1.1 6.1 6.1 0 001.4-2.8h.1a5.2 5.2 0 001.5 2.8 4.1 4.1 0 002.4 1.1c.1 0 .1.1 0 .2a6.9 6.9 0 00-2.4 1.4 6.3 6.3 0 00-1.5 2.5h-.1a5.8 5.8 0 00-1.4-2.5 5.6 5.6 0 00-2.4-1.5z"/><circle class="cls-6" cx="261.9" cy="1286.1" r="6.7"/><circle class="cls-6" cx="261.9" cy="1286.1" r="7.9"/><circle class="cls-6" cx="261.9" cy="1286.1" r="4.5"/><path class="cls-7" d="M257.2 1286.2c-.1-.1-.1-.2 0-.2a4.5 4.5 0 002.9-1.4 6.5 6.5 0 001.7-3.3h.2a5.7 5.7 0 001.8 3.3 5.4 5.4 0 002.9 1.4s.1.2 0 .2a6.9 6.9 0 00-2.9 1.7 7.1 7.1 0 00-1.8 3h-.2a7.8 7.8 0 00-1.7-3 5 5 0 00-2.9-1.7z"/><circle class="cls-6" cx="258.2" cy="1135.3" r="11.1"/><circle class="cls-6" cx="258.2" cy="1135.3" r="13.1"/><circle class="cls-6" cx="258.2" cy="1135.3" r="7.4"/><path class="cls-7" d="M258.3 1143.1c-.1.1-.3.1-.3 0a8.8 8.8 0 00-2.3-4.9 11.4 11.4 0 00-5.4-2.7c-.2-.1-.2-.3 0-.3a11.9 11.9 0 005.4-3 8.2 8.2 0 002.3-4.8c.1-.1.3-.1.3 0a12.9 12.9 0 002.9 4.8 12.3 12.3 0 004.9 3c.2 0 .2.2 0 .2a12 12 0 00-4.9 2.8 8.9 8.9 0 00-2.9 4.9z"/><circle class="cls-6" cx="251.6" cy="1214.5" r="5.6"/><circle class="cls-6" cx="251.6" cy="1214.5" r="6.6"/><circle class="cls-6" cx="251.6" cy="1214.5" r="3.7"/><path class="cls-7" d="M251.7 1218.4h-.2a3.7 3.7 0 00-1.1-2.4 6.3 6.3 0 00-2.7-1.4c-.1 0-.1-.1 0-.1a6.1 6.1 0 002.7-1.6 4.6 4.6 0 001.2-2.3h.1a5.9 5.9 0 001.4 2.3 5.7 5.7 0 002.5 1.6c.1 0 .1.1 0 .1a4.9 4.9 0 00-2.5 1.4 4.7 4.7 0 00-1.4 2.4z"/><circle class="cls-6" cx="158.9" cy="1107.9" r="5.6"/><circle class="cls-6" cx="158.9" cy="1107.9" r="6.6"/><circle class="cls-6" cx="158.9" cy="1107.9" r="3.7"/><path class="cls-7" d="M159 1111.8c-.1.1-.2.1-.2 0a3.9 3.9 0 00-1.1-2.4 6.3 6.3 0 00-2.7-1.4c-.1 0-.1-.1 0-.1a5.7 5.7 0 002.7-1.5 4.1 4.1 0 001.1-2.4h.2a6.9 6.9 0 001.4 2.4 6.3 6.3 0 002.5 1.5c.1 0 .1.1 0 .1a5.8 5.8 0 00-2.5 1.4 5.1 5.1 0 00-1.4 2.4z"/><circle class="cls-7" cx="151" cy="1186.1" r="1.4"/><circle class="cls-7" cx="334.2" cy="891" r="1.4"/><circle class="cls-7" cx="111.4" cy="1114.5" r="1.4"/><ellipse class="cls-8" cx="310.4" cy="374.7" rx="63.2" ry="18.5" transform="rotate(-44.4 309.851 374.424)"/><ellipse class="cls-8" cx="305.8" cy="379.9" rx="85.3" ry="25" transform="rotate(-44.4 305.318 379.578)"/><ellipse class="cls-8" cx="306.7" cy="378.3" rx="29" ry="8.5" transform="rotate(-44.4 306.213 378.085)"/><ellipse class="cls-9" cx="306.7" cy="378.3" rx="14.5" ry="4.3" transform="rotate(-44.4 306.213 378.085)"/><g clip-path="url(#clip-path-2)"><path class="cls-11" d="M329.9 345c-16.3 6.2-41.2 26.3-50.5 44.5-4.4 8.9-4.4 15.4 1.9 16s13.7-3.3 22.5-11.1c-11.7 5.5-25.9 10.9-19.8-2.6 3.3-8.2 11.7-18.2 21.7-25.9 12.6-9.5 23.4-13.2 27.8-9.4s-1.2 17.2-13.1 30.3-29.1 26-40.8 29.5c-17.9 5.3-20.6-8.9-6.5-30 15.3-22.9 44.3-47.7 65.3-55.7 27.3-10.1 33 9.1 11.3 39.5-18.5 26.1-49.9 53-74.6 63.5-30.8 13-39.3-3.8-23.4-33.1"/><path class="cls-11" d="M302.4 361c-18 15.7-31.4 36.2-27.4 43.9 2 4.1 8.2 4.3 17.5-.9s21.9-16.3 27.8-26.3c3.1-5.5 2.4-9.1-1.3-9.2l-2.8.7c-3 1.6-7.9 5.6-8 7.5-.5 4 8.4 1.2 1.4 9.3-10.5 11.6-23.2 16.2-24.4 10s11.5-21.5 24.1-30.7c18-13.3 28.1-9.9 22.5 3.5s-25.7 33.4-42.4 42.6c-11.6 6.2-19.7 6.8-23.3 2.8s-2-10.5 2.4-19.4c7.8-15.5 24.4-33.8 42.7-47.6s33.3-19.4 42.6-17.7 10.3 12.9 1.5 29.5c-11.1 21.4-34.7 46.2-59.1 62.4-37.2 24.6-60.1 18.6-49-10.2"/><path class="cls-11" d="M300.7 362.9c-8.7 8.3-16.5 17.3-21.1 25.5-6.2 10.4-5.3 17.1.3 18.6 7.8 2.1 28.9-12.4 37.9-27.1 2.2-3.7 3.6-7.1 2.5-8.7s-4.7-1.1-9.4 2.5c3.9-1.4 5.7-.4 5.1 2.8-1.1 4.9-7.8 12.9-15.1 17.9-12.4 8.4-19.7 6.5-15.8-3 2.9-6.5 9.9-15.3 18-22.1 11.3-9.6 22.6-14.9 27.9-12.9s2.5 12.7-6.3 24.7a112.9 112.9 0 01-26.1 24.7c-20 13.8-33.8 14.5-34.3 3.6-.3-12.6 14.1-33.7 35.1-52.9s43.9-30.7 55-28.3 10.5 16.3-1 35.5c-7.8 12.9-19.2 26.3-33.3 38.9-28 25.3-56.6 38.8-69.1 33.8s-7.5-24.1 7.8-46.9"/><path class="cls-11" d="M288.6 374.1c-13.3 15.4-19 30.8-11.4 33.7s22-5.2 35-18.7c5.1-5.6 8.6-10.8 10.6-15.6 2.7-7.2-3.4-9.4-14-.3s-1.9 9.6-3.9 14.4-13.2 10.1-16 8.6.6-10.1 7.3-18.1a77.6 77.6 0 0116.1-14.3c11.7-7.8 18.7-7.4 20.2-2.1s-6.5 17.9-16 28.1c-13.7 14.5-30.6 24.8-41.1 26.1-12.1 1-13-10.2-3.4-26.6 10.9-18.3 32.8-39.2 52-50.5 28.4-17 44.5-9.9 34.3 14-11.2 25.6-46.3 61.2-75.5 76-17.5 9-30.5 10.3-35.5 3.2-6.4-9.8 1.9-30.8 21.1-54.9"/><path class="cls-11" d="M285.6 418.5c14.7-7.8 30.3-20.9 43.1-35.8 21.1-24.9 20.3-43.9-1.8-35.2-13 5.1-33.4 21-39.5 34.5 8.9-9.7 19.5-18.7 29.1-24.4s17.7-6.3 19.4-1.4-1.8 13.9-9.4 24c-13.1 17.3-34 32.6-48 36.8-18.3 5.3-19.6-10-6.2-30.5 17.2-26.1 53.2-54.7 73.8-58.7 12.6-2.7 19.3 2 17.5 14-3 18.8-26.2 47.7-52.9 69.5-15.6 12.7-30.7 21.8-42.9 25.3"/><path class="cls-11" d="M342.6 363.5c6.4-14.3 2.7-22.9-11-19.2-15.2 4.2-40.1 24.4-50.9 43-6.8 11.8-6.1 20 3.5 18.6s29.7-16.5 34.7-29c-7.7 11.3-23.4 23.6-31.6 23.9-5.3-.1-6.1-4.4-1.5-12.2a84.5 84.5 0 0119.7-21.8c16.1-12.5 29.9-15.4 29-4.9s-12.8 25.3-27.6 37.8c-19.6 16.1-36.9 21.9-41.7 14.4s.9-19 11.7-33.4c18.3-24.6 49.6-48 68.2-51.9 11.7-2.8 17.5 1.7 17.7 10.9-.7 18.2-27.1 52.2-55.7 74.1"/><path class="cls-11" d="M339.2 369.1c6.5-11 7.6-18.5 3.8-22.9s-16.2-1.3-30.4 8.3c-18.1 12.6-34.9 32.5-35.9 44.2-.6 7.8 7.3 8.4 18.9 2.2-12.9 5.8-17.6-1.8-8.7-15.3 7-10.7 19.9-22.6 30.8-27.9 13.2-6.3 20.4-2.9 16 8.7-3.6 9-12 20.5-23.6 30.9-17.9 16-35.8 23.5-42.7 19.3-9.7-5.4 1-29 21.9-50.8 13-13.5 27.4-24.3 40.8-31.4 26.9-13.8 39.8-4.7 29.2 19.3-12.4 27.8-52.7 66-82.1 78.9"/><path class="cls-11" d="M345.6 345.1c-4.5-7.2-23.8-.4-43.2 16.4-12.6 11.1-23.3 24.3-26.7 34.1-2.6 7.9-.2 12.2 6.8 11.9 8.8-.9 26.2-13.3 34.8-26 5.2-7.5 5.6-13.7-1.7-11.4-2 .6-6.2 4-5.7 4.7 1.3 2.3 4.7 2.9 1.2 8.4-5 8.3-15.2 14.9-21.2 16.1-3.9.7-5.5-1.1-5.4-4.6 1.1-7.2 10.1-18.1 20.4-26.6 15.3-12.6 28-14.9 28.7-6.7.4 6.4-6.1 17.4-15.6 27.6-13.7 14.5-30.6 25.2-41.6 27.4-18.3 3.5-14.8-17 5.2-41.2 11.7-13.9 25.8-26.6 39.7-35.3 16.9-10.4 31.7-14.8 37.7-9.1s1.8 22.1-10.8 40.1-32.6 37.9-51.9 50.4"/><path class="cls-11" d="M288.7 360.9c-23.4 23.3-37 48.8-32.1 59.7 3.9 7.4 16.7 5.8 33.1-3.2 19.6-11.1 40.7-32.1 52-50.5s7.8-27.8-5.7-25.3c-11.5 2-29.8 13.9-44.1 29.2-11.9 12.9-20 26.5-18.3 33.4 1.4 4.9 7.6 5.5 17.1 1.1s22-15.6 28.7-25.9c3.8-6 4.8-11.2 1-11.7s-10.8 5.6-14.3 10.8 2.4 2 3.2 3.7-7.1 10.4-11.9 13.2c-9.6 5.7-12.2.6-9.1-6.7s12.7-17.3 22.1-24c17-12.3 25.9-8.6 21.3 3.7s-23.1 31.6-39 40.9c-9.3 5.2-16.7 7.2-21.8 6.3-8.2-2-7.1-13.4 1.7-27.6"/><path class="cls-11" d="M307.7 343.4c-20.8 16.5-39.3 38-48.2 55.8-7.4 15-6.3 25.1 2.7 27.2 13.3 2.9 42.9-14.3 64.9-38.7 16.7-18.3 26.2-37 21.1-44.8-6.4-9.8-35.4 4.2-57.5 28.3-13.6 14.8-21 29.8-16.5 35.9s15.5 1.5 29-9.4c9.9-8.1 18.7-18.2 21.3-25.8s-3.1-7.9-11.9-2.5c-5.9 3.6-10.7 10.6-15.8 16.2a22.7 22.7 0 01-4.3 3.5c-.2-5.3 9.6-16.4 19-23.2s17.2-8.5 19.3-4.5c3.4 7.5-10.5 27-27.7 40.1-11.9 9-22.1 13.7-29.4 13.7s-10.1-7.6-4.6-19.4c7.9-16.7 27-37.2 46.5-51.2"/><path class="cls-11" d="M271.9 379.8c-20.1 26.1-22.4 46.6-4.8 46.1 10.1-.9 24.4-7.5 40.1-20.1s32.1-31.8 38.5-45.8c9-19.3-3.2-25.1-25-12.7a133.2 133.2 0 00-28.9 23.2c-10.9 11.8-18.1 23.7-18.6 31.5-1 11.7 16 8.6 35.6-9.3 12.6-11.5 19.5-24.9 12-25.5-3.4-.2-11.3 3.4-14.6 9.7-1.5 2.7-1.9 5.1-3.1 7.7s-6.5 6.8-9.2 7.5-4.5-2.2-1.8-7.1c4.7-7.8 13.7-16.4 22.2-21.8 6.6-4.1 11.6-5.4 14.7-4.4 5.7 1.9 2.3 12-6.2 23.2s-23.1 23.5-35.1 29.4c-14.6 7.1-22.9 4.7-21.7-6 2.1-15.1 21.6-39.5 43.7-56.7"/><path class="cls-11" d="M319 334.8a237.2 237.2 0 00-38.5 34.5c-19.6 22.2-31.3 44.9-24.2 53.7 8.4 11.9 43.7-5.3 71.2-35.4 20.7-22.9 29.1-45.5 16.3-48.1-6.8-1.2-17.3 2-30.7 11.4s-26.9 22.6-34.7 35.1c-5.7 9.2-7.6 16.2-5.5 20.7 3.6 6.2 18.3 1.5 34.5-12.9 13.7-12.1 19.5-24.4 19-31.6 5.2 1.3 2.3 10.1-4.9 19.7a104 104 0 01-22.5 21.9c-24.6 17.4-38.4 11.9-29.7-7.3s34.4-45.7 56.7-57.9c15.6-8.5 27.7-9.8 32.2-4.1"/><path class="cls-11" d="M355.7 370.9c19.8-27 22-47.5 8.5-51.5-15.3-4.7-51.5 16.3-79.5 46.1-22.9 24.2-34.5 49.2-25.6 57.2 5.3 4.3 16.4 2 30.1-5.6s31-22.6 43-37.3 17.4-29.6 11.8-35c-7.1-7.3-33.4 6-52.7 27.3-9.1 10.2-15.7 20.8-16.4 27.9s6 9.8 18.1 2.7c8.9-5.1 19.9-14.6 25.9-23.9 1.6-2.3 0-2.3-.9-2.4s-2.9 1.9-3.9 3c-6.9 7.2-14.4 15.4-21.2 18.4-8.7 3.9-10.9-1.3-6-9.9 8.1-13.7 26.3-28.2 37.2-31.2s12.8 6.9 3.4 20.8"/><path class="cls-11" d="M365.8 355.7c13.8-24.8 9.8-41.3-10.8-37.3-13.1 2.5-30.6 11.8-49.1 26.8-25.9 21.2-47.4 48.9-50.5 67s13.4 18.2 37.3 3.6c21.7-13.2 44.6-37.4 52.6-55.6 6.2-14.8.6-22.8-15.2-17-13.7 5.3-30.6 17.9-43.6 33.7s-16.3 28.6-8.9 31.1 22-5.5 34.9-19.4c8.9-9.7 13.4-20.1 7.2-20.7-3.7.2-10.8 3.7-14.9 10.2s3 3 3.2 6-2.5 4.5-5.3 6.8c-8.9 7.4-15.3 8-15.1 2.6.5-8.2 13.5-21.7 25.2-29.5s18.2-7.6 19.3-2.2-3.8 14.8-12.6 25"/><path class="cls-11" d="M373 337.1c6.2-25.2-21.8-25.7-59.2 2.1-18.3 13.8-35.6 31.1-46.7 48-15 22.4-16.2 40 .8 38.4s49.1-24.4 67.4-48.9c13.4-18.2 16.2-33.6 5.3-34.8-5.4-.4-13.1 2.4-22 7.5-13.3 7.8-28.3 21.9-36.9 34.6s-10.1 24.9.8 23.5c6-.9 13.8-4.9 22.7-12.3 7-6.1 13.1-13.1 15.7-18.8s.9-10.2-6.6-6.3c-3.7 2.2-8.8 7.4-7.4 8.5s6.5 4-2.2 11.8-16.3 9.7-17.8 5.9 4.7-14.3 12.9-22.6c12.8-12.7 27.1-19.3 31.3-14.7s-4.4 20-16.3 33.1"/><path class="cls-11" d="M371.6 343.7c9.6-25.5-7.6-33.8-38.8-16.9-21.6 11.6-46.2 33.6-62.6 55.3-11.1 14.9-16.4 27.8-15.6 36.4 2 12.9 21.2 10 46.5-8 31.5-22.4 56.2-58.6 46.1-68.5-6.4-5.5-24 1.2-42.5 16.2s-31.8 33.9-31.8 44.6c.3 7.6 7.8 8.6 20.1 1.8s30-23.8 31.7-34.2c.2-3.2-1-5.1-4.5-4.2-9.2 1.4-16 15.1-22.7 23-3.1 3.6-7.4 2.4-6.3-.5 3.5-9.8 18.8-24.3 29.5-28.4 8-2.9 11.9-.1 9.9 6.9s-7.7 15.5-15.9 23.9c-13.5 13.6-29.7 23-39.7 24.6"/></g><ellipse cx="306.6" cy="379.1" rx="74.7" ry="21.9" transform="rotate(-44.4 306.159 378.92)" fill="url(#radial-gradient-3)"/><circle class="cls-6" cx="217.6" cy="329.2" r="5.6"/><circle class="cls-6" cx="217.6" cy="329.2" r="6.6"/><circle class="cls-6" cx="217.6" cy="329.2" r="3.7"/><path class="cls-7" d="M221.6 329a4.5 4.5 0 00-2.4 1.2 5.6 5.6 0 00-1.3 2.8h-.1a5.4 5.4 0 00-1.7-2.6 4.5 4.5 0 00-2.4-1.1 5.6 5.6 0 002.3-1.6 4.9 4.9 0 001.4-2.5h.2a4.7 4.7 0 001.5 2.4 4.3 4.3 0 002.5 1.4z"/><circle class="cls-7" cx="296.1" cy="334.2" r="1.4"/><circle class="cls-7" cx="226" cy="376.4" r="1.4"/><circle class="cls-6" cx="94.2" cy="603.2" r="11.1"/><circle class="cls-6" cx="94.2" cy="603.2" r="13.1"/><circle class="cls-6" cx="94.2" cy="603.2" r="7.4"/><path class="cls-7" d="M86.4 603.2c-.1 0-.1-.2 0-.2a8.8 8.8 0 004.9-2.3 12.1 12.1 0 002.7-5.5c.1-.1.3-.1.3 0a11.6 11.6 0 003 5.5 8.2 8.2 0 004.8 2.3c.1 0 .1.2 0 .3a11.2 11.2 0 00-4.8 2.8 12.6 12.6 0 00-3 5c0 .1-.2.1-.2 0a12.9 12.9 0 00-2.8-5 10.4 10.4 0 00-4.9-2.9z"/><circle class="cls-6" cx="260.4" cy="777.6" r="5.6"/><circle class="cls-6" cx="260.4" cy="777.6" r="6.6"/><circle class="cls-6" cx="260.4" cy="777.6" r="3.7"/><path class="cls-7" d="M256.4 777.7v-.2a4.1 4.1 0 002.5-1.1 7.8 7.8 0 001.4-2.7c0-.1.1-.1.1 0a4.9 4.9 0 001.5 2.7 4.8 4.8 0 002.4 1.2 6.9 6.9 0 00-2.4 1.4 6.3 6.3 0 00-1.5 2.5c0 .1-.1.1-.1 0a7.2 7.2 0 00-1.4-2.5 4.9 4.9 0 00-2.5-1.3z"/><circle class="cls-7" cx="193.6" cy="802.3" r="1.4"/><circle class="cls-7" cx="160.1" cy="692.8" r="1.4"/><circle class="cls-6" cx="136.9" cy="825.4" r="5.6"/><circle class="cls-6" cx="136.9" cy="825.4" r="6.6"/><circle class="cls-6" cx="136.9" cy="825.4" r="3.7"/><path class="cls-7" d="M133 825.4c-.1 0-.1-.1 0-.1a4.2 4.2 0 002.4-1.1 5.3 5.3 0 001.4-2.8h.2a5.2 5.2 0 001.5 2.8 4.6 4.6 0 002.3 1.1c.1 0 .1.1 0 .2a4.5 4.5 0 00-2.3 1.4 5.3 5.3 0 00-1.5 2.5h-.2a4.9 4.9 0 00-1.4-2.5 5.1 5.1 0 00-2.4-1.5z"/><circle class="cls-7" cx="216.3" cy="873.8" r="1.4"/><circle class="cls-7" cx="165.5" cy="859.7" r="1.4"/><circle class="cls-7" cx="124.5" cy="789.2" r="1.4"/><circle class="cls-7" cx="207" cy="730" r="1.4"/><circle class="cls-6" cx="68.2" cy="746.8" r="5.6"/><circle class="cls-6" cx="68.2" cy="746.8" r="6.6"/><circle class="cls-6" cx="68.2" cy="746.8" r="3.7"/><path class="cls-7" d="M64.3 746.9c-.1-.1-.1-.2 0-.2a3.7 3.7 0 002.4-1.1 5.4 5.4 0 001.4-2.7c0-.1.1-.1.2 0a4.9 4.9 0 001.5 2.7 5 5 0 002.3 1.2c.1 0 .1.1 0 .1a6.7 6.7 0 00-2.3 1.4 6.3 6.3 0 00-1.5 2.5c0 .1-.1.1-.2 0a4.9 4.9 0 00-1.4-2.5 4.7 4.7 0 00-2.4-1.4z"/><circle class="cls-6" cx="292.5" cy="673" r="6.7"/><circle class="cls-6" cx="292.5" cy="673" r="7.9"/><circle class="cls-6" cx="292.5" cy="673" r="4.5"/><path class="cls-7" d="M287.8 673.1c-.1-.1-.1-.2 0-.2a4.5 4.5 0 002.9-1.4 6.5 6.5 0 001.7-3.3c0-.1.1-.1.1 0a6.7 6.7 0 001.9 3.3 4.8 4.8 0 002.8 1.4c.1 0 .1.2 0 .2a6.7 6.7 0 00-2.8 1.7 7.1 7.1 0 00-1.8 3c-.1.1-.2.1-.2 0a7.8 7.8 0 00-1.7-3 5.6 5.6 0 00-2.9-1.7z"/><circle class="cls-7" cx="95.9" cy="838.2" r="1.4"/><circle class="cls-7" cx="11.1" cy="597.7" r="1.4"/><circle class="cls-6" cx="317.2" cy="68.3" r="5.6"/><circle class="cls-6" cx="317.2" cy="68.3" r="6.6"/><circle class="cls-6" cx="317.2" cy="68.3" r="3.7"/><path class="cls-7" d="M317.3 72.2h-.2a3.4 3.4 0 00-1.1-2.4 6.3 6.3 0 00-2.7-1.4c-.1 0-.1-.1 0-.1a4.9 4.9 0 002.7-1.5 4.1 4.1 0 001.2-2.4c0-.1.1-.1.1 0a6.9 6.9 0 001.4 2.4 6.3 6.3 0 002.5 1.5c.1 0 .1.1 0 .1a7.2 7.2 0 00-2.5 1.4 5.1 5.1 0 00-1.4 2.4z"/><circle class="cls-7" cx="190.5" cy="61.8" r="1.4"/><circle class="cls-6" cx="326.2" cy="485.8" r="11.1"/><circle class="cls-6" cx="326.2" cy="485.8" r="13.1"/><circle class="cls-6" cx="326.2" cy="485.8" r="7.4"/><path class="cls-7" d="M326.3 493.7c0 .1-.2.1-.2 0a8.6 8.6 0 00-2.3-4.9 11.4 11.4 0 00-5.5-2.8c-.1 0-.1-.2 0-.2a11.1 11.1 0 005.5-3.1 8.4 8.4 0 002.3-4.7c0-.1.2-.2.3 0a11.6 11.6 0 007.8 7.7c.1.1.1.3 0 .3a12.3 12.3 0 00-5 2.8 10 10 0 00-2.9 4.9z"/><circle class="cls-6" cx="90.6" cy="664.7" r="11.1"/><circle class="cls-6" cx="90.6" cy="664.7" r="13.1"/><circle class="cls-6" cx="90.6" cy="664.7" r="7.4"/><path class="cls-7" d="M90.6 672.5c0 .1-.2.1-.2 0a8.3 8.3 0 00-2.3-4.8 11 11 0 00-5.5-2.8c-.1-.1-.1-.3 0-.3a11.6 11.6 0 005.5-3 8.2 8.2 0 002.3-4.8h.3a12.4 12.4 0 002.8 4.8 13.3 13.3 0 005 3c.1 0 .1.2 0 .2a13.5 13.5 0 00-5 2.9 10.2 10.2 0 00-2.9 4.8z"/><circle class="cls-6" cx="325.4" cy="557.5" r="5.6"/><circle class="cls-6" cx="325.4" cy="557.5" r="6.6"/><circle class="cls-6" cx="325.4" cy="557.5" r="3.7"/><path class="cls-7" d="M325.4 561.4c0 .1-.1.1-.1 0a4.1 4.1 0 00-1.2-2.4 5.4 5.4 0 00-2.7-1.4c-.1 0-.1-.1 0-.1a4.9 4.9 0 002.7-1.5 4.1 4.1 0 001.2-2.4c0-.1.1-.1.1 0a6.3 6.3 0 003.9 3.9c.1 0 .1.1 0 .1a6.2 6.2 0 00-2.4 1.4 4.7 4.7 0 00-1.5 2.4z"/><circle class="cls-6" cx="170.7" cy="529.7" r="5.6"/><circle class="cls-6" cx="170.7" cy="529.7" r="6.6"/><circle class="cls-6" cx="170.7" cy="529.7" r="3.7"/><path class="cls-7" d="M170.8 533.6c-.1.1-.2.1-.2 0a3.9 3.9 0 00-1.1-2.4 6.3 6.3 0 00-2.7-1.4c-.1 0-.1-.1 0-.1a5.7 5.7 0 002.7-1.5 5.3 5.3 0 001.2-2.4h.1a6.9 6.9 0 001.4 2.4 6.3 6.3 0 002.5 1.5c.1 0 .1.1 0 .1a5.8 5.8 0 00-2.5 1.4 5.1 5.1 0 00-1.4 2.4z"/><circle class="cls-6" cx="206.6" cy="472.7" r="5.6"/><circle class="cls-6" cx="206.6" cy="472.7" r="6.6"/><circle class="cls-6" cx="206.6" cy="472.7" r="3.7"/><path class="cls-7" d="M206.7 476.6h-.2a3.9 3.9 0 00-1.1-2.4 6.3 6.3 0 00-2.7-1.4c-.1 0-.1-.1 0-.1a4.9 4.9 0 002.7-1.5 4.8 4.8 0 001.2-2.4c0-.1.1-.1.1 0a6.9 6.9 0 001.4 2.4 6.3 6.3 0 002.5 1.5c.1 0 .1.1 0 .1a7.2 7.2 0 00-2.5 1.4 5.1 5.1 0 00-1.4 2.4z"/><circle class="cls-7" cx="267.2" cy="520" r="1.4"/><circle class="cls-6" cx="344" cy="150.1" r="11.1"/><circle class="cls-6" cx="344" cy="150.1" r="13.1"/><circle class="cls-6" cx="344" cy="150.1" r="7.4"/><path class="cls-7" d="M344.1 158h-.3a8.3 8.3 0 00-2.2-4.9 11.4 11.4 0 00-5.5-2.8c-.2 0-.2-.2 0-.2a10.9 10.9 0 005.4-3.1 7.8 7.8 0 002.3-4.7c.1-.1.3-.2.3 0a11.9 11.9 0 002.9 4.7 10.8 10.8 0 004.9 3c.2.1.2.3 0 .3a12 12 0 00-4.9 2.8 9.3 9.3 0 00-2.9 4.9z"/><circle class="cls-6" cx="343.1" cy="221.8" r="5.6"/><circle class="cls-6" cx="343.1" cy="221.8" r="6.6"/><circle class="cls-6" cx="343.1" cy="221.8" r="3.7"/><path class="cls-7" d="M343.2 225.7c-.1.1-.2.1-.2 0a4.5 4.5 0 00-1.1-2.4 6.3 6.3 0 00-2.7-1.4c-.1 0-.1-.1 0-.1a6.2 6.2 0 002.7-1.5 4.1 4.1 0 001.1-2.4h.2a6.9 6.9 0 001.4 2.4 6.3 6.3 0 002.5 1.5c.1 0 .1.1 0 .1a5.8 5.8 0 00-2.5 1.4 4.4 4.4 0 00-1.4 2.4z"/><circle class="cls-6" cx="225.8" cy="81" r="5.6"/><circle class="cls-6" cx="225.8" cy="81" r="6.6"/><circle class="cls-6" cx="225.8" cy="81" r="3.7"/><path class="cls-7" d="M225.9 84.9h-.2a3.2 3.2 0 00-1.1-2.4 5.4 5.4 0 00-2.7-1.4c-.1-.1-.1-.2 0-.2a4.9 4.9 0 002.7-1.5 4.1 4.1 0 001.2-2.4h.1a6.1 6.1 0 001.4 2.4 6.3 6.3 0 002.5 1.5c.1 0 .1.1 0 .1a6.3 6.3 0 00-2.5 1.5 4.7 4.7 0 00-1.4 2.4z"/><circle class="cls-7" cx="340.2" cy="99.6" r="1.4"/><circle class="cls-7" cx="198.7" cy="551" r="1.4"/><circle class="cls-7" cx="146.2" cy="583.6" r="1.4"/><circle class="cls-7" cx="298" cy="445" r="1.4"/><circle class="cls-7" cx="109.2" cy="670.3" r="1.4"/><circle class="cls-7" cx="44.6" cy="116.3" r="1.4"/><circle class="cls-6" cx="313.1" cy="315.1" r="5.6"/><circle class="cls-6" cx="313.1" cy="315.1" r="6.6"/><circle class="cls-6" cx="313.1" cy="315.1" r="3.7"/><path class="cls-7" d="M309.2 315.1c-.1 0-.1-.1 0-.1a4.2 4.2 0 002.4-1.1 5.3 5.3 0 001.4-2.8h.2a5.5 5.5 0 001.5 2.8 4.6 4.6 0 002.3 1.1c.1 0 .1.1.1.2a4.4 4.4 0 00-2.4 1.4 6.3 6.3 0 00-1.5 2.5h-.2a4.9 4.9 0 00-1.4-2.5 5.1 5.1 0 00-2.4-1.5z"/><circle class="cls-7" cx="246.4" cy="339.8" r="1.4"/><circle class="cls-7" cx="215.4" cy="271.3" r="1.4"/><circle class="cls-6" cx="189.7" cy="362.9" r="5.6"/><circle class="cls-6" cx="189.7" cy="362.9" r="6.6"/><circle class="cls-6" cx="189.7" cy="362.9" r="3.7"/><path class="cls-7" d="M185.8 362.9c-.1 0-.1-.1 0-.1a4.1 4.1 0 002.4-1.2 5.8 5.8 0 001.4-2.7h.1a6.8 6.8 0 001.5 2.7 4.4 4.4 0 002.4 1.2c.1 0 .1.1 0 .1a6.3 6.3 0 00-3.9 3.9h-.1a5.1 5.1 0 00-1.4-2.4 4.7 4.7 0 00-2.4-1.5z"/><circle class="cls-7" cx="157.6" cy="479.3" r="1.4"/><circle class="cls-7" cx="218.3" cy="397.2" r="1.4"/><circle class="cls-7" cx="177.3" cy="326.6" r="1.4"/><circle class="cls-7" cx="287.1" cy="231.7" r="1.4"/><circle class="cls-6" cx="112.3" cy="218.1" r="5.6"/><circle class="cls-6" cx="112.3" cy="218.1" r="6.6"/><circle class="cls-6" cx="112.3" cy="218.1" r="3.7"/><path class="cls-7" d="M108.3 218.1h.1a4.5 4.5 0 002.4-1.1 6.1 6.1 0 001.4-2.8h.1a5.2 5.2 0 001.5 2.8 4.5 4.5 0 002.4 1.1c.1 0 .1.1 0 .2a4.7 4.7 0 00-2.4 1.4 6.3 6.3 0 00-1.5 2.5h-.1a7.2 7.2 0 00-1.4-2.5 5.3 5.3 0 00-2.5-1.6z"/><circle class="cls-7" cx="102.2" cy="385" r="1.4"/><circle class="cls-7" cx="68" cy="246.1" r="1.4"/><path d="M219.5 1043.5l-73.3-75.4a4.8 4.8 0 01-2-4c0-2.6 1.7-4.6 3.9-4.6a3.8 3.8 0 013.2 2l69.6 79.9z" fill="url(#linear-gradient-4)"/><path d="M129.8 854.2l-81.6-70.8a4.5 4.5 0 01-2.2-3.8 4.3 4.3 0 014.3-4.3 4.5 4.5 0 013.6 1.9l77.5 75.1z" fill="url(#linear-gradient-5)"/><path d="M308 741L174.3 624.9a7.4 7.4 0 01-3.6-6.2 7.1 7.1 0 0113-4l126.9 123.2z" fill="url(#linear-gradient-6)"/><path d="M259.1 266.1L63.2 95.9a10.6 10.6 0 01-5.3-9.1 10.5 10.5 0 0110.4-10.4 10.2 10.2 0 018.6 4.6h.1l186 180.5z" fill="url(#linear-gradient-7)"/></svg>