<svg id="Layer_1" data-name="Layer 1" xmlns="http://www.w3.org/2000/svg" viewBox="0 0 289 181"><defs><style>.cls-3{fill:#184186}</style></defs><path d="M146.8 157.7c0-7.4 2.3-13.4 5.2-13.4s3.8 3.1 4.7 7.6c3.7-6 6.1-15.4 6.1-25.9 0-18.2-7.2-32.9-16-32.9s-16.1 14.7-16.1 32.9 7.2 33 16.1 33z" fill="#eacc34"/><path d="M148 107.3c-5.7 0-10.3 7.1-10.3 15.9a21.1 21.1 0 002.5 10.4c.9-4.6 2.4-7.6 4.1-7.6s4.4 5.6 4.8 12.9c5.2-.8 9.2-7.6 9.2-15.7s-4.6-15.9-10.3-15.9z" fill="#db7700"/><path class="cls-3" d="M128.6 96.2H116c-6.7 13.9-12.1 43.8-12.3 62.8l2.4-.3c10.5-29.1 18.3-40.4 19-42.9 1.6-6.4 2.4-14.9 3.5-19.6zM163.9 96.2h12.6c6.7 13.9 12.1 43.8 12.4 62.8l-2.4-.3c-10.5-29.1-18.4-40.4-19-42.9-1.7-6.4-2.4-14.9-3.6-19.6z"/><path d="M166.7 119.8c3.5-11.4 5.5-25.7 5.5-41.3 0-36.8-11.5-66.7-25.8-66.7s-25.9 29.9-25.9 66.7c0 15.6 2.1 29.9 5.6 41.3z" fill="#e2ecf2"/><path d="M137.3 119.8c-5-12.2-7.9-27.2-7.9-43.4 0-27.1 8.3-50.8 20.6-63.8a10.1 10.1 0 00-3.9-.8c-14.2 0-25.8 29.9-25.8 66.7 0 15.6 2.1 29.9 5.5 41.3z" fill="#afc0c9"/><path class="cls-3" d="M146.3 34a44.7 44.7 0 0121.1 5.4c-4.8-16.8-12.4-27.8-21.1-27.8s-16.4 11-21.1 27.8a44.1 44.1 0 0121.1-5.4z"/><path d="M149.8 12.3a11.5 11.5 0 00-3.6-.7c-8.7 0-16.3 11-21 27.8a46.3 46.3 0 0111.2-4.3c3.4-9.2 8-17 13.4-22.8z" fill="#0c336b"/><circle cx="146.6" cy="57.8" r="12.1" fill="#4b5159"/><path fill="#8d9599" d="M168 123.1h-43.5l1.3-3.3h40.9l1.3 3.3z"/><circle cx="146.6" cy="57.8" r="9.3" fill="#acefeb"/><path class="cls-3" d="M147.3 166.9H146l-2.2-72.3h5.6l-2.1 72.3z"/><path d="M149.7 61.6a.9.9 0 01-1.3-1.3l6.6-6.6a9.3 9.3 0 00-17.7 4.1 8.1 8.1 0 00.1 1.6l5.1-5a1 1 0 011.4 0 1.1 1.1 0 010 1.3l-5.8 5.8a10.1 10.1 0 00.7 1.5l2.2-2.2a1 1 0 011.3 0 1 1 0 010 1.4l-2.2 2.3a9.6 9.6 0 006.5 2.7 9.3 9.3 0 009.3-9.4 7.5 7.5 0 00-.2-2.1z" fill="#5ae2d5"/></svg>