<svg id="Layer_1" data-name="Layer 1" xmlns="http://www.w3.org/2000/svg" xmlns:xlink="http://www.w3.org/1999/xlink" viewBox="0 0 184 184"><defs><linearGradient id="linear-gradient" x1="131.52" y1="160.52" x2="124.11" y2="185.85" gradientTransform="matrix(1 0 0 -1 0 186)" gradientUnits="userSpaceOnUse"><stop offset="0" stop-color="#184186"/><stop offset="1" stop-color="#18867f"/></linearGradient><linearGradient id="linear-gradient-2" x1="129.63" y1="184.33" x2="126.79" y2="162.23" xlink:href="#linear-gradient"/><linearGradient id="linear-gradient-3" x1="126.99" y1="183.61" x2="124.15" y2="161.52" gradientTransform="matrix(1 0 0 -1 0 186)" gradientUnits="userSpaceOnUse"><stop offset="0" stop-color="#868218"/><stop offset="1" stop-color="#18867f"/></linearGradient><linearGradient id="linear-gradient-4" x1="128.48" y1="185.03" x2="128.27" y2="183.41" gradientTransform="matrix(1 0 0 -1 0 186)" gradientUnits="userSpaceOnUse"><stop offset="0" stop-color="#866e18"/><stop offset="1" stop-color="#f4cc3e"/></linearGradient><linearGradient id="linear-gradient-5" x1="163.58" y1="63.46" x2="173.58" y2="56.13" gradientTransform="matrix(1 0 0 -1 0 186)" gradientUnits="userSpaceOnUse"><stop offset="0" stop-color="#2afed8"/><stop offset="1" stop-color="#5cff23"/></linearGradient><linearGradient id="linear-gradient-6" x1="171.49" y1="55.65" x2="164.98" y2="63.16" gradientTransform="matrix(1 0 0 -1 0 186)" gradientUnits="userSpaceOnUse"><stop offset="0" stop-color="#29fabb"/><stop offset="1" stop-color="#63dfdf"/></linearGradient><linearGradient id="linear-gradient-7" x1="172.79" y1="57.4" x2="166.28" y2="64.9" gradientTransform="matrix(1 0 0 -1 0 186)" gradientUnits="userSpaceOnUse"><stop offset="0" stop-color="#24f4f4"/><stop offset="1" stop-color="#48b4d7"/></linearGradient><linearGradient id="linear-gradient-8" x1="172.41" y1="56.12" x2="171.93" y2="56.67" gradientTransform="matrix(1 0 0 -1 0 186)" gradientUnits="userSpaceOnUse"><stop offset="0" stop-color="#1eecc7"/><stop offset="1" stop-color="#80d32d"/></linearGradient><linearGradient id="linear-gradient-9" x1="167.62" y1="137.02" x2="177.62" y2="129.69" gradientTransform="matrix(1 0 0 -1 0 186)" gradientUnits="userSpaceOnUse"><stop offset="0" stop-color="#ef9123"/><stop offset="1" stop-color="#21e34c"/></linearGradient><linearGradient id="linear-gradient-10" x1="175.53" y1="129.21" x2="169.02" y2="136.72" gradientTransform="matrix(1 0 0 -1 0 186)" gradientUnits="userSpaceOnUse"><stop offset="0" stop-color="#eecb15"/><stop offset="1" stop-color="#f7ba1d"/></linearGradient><linearGradient id="linear-gradient-11" x1="176.83" y1="130.95" x2="170.32" y2="138.46" gradientTransform="matrix(1 0 0 -1 0 186)" gradientUnits="userSpaceOnUse"><stop offset="0" stop-color="#f3dd14"/><stop offset="1" stop-color="#d8d483"/></linearGradient><linearGradient id="linear-gradient-12" x1="176.45" y1="129.68" x2="175.97" y2="130.23" xlink:href="#linear-gradient-4"/><linearGradient id="linear-gradient-13" x1="44.18" y1="50.18" x2="57.88" y2="40.13" xlink:href="#linear-gradient"/><linearGradient id="linear-gradient-14" x1="55.03" y1="39.51" x2="46.11" y2="49.79" gradientTransform="matrix(1 0 0 -1 0 186)" gradientUnits="userSpaceOnUse"><stop offset="0" stop-color="#3b21df"/><stop offset="1" stop-color="#c77ff3"/></linearGradient><linearGradient id="linear-gradient-15" x1="56.83" y1="41.91" x2="47.91" y2="52.2" gradientTransform="matrix(1 0 0 -1 0 186)" gradientUnits="userSpaceOnUse"><stop offset="0" stop-color="#841886"/><stop offset="1" stop-color="#18867f"/></linearGradient><linearGradient id="linear-gradient-16" x1="56.31" y1="40.17" x2="55.66" y2="40.93" gradientTransform="matrix(1 0 0 -1 0 186)" gradientUnits="userSpaceOnUse"><stop offset="0" stop-color="#421886"/><stop offset="1" stop-color="#f4cc3e"/></linearGradient><linearGradient id="linear-gradient-17" x1="16.66" y1="79.92" x2="7.98" y2="96.17" gradientTransform="matrix(1 0 0 -1 0 186)" gradientUnits="userSpaceOnUse"><stop offset="0" stop-color="#fdc126"/><stop offset="1" stop-color="#ffa723"/></linearGradient><linearGradient id="linear-gradient-18" x1="6.24" y1="92.86" x2="18.91" y2="83.66" gradientTransform="matrix(1 0 0 -1 0 186)" gradientUnits="userSpaceOnUse"><stop offset="0" stop-color="#f7992c"/><stop offset="1" stop-color="#ffa724"/></linearGradient><linearGradient id="linear-gradient-19" x1="7.77" y1="93.72" x2="20.44" y2="84.52" gradientTransform="matrix(1 0 0 -1 0 186)" gradientUnits="userSpaceOnUse"><stop offset="0" stop-color="#ff6d1c"/><stop offset="1" stop-color="#f08523"/></linearGradient><linearGradient id="linear-gradient-20" x1="6.39" y1="93.73" x2="7.32" y2="93.05" gradientTransform="matrix(1 0 0 -1 0 186)" gradientUnits="userSpaceOnUse"><stop offset="0" stop-color="#f59439"/><stop offset="1" stop-color="#dea639"/></linearGradient><linearGradient id="linear-gradient-21" x1="139.87" y1="14.43" x2="126.76" y2="7.36" gradientTransform="matrix(1 0 0 -1 0 186)" gradientUnits="userSpaceOnUse"><stop offset="0" stop-color="#eeff2e"/><stop offset="1" stop-color="#e6c930"/></linearGradient><linearGradient id="linear-gradient-22" x1="129.29" y1="6.24" x2="138.01" y2="14.64" gradientTransform="matrix(1 0 0 -1 0 186)" gradientUnits="userSpaceOnUse"><stop offset="0" stop-color="#c1bb2e"/><stop offset="1" stop-color="#dfff17"/></linearGradient><linearGradient id="linear-gradient-23" x1="128.22" y1="8.17" x2="136.94" y2="16.57" gradientTransform="matrix(1 0 0 -1 0 186)" gradientUnits="userSpaceOnUse"><stop offset="0" stop-color="#a8ff1b"/><stop offset="1" stop-color="#e3dc34"/></linearGradient><linearGradient id="linear-gradient-24" x1="128.37" y1="6.76" x2="129.01" y2="7.38" gradientTransform="matrix(1 0 0 -1 0 186)" gradientUnits="userSpaceOnUse"><stop offset="0" stop-color="#d8f03d"/><stop offset="1" stop-color="#39d4de"/></linearGradient><linearGradient id="linear-gradient-25" x1="61.79" y1="139.13" x2="48.31" y2="145.41" gradientTransform="matrix(1 0 0 -1 0 186)" gradientUnits="userSpaceOnUse"><stop offset="0" stop-color="#3abacb"/><stop offset="1" stop-color="#3e56d0"/></linearGradient><linearGradient id="linear-gradient-26" x1="49.04" y1="142.98" x2="60.8" y2="140.98" gradientTransform="matrix(1 0 0 -1 0 186)" gradientUnits="userSpaceOnUse"><stop offset="0" stop-color="#1b54a9"/><stop offset="1" stop-color="#3cc2ec"/></linearGradient><linearGradient id="linear-gradient-27" x1="49.95" y1="144.99" x2="61.71" y2="142.99" gradientTransform="matrix(1 0 0 -1 0 186)" gradientUnits="userSpaceOnUse"><stop offset="0" stop-color="#5372d1"/><stop offset="1" stop-color="#239af0"/></linearGradient><linearGradient id="linear-gradient-28" x1="48.93" y1="144.05" x2="49.79" y2="143.91" gradientTransform="matrix(1 0 0 -1 0 186)" gradientUnits="userSpaceOnUse"><stop offset="0" stop-color="#6acbcb"/><stop offset="1" stop-color="#332c88"/></linearGradient><mask id="mask" x="168.26" y="125.77" width="7.67" height="7.49" maskUnits="userSpaceOnUse"><path class="cls-1" d="M169 132.5l4.8-4.2 1.4-1.7-4.8 4.1z" id="path-8-inside-1"/></mask><mask id="mask-2" x="172.3" y="52.22" width="7.67" height="7.49" maskUnits="userSpaceOnUse"><path class="cls-1" d="M173.1 58.9l4.7-4.1 1.4-1.8-4.8 4.1z" id="path-13-inside-2"/></mask><mask id="mask-3" x="50.92" y="140.49" width="9.94" height="9.69" maskUnits="userSpaceOnUse"><path class="cls-1" d="M51.7 149.4l6.5-5.7 1.9-2.4-6.6 5.6z" id="path-18-inside-3"/></mask><mask id="mask-4" x="4.03" y="89.46" width="5.94" height="6.52" maskUnits="userSpaceOnUse"><path class="cls-1" d="M4.8 95.1l2.8-3.9 1.6-.9-2.8 3.9z" id="path-23-inside-4"/></mask><mask id="mask-5" x="125.21" y="174.87" width="7.15" height="7.92" maskUnits="userSpaceOnUse"><path class="cls-1" d="M131.5 182.1l-4.3-4.5-1.1-2 4.3 4.5z" id="path-28-inside-5"/></mask><mask id="mask-6" x="47.5" y="37.46" width="3.97" height="9.18" maskUnits="userSpaceOnUse"><path class="cls-1" d="M48.5 46.2l1.1-6.3.9-2-1.1 6.2z" id="path-33-inside-6"/></mask><style>.cls-1{fill:#fff}.cls-12,.cls-2{fill:#184186}.cls-2{fill-opacity:.2;stroke:#184186}</style></defs><circle class="cls-2" cx="92" cy="92" r="91"/><path d="M126.5 23.3l6.1-20.4-1.5.4zm-3-.2l1.9-21.2-1.6.4-.6 21z" fill="url(#linear-gradient)" stroke="#184186"/><path d="M126.5 23.2l6.2-20.6-6.3-.8-1.9 21.2z" fill="url(#linear-gradient-2)" stroke="#184186"/><path d="M125.2 24.1l4.9-20.8-6.3-.8-.6 21.3z" fill="url(#linear-gradient-3)" stroke="#184186"/><path d="M130.6 2.4h.2l-4.8-.7h-.1z" fill="url(#linear-gradient-4)" stroke="#184186"/><path d="M166.3 123.9l2.9 7.6.6-.9zm1.4-3l6.1 6.7.7-1-6.7-5.8z" fill="url(#linear-gradient-5)" stroke="#184186"/><path d="M165.8 122.8l3.4 8.8 3.9-3.3-6-6.6z" fill="url(#linear-gradient-6)" stroke="#184186"/><path d="M166.3 121.8l4.2 8.1 3.9-3.3-6.8-6z" fill="url(#linear-gradient-7)" stroke="#184186"/><path d="M169 132.5l4.8-4.2 1.4-1.7-4.8 4.1z" fill="url(#linear-gradient-8)"/><g mask="url(#mask)"><path class="cls-12" d="M169 132.5l.7.8-1.4-1.4zm4.8-4.2l.8.7h-.2zm1.4-1.7l-.7-.8 1.4 1.4zm-4.8 4.1l-.8-.6h.2zm-2 1l4.8-4.1 1.2 1.5-4.7 4.2zm4.6-4l1.4-1.8 1.5 1.3-1.3 1.8zm2.8-.4l-4.8 4.2-1.2-1.6 4.7-4.1zm-4.6 4l-1.4 1.8-1.5-1.2 1.3-1.8z"/></g><path d="M170.3 50.3l2.9 7.6.6-.8zm1.4-3l6.1 6.7.7-.9-6.7-5.9z" fill="url(#linear-gradient-9)" stroke="#184186"/><path d="M169.9 49.2l3.4 8.9 3.8-3.4-6-6.6z" fill="url(#linear-gradient-10)" stroke="#184186"/><path d="M170.3 48.2l4.3 8.1 3.8-3.3-6.8-5.9z" fill="url(#linear-gradient-11)" stroke="#184186"/><path d="M173.1 58.9l4.7-4.1 1.4-1.8-4.8 4.1z" fill="url(#linear-gradient-12)"/><g mask="url(#mask-2)"><path class="cls-12" d="M173.1 58.9l.6.8-1.4-1.4zm4.7-4.1l.8.6h-.1zm1.4-1.8l-.6-.8 1.4 1.4zm-4.8 4.1l-.8-.6h.2zm-2 1.1l4.8-4.2 1.3 1.6-4.8 4.1zm4.7-4l1.3-1.8 1.6 1.2-1.4 1.8zm2.7-.4l-4.7 4.1-1.3-1.5 4.8-4.2zm-4.6 4l-1.4 1.7-1.5-1.2 1.3-1.8z"/></g><path d="M47 135.9l4.8 12.5 1.2-1.5-5.9-11.2zm2.6-2.4l8.6 9.4 1.2-1.6-9.5-8.3z" fill="url(#linear-gradient-13)" stroke="#184186"/><path d="M47.1 136l4.8 12.6 5.6-4.9-8.5-9.4z" fill="url(#linear-gradient-14)" stroke="#184186"/><path d="M47.7 134.6l6 11.5 5.6-4.8-9.6-8.4z" fill="url(#linear-gradient-15)" stroke="#184186"/><path d="M51.7 149.4l6.5-5.7 1.9-2.4-6.6 5.6z" fill="url(#linear-gradient-16)"/><g mask="url(#mask-3)"><path class="cls-12" d="M51.7 149.4l.6.8-1.4-1.4zm6.5-5.7l.8.6h-.1zm1.9-2.4l-.6-.8 1.4 1.4zm-6.6 5.6l-.7-.6h.1zm-2.4 1.7l6.5-5.7 1.3 1.6-6.6 5.7zm6.4-5.5l1.8-2.5 1.6 1.3-1.9 2.4zm3.2-1.1l-6.5 5.7-1.3-1.5 6.6-5.7zm-6.4 5.6l-1.8 2.4-1.6-1.2 1.9-2.5z"/></g><path d="M13.4 99.2l-7.5-4.1.5-.3zm4.3-.4l-9.2-7.5.6-.3z" fill="url(#linear-gradient-17)" stroke="#184186"/><path d="M18.5 102L5.6 94.9 7.7 92l11.4 9.3z" fill="url(#linear-gradient-18)" stroke="#184186"/><path d="M19.5 101.9L7.1 94.1l2.2-3 10.8 10z" fill="url(#linear-gradient-19)" stroke="#184186"/><path d="M4.8 95.1l2.8-3.9 1.6-.9-2.8 3.9z" fill="url(#linear-gradient-20)"/><g mask="url(#mask-4)"><path class="cls-12" d="M4.8 95.1l-.8-.6L5.3 96zm2.8-3.9l-.5-.9H7l-.2.2zm1.6-.9l.8.7-1.3-1.5zm-2.8 3.9l.5.9H7l.2-.2zm-.8 1.5l2.8-3.9-1.6-1.2L4 94.5zm2.5-3.6l1.6-.9-1-1.7-1.6.8zm.3-2.4l-2.8 3.9 1.6 1.2L10 91zm-2.5 3.6l-1.6.9 1 1.8 1.6-.9z"/></g><path d="M136.3 172.4l-4.8 8.7-.5-1zm-.9-3.3l-8.1 7.7-.6-1.1 8.7-6.7z" fill="url(#linear-gradient-21)" stroke="#184186"/><path d="M137.1 171.1l-5.7 10.2-3.5-3.7 8.1-7.6z" fill="url(#linear-gradient-22)" stroke="#184186"/><path d="M136.8 170l-6.5 9.3-3.5-3.7 8.8-6.8z" fill="url(#linear-gradient-23)" stroke="#184186"/><path d="M131.5 182.1l-4.3-4.5-1.1-2 4.3 4.5z" fill="url(#linear-gradient-24)"/><g mask="url(#mask-5)"><path class="cls-12" d="M131.5 182.1l-.7.7 1.6-1.2zm-4.3-4.5l-.9.5h.2zm-1.1-2l.7-.7-1.6 1.2zm4.3 4.5l.9-.5h-.2zm1.8 1.3l-4.3-4.6-1.4 1.5 4.3 4.5zM128 177l-1.1-1.9-1.7 1 1.1 2zm-2.6-.7l4.3 4.5 1.4-1.4-4.3-4.5zm4.2 4.3l1.1 2 1.7-1-1.1-2z"/></g><path d="M59.1 44.7l-9.8.9.4-1zm1.9-2.6l-10.7-2.5.5-1.1L61.1 42z" fill="url(#linear-gradient-25)" stroke="#184186"/><path d="M60.4 44.6l-11.3 1.1.9-5.2L60.6 43z" fill="url(#linear-gradient-26)" stroke="#184186"/><path d="M61.1 43.7H50l.9-5.2 10.5 3.6z" fill="url(#linear-gradient-27)" stroke="#184186"/><path d="M48.5 46.2l1.1-6.3.9-2-1.1 6.2z" fill="url(#linear-gradient-28)"/><g mask="url(#mask-6)"><path class="cls-12" d="M48.5 46.2l-1-.2 1.9.6zm1.1-6.3l-.9-.4h-.1v.2zm.9-2l1 .2-1.9-.6zm-1.1 6.2l.9.5h.1v-.2zm.1 2.3l1.1-6.3-2-.3-1.1 6.2zm1-6l.9-2.1-1.8-.8-.9 2zm-1-2.7L48.4 44l2 .3 1.1-6.2zm-1 6l-.9 2.1 1.8.8.9-2z"/></g><circle cx="92" cy="92" r="57.2" stroke="#184186" fill="#184186"/><circle class="cls-2" cx="92" cy="92" r="72.8"/></svg>