<svg id="Layer_1" data-name="Layer 1" xmlns="http://www.w3.org/2000/svg" viewBox="0 0 128 128">
  <defs>
    <style>
      .cls-1 {
        fill: #1d4485;
      }

      .cls-2 {
        fill: #193e6b;
      }
    </style>
  </defs>
  <g>
    <path class="cls-1" d="M116.4,58.6,91.5,41.3,66.6,24.1a3.9,3.9,0,0,0-2.5-.8h-.2a3.9,3.9,0,0,0-2.5.8L36.5,41.3,11.6,58.6C8.1,61,8.1,67,11.6,69.4L36.5,86.7l6.8,4.7V44.2H55.5l8.6,9h0l8.7-9H85v39H72.8v-23l-8.7,9.1h0l-8.6-9.1V99.8h0l5.9,4.1a3.9,3.9,0,0,0,2.5.8h.2a3.9,3.9,0,0,0,2.5-.8L91.5,86.7l24.9-17.3C119.9,67,119.9,61,116.4,58.6Z"/>
    <g>
      <path class="cls-2" d="M43.3,44.2H55.5L64,53.2V23.3h-.1a3.9,3.9,0,0,0-2.5.8L36.5,41.3,11.6,58.6C8.1,61,8.1,67,11.6,69.4L36.5,86.7l6.8,4.7Z"/>
      <path class="cls-2" d="M55.5,60.2V99.8l5.9,4.1a3.9,3.9,0,0,0,2.5.8H64V69.2Z"/>
    </g>
  </g>
</svg>
